<svg width="361" height="136" viewBox="0 0 361 136" fill="none" xmlns="http://www.w3.org/2000/svg">
<g id="Balance-card">
<g id="Balance-card_2">
<path d="M0 16C0 7.16344 7.16344 0 16 0H345C353.837 0 361 7.16344 361 16V120C361 128.837 353.837 136 345 136H16C7.16345 136 0 128.837 0 120V16Z" fill="#FCF8F8"/>
<g id="card-content">
<g id="Frame 12">
<path id="AVAILABLE BALANCE" d="M18.1042 44H16.7065L19.8471 35.2727H21.3684L24.5091 44H23.1113L20.644 36.858H20.5758L18.1042 44ZM18.3386 40.5824H22.8727V41.6903H18.3386V40.5824ZM26.1181 35.2727L28.5471 42.3807H28.6451L31.074 35.2727H32.4973L29.3567 44H27.8354L24.6948 35.2727H26.1181ZM34.1042 44H32.7065L35.8471 35.2727H37.3684L40.5091 44H39.1113L36.644 36.858H36.5758L34.1042 44ZM34.3386 40.5824H38.8727V41.6903H34.3386V40.5824ZM43.5861 35.2727V44H42.2694V35.2727H43.5861ZM46.0037 44V35.2727H47.3205V42.8665H51.275V44H46.0037ZM54.4597 44H53.062L56.2026 35.2727H57.7239L60.8645 44H59.4668L56.9995 36.858H56.9313L54.4597 44ZM54.6941 40.5824H59.2282V41.6903H54.6941V40.5824ZM62.6248 44V35.2727H65.8208C66.4402 35.2727 66.9529 35.375 67.3592 35.5795C67.7654 35.7812 68.0694 36.0554 68.2711 36.402C68.4728 36.7457 68.5737 37.1335 68.5737 37.5653C68.5737 37.929 68.5069 38.2358 68.3734 38.4858C68.2399 38.733 68.0609 38.9318 67.8365 39.0824C67.6149 39.2301 67.3706 39.3381 67.1035 39.4062V39.4915C67.3933 39.5057 67.676 39.5994 67.9515 39.7727C68.2299 39.9432 68.46 40.1861 68.6419 40.5014C68.8237 40.8168 68.9146 41.2003 68.9146 41.652C68.9146 42.098 68.8095 42.4986 68.5993 42.8537C68.3919 43.206 68.0708 43.4858 67.6362 43.6932C67.2015 43.8977 66.6461 44 65.97 44H62.6248ZM63.9416 42.8707H65.8422C66.4728 42.8707 66.9245 42.7486 67.1973 42.5043C67.47 42.2599 67.6064 41.9545 67.6064 41.5881C67.6064 41.3125 67.5368 41.0597 67.3975 40.8295C67.2583 40.5994 67.0595 40.4162 66.801 40.2798C66.5453 40.1435 66.2413 40.0753 65.889 40.0753H63.9416V42.8707ZM63.9416 39.0483H65.7058C66.0012 39.0483 66.2669 38.9915 66.5027 38.8778C66.7413 38.7642 66.9302 38.6051 67.0694 38.4006C67.2115 38.1932 67.2825 37.9489 67.2825 37.6676C67.2825 37.3068 67.1561 37.0043 66.9032 36.7599C66.6504 36.5156 66.2626 36.3935 65.7399 36.3935H63.9416V39.0483ZM70.9764 44V35.2727H72.2931V42.8665H76.2477V44H70.9764ZM78.2498 44V35.2727H83.7214V36.4062H79.5666V39.0653H83.4359V40.1946H79.5666V42.8665H83.7726V44H78.2498ZM89.6561 44V35.2727H92.8521C93.4714 35.2727 93.9842 35.375 94.3904 35.5795C94.7967 35.7812 95.1007 36.0554 95.3024 36.402C95.5041 36.7457 95.6049 37.1335 95.6049 37.5653C95.6049 37.929 95.5382 38.2358 95.4047 38.4858C95.2711 38.733 95.0922 38.9318 94.8677 39.0824C94.6461 39.2301 94.4018 39.3381 94.1348 39.4062V39.4915C94.4245 39.5057 94.7072 39.5994 94.9828 39.7727C95.2612 39.9432 95.4913 40.1861 95.6731 40.5014C95.8549 40.8168 95.9458 41.2003 95.9458 41.652C95.9458 42.098 95.8407 42.4986 95.6305 42.8537C95.4231 43.206 95.1021 43.4858 94.6674 43.6932C94.2328 43.8977 93.6774 44 93.0012 44H89.6561ZM90.9728 42.8707H92.8734C93.5041 42.8707 93.9558 42.7486 94.2285 42.5043C94.5012 42.2599 94.6376 41.9545 94.6376 41.5881C94.6376 41.3125 94.568 41.0597 94.4288 40.8295C94.2896 40.5994 94.0907 40.4162 93.8322 40.2798C93.5765 40.1435 93.2725 40.0753 92.9203 40.0753H90.9728V42.8707ZM90.9728 39.0483H92.737C93.0325 39.0483 93.2981 38.9915 93.5339 38.8778C93.7725 38.7642 93.9615 38.6051 94.1007 38.4006C94.2427 38.1932 94.3137 37.9489 94.3137 37.6676C94.3137 37.3068 94.1873 37.0043 93.9345 36.7599C93.6816 36.5156 93.2939 36.3935 92.7711 36.3935H90.9728V39.0483ZM98.7449 44H97.3471L100.488 35.2727H102.009L105.15 44H103.752L101.285 36.858H101.216L98.7449 44ZM98.9792 40.5824H103.513V41.6903H98.9792V40.5824ZM106.91 44V35.2727H108.227V42.8665H112.181V44H106.91ZM115.366 44H113.968L117.109 35.2727H118.63L121.771 44H120.373L117.906 36.858H117.838L115.366 44ZM115.6 40.5824H120.134V41.6903H115.6V40.5824ZM130.575 35.2727V44H129.365L124.929 37.5994H124.848V44H123.531V35.2727H124.75L129.19 41.6818H129.271V35.2727H130.575ZM140.244 38.1108H138.915C138.864 37.8267 138.769 37.5767 138.629 37.3608C138.49 37.1449 138.32 36.9616 138.118 36.8111C137.916 36.6605 137.691 36.5469 137.441 36.4702C137.193 36.3935 136.931 36.3551 136.652 36.3551C136.149 36.3551 135.699 36.4815 135.301 36.7344C134.906 36.9872 134.594 37.358 134.364 37.8466C134.137 38.3352 134.023 38.9318 134.023 39.6364C134.023 40.3466 134.137 40.946 134.364 41.4347C134.594 41.9233 134.908 42.2926 135.306 42.5426C135.703 42.7926 136.151 42.9176 136.648 42.9176C136.923 42.9176 137.185 42.8807 137.432 42.8068C137.682 42.7301 137.908 42.6179 138.11 42.4702C138.311 42.3224 138.482 42.142 138.621 41.929C138.763 41.7131 138.861 41.4659 138.915 41.1875L140.244 41.1918C140.173 41.6207 140.036 42.0156 139.831 42.3764C139.629 42.7344 139.369 43.044 139.051 43.3054C138.736 43.5639 138.375 43.7642 137.969 43.9062C137.563 44.0483 137.119 44.1193 136.639 44.1193C135.884 44.1193 135.21 43.9403 134.619 43.5824C134.029 43.2216 133.563 42.706 133.222 42.0355C132.884 41.3651 132.715 40.5653 132.715 39.6364C132.715 38.7045 132.885 37.9048 133.226 37.2372C133.567 36.5668 134.033 36.0526 134.624 35.6946C135.215 35.3338 135.887 35.1534 136.639 35.1534C137.102 35.1534 137.534 35.2202 137.935 35.3537C138.338 35.4844 138.7 35.6776 139.021 35.9332C139.343 36.1861 139.608 36.4957 139.818 36.8622C140.029 37.2259 140.171 37.642 140.244 38.1108ZM142.32 44V35.2727H147.792V36.4062H143.637V39.0653H147.506V40.1946H143.637V42.8665H147.843V44H142.32Z" fill="#454745"/>
<g id="Cash-in BT">
<g clip-path="url(#clip0_77_3883)">
<rect x="225" y="16" width="120" height="48" rx="24" fill="#7BF179"/>
<g id="state-layer">
<g id="icon">
<path id="icon_2" d="M249.25 40.75H244.75V39.25H249.25V34.75H250.75V39.25H255.25V40.75H250.75V45.25H249.25V40.75Z" fill="#102000"/>
</g>
<path id="label-text" d="M276.94 38.2536H275.081C275.028 37.9486 274.93 37.6785 274.787 37.4432C274.645 37.2045 274.468 37.0024 274.256 36.8366C274.043 36.6709 273.801 36.5466 273.53 36.4638C273.261 36.3776 272.971 36.3345 272.66 36.3345C272.106 36.3345 271.616 36.4737 271.188 36.7521C270.76 37.0272 270.426 37.4316 270.184 37.9652C269.942 38.4955 269.821 39.1435 269.821 39.9091C269.821 40.688 269.942 41.3442 270.184 41.8778C270.429 42.4081 270.764 42.8092 271.188 43.081C271.616 43.3494 272.104 43.4837 272.655 43.4837C272.96 43.4837 273.245 43.4439 273.51 43.3643C273.778 43.2815 274.019 43.1605 274.231 43.0014C274.446 42.8423 274.627 42.6468 274.773 42.4148C274.922 42.1828 275.024 41.9176 275.081 41.6193L276.94 41.6293C276.871 42.1132 276.72 42.5672 276.488 42.9915C276.259 43.4157 275.959 43.7902 275.588 44.1151C275.217 44.4366 274.782 44.6884 274.285 44.8707C273.788 45.0497 273.236 45.1392 272.63 45.1392C271.735 45.1392 270.936 44.9321 270.233 44.5178C269.531 44.1035 268.977 43.5052 268.573 42.723C268.169 41.9408 267.966 41.0028 267.966 39.9091C267.966 38.812 268.17 37.8741 268.578 37.0952C268.986 36.313 269.541 35.7147 270.243 35.3004C270.946 34.8861 271.742 34.679 272.63 34.679C273.197 34.679 273.724 34.7585 274.211 34.9176C274.698 35.0767 275.132 35.3104 275.513 35.6186C275.894 35.9235 276.208 36.2981 276.453 36.7422C276.702 37.183 276.864 37.6868 276.94 38.2536ZM281.247 45.1541C280.763 45.1541 280.327 45.0679 279.94 44.8956C279.555 44.7199 279.25 44.4614 279.025 44.12C278.803 43.7786 278.692 43.3577 278.692 42.8572C278.692 42.4264 278.771 42.0701 278.93 41.7884C279.089 41.5066 279.307 41.2812 279.582 41.1122C279.857 40.9432 280.167 40.8156 280.511 40.7294C280.859 40.6399 281.219 40.5753 281.59 40.5355C282.038 40.4891 282.401 40.4477 282.679 40.4112C282.957 40.3714 283.16 40.3118 283.286 40.2322C283.415 40.1494 283.479 40.0218 283.479 39.8494V39.8196C283.479 39.4451 283.368 39.1551 283.146 38.9496C282.924 38.7441 282.604 38.6413 282.187 38.6413C281.746 38.6413 281.396 38.7375 281.138 38.9297C280.883 39.1219 280.71 39.349 280.621 39.6108L278.94 39.3722C279.073 38.9081 279.292 38.5204 279.597 38.2088C279.902 37.8939 280.274 37.6586 280.715 37.5028C281.156 37.3438 281.643 37.2642 282.177 37.2642C282.545 37.2642 282.911 37.3073 283.276 37.3935C283.64 37.4796 283.973 37.6222 284.275 37.821C284.576 38.0166 284.818 38.2834 285.001 38.6214C285.186 38.9595 285.279 39.3821 285.279 39.8892V45H283.549V43.951H283.489C283.38 44.1631 283.226 44.362 283.027 44.5476C282.831 44.7299 282.585 44.8774 282.286 44.9901C281.991 45.0994 281.645 45.1541 281.247 45.1541ZM281.714 43.8317C282.076 43.8317 282.389 43.7604 282.654 43.6179C282.919 43.4721 283.123 43.2798 283.266 43.0412C283.411 42.8026 283.484 42.5424 283.484 42.2607V41.3608C283.428 41.4072 283.332 41.4503 283.196 41.4901C283.063 41.5298 282.914 41.5646 282.749 41.5945C282.583 41.6243 282.419 41.6508 282.256 41.674C282.094 41.6972 281.953 41.7171 281.834 41.7337C281.565 41.7701 281.325 41.8298 281.113 41.9126C280.901 41.9955 280.733 42.1115 280.611 42.2607C280.488 42.4065 280.427 42.5954 280.427 42.8274C280.427 43.1589 280.548 43.4091 280.79 43.5781C281.032 43.7472 281.34 43.8317 281.714 43.8317ZM293.624 39.3821L291.984 39.5611C291.937 39.3954 291.856 39.2396 291.74 39.0938C291.627 38.9479 291.475 38.8303 291.283 38.7408C291.09 38.6513 290.855 38.6065 290.577 38.6065C290.202 38.6065 289.887 38.6877 289.632 38.8501C289.38 39.0125 289.256 39.223 289.259 39.4815C289.256 39.7036 289.337 39.8842 289.503 40.0234C289.672 40.1626 289.95 40.277 290.338 40.3665L291.641 40.6449C292.363 40.8007 292.9 41.0476 293.251 41.3857C293.606 41.7237 293.785 42.1662 293.788 42.7131C293.785 43.1937 293.644 43.6179 293.366 43.9858C293.091 44.3504 292.708 44.6354 292.217 44.8409C291.727 45.0464 291.163 45.1491 290.527 45.1491C289.592 45.1491 288.84 44.9536 288.27 44.5625C287.7 44.1681 287.36 43.6196 287.251 42.9169L289.006 42.7479C289.085 43.0926 289.254 43.3527 289.513 43.5284C289.771 43.7041 290.108 43.7919 290.522 43.7919C290.95 43.7919 291.293 43.7041 291.551 43.5284C291.813 43.3527 291.944 43.1357 291.944 42.8771C291.944 42.6584 291.859 42.4777 291.69 42.3352C291.525 42.1927 291.266 42.0833 290.915 42.0071L289.612 41.7337C288.88 41.5812 288.338 41.3243 287.987 40.9631C287.635 40.5985 287.461 40.1378 287.464 39.581C287.461 39.1103 287.589 38.7027 287.847 38.358C288.109 38.0099 288.472 37.7415 288.936 37.5526C289.403 37.3603 289.942 37.2642 290.552 37.2642C291.447 37.2642 292.151 37.4548 292.665 37.8359C293.182 38.2171 293.502 38.7325 293.624 39.3821ZM297.572 40.5256V45H295.772V34.8182H297.532V38.6612H297.622C297.801 38.2304 298.078 37.8906 298.452 37.642C298.83 37.3902 299.31 37.2642 299.894 37.2642C300.424 37.2642 300.886 37.3752 301.281 37.5973C301.675 37.8194 301.98 38.1442 302.196 38.5717C302.414 38.9993 302.524 39.5213 302.524 40.1378V45H300.724V40.4162C300.724 39.9025 300.592 39.5031 300.326 39.218C300.065 38.9297 299.697 38.7855 299.223 38.7855C298.904 38.7855 298.619 38.8551 298.368 38.9943C298.119 39.1302 297.923 39.3274 297.781 39.5859C297.642 39.8445 297.572 40.1577 297.572 40.5256ZM310.755 34.8182V45H308.911V34.8182H310.755ZM314.972 40.5256V45H313.173V37.3636H314.893V38.6612H314.982C315.158 38.2337 315.438 37.8939 315.823 37.642C316.21 37.3902 316.689 37.2642 317.259 37.2642C317.786 37.2642 318.245 37.3769 318.637 37.6023C319.031 37.8277 319.336 38.1541 319.551 38.5817C319.77 39.0092 319.878 39.5279 319.874 40.1378V45H318.075V40.4162C318.075 39.9058 317.942 39.5064 317.677 39.218C317.415 38.9297 317.052 38.7855 316.588 38.7855C316.273 38.7855 315.993 38.8551 315.748 38.9943C315.506 39.1302 315.316 39.3274 315.176 39.5859C315.04 39.8445 314.972 40.1577 314.972 40.5256Z" fill="#102000"/>
</g>
</g>
</g>
</g>
<path id="$ 400.00" d="M24.96 114.84V84.76H27.584V114.84H24.96ZM25.952 111.32C24.2027 111.32 22.528 111.075 20.928 110.584C19.328 110.072 18.0587 109.421 17.12 108.632L18.56 105.4C19.456 106.104 20.5653 106.691 21.888 107.16C23.2107 107.629 24.5653 107.864 25.952 107.864C27.1253 107.864 28.0747 107.736 28.8 107.48C29.5253 107.224 30.0587 106.883 30.4 106.456C30.7413 106.008 30.912 105.507 30.912 104.952C30.912 104.269 30.6667 103.725 30.176 103.32C29.6853 102.893 29.0453 102.563 28.256 102.328C27.488 102.072 26.624 101.837 25.664 101.624C24.7253 101.411 23.776 101.165 22.816 100.888C21.8773 100.589 21.0133 100.216 20.224 99.768C19.456 99.2987 18.8267 98.68 18.336 97.912C17.8453 97.144 17.6 96.1627 17.6 94.968C17.6 93.752 17.92 92.6427 18.56 91.64C19.2213 90.616 20.2133 89.8053 21.536 89.208C22.88 88.5893 24.576 88.28 26.624 88.28C27.968 88.28 29.3013 88.4507 30.624 88.792C31.9467 89.1333 33.0987 89.624 34.08 90.264L32.768 93.496C31.7653 92.8987 30.7307 92.4613 29.664 92.184C28.5973 91.8853 27.5733 91.736 26.592 91.736C25.44 91.736 24.5013 91.8747 23.776 92.152C23.072 92.4293 22.5493 92.792 22.208 93.24C21.888 93.688 21.728 94.2 21.728 94.776C21.728 95.4587 21.9627 96.0133 22.432 96.44C22.9227 96.8453 23.552 97.1653 24.32 97.4C25.1093 97.6347 25.984 97.8693 26.944 98.104C27.904 98.3173 28.8533 98.5627 29.792 98.84C30.752 99.1173 31.616 99.48 32.384 99.928C33.1733 100.376 33.8027 100.984 34.272 101.752C34.7627 102.52 35.008 103.491 35.008 104.664C35.008 105.859 34.6773 106.968 34.016 107.992C33.376 108.995 32.384 109.805 31.04 110.424C29.696 111.021 28 111.32 25.952 111.32ZM46.0568 105.912V103.032L57.0968 88.6H61.5448L50.6648 103.032L48.5848 102.392H66.3448V105.912H46.0568ZM58.3448 111V105.912L58.4728 102.392V97.88H62.3768V111H58.3448ZM77.4395 111.32C75.6688 111.32 74.0688 110.872 72.6395 109.976C71.2315 109.08 70.1222 107.779 69.3115 106.072C68.5008 104.344 68.0955 102.253 68.0955 99.8C68.0955 97.3467 68.5008 95.2667 69.3115 93.56C70.1222 91.832 71.2315 90.52 72.6395 89.624C74.0688 88.728 75.6688 88.28 77.4395 88.28C79.2315 88.28 80.8315 88.728 82.2395 89.624C83.6475 90.52 84.7568 91.832 85.5675 93.56C86.3995 95.2667 86.8155 97.3467 86.8155 99.8C86.8155 102.253 86.3995 104.344 85.5675 106.072C84.7568 107.779 83.6475 109.08 82.2395 109.976C80.8315 110.872 79.2315 111.32 77.4395 111.32ZM77.4395 107.704C78.4848 107.704 79.3915 107.427 80.1595 106.872C80.9275 106.296 81.5248 105.421 81.9515 104.248C82.3995 103.075 82.6235 101.592 82.6235 99.8C82.6235 97.9867 82.3995 96.504 81.9515 95.352C81.5248 94.1787 80.9275 93.3147 80.1595 92.76C79.3915 92.184 78.4848 91.896 77.4395 91.896C76.4368 91.896 75.5408 92.184 74.7515 92.76C73.9835 93.3147 73.3755 94.1787 72.9275 95.352C72.5008 96.504 72.2875 97.9867 72.2875 99.8C72.2875 101.592 72.5008 103.075 72.9275 104.248C73.3755 105.421 73.9835 106.296 74.7515 106.872C75.5408 107.427 76.4368 107.704 77.4395 107.704ZM98.9708 111.32C97.2001 111.32 95.6001 110.872 94.1708 109.976C92.7628 109.08 91.6534 107.779 90.8428 106.072C90.0321 104.344 89.6268 102.253 89.6268 99.8C89.6268 97.3467 90.0321 95.2667 90.8428 93.56C91.6534 91.832 92.7628 90.52 94.1708 89.624C95.6001 88.728 97.2001 88.28 98.9708 88.28C100.763 88.28 102.363 88.728 103.771 89.624C105.179 90.52 106.288 91.832 107.099 93.56C107.931 95.2667 108.347 97.3467 108.347 99.8C108.347 102.253 107.931 104.344 107.099 106.072C106.288 107.779 105.179 109.08 103.771 109.976C102.363 110.872 100.763 111.32 98.9708 111.32ZM98.9708 107.704C100.016 107.704 100.923 107.427 101.691 106.872C102.459 106.296 103.056 105.421 103.483 104.248C103.931 103.075 104.155 101.592 104.155 99.8C104.155 97.9867 103.931 96.504 103.483 95.352C103.056 94.1787 102.459 93.3147 101.691 92.76C100.923 92.184 100.016 91.896 98.9708 91.896C97.9681 91.896 97.0721 92.184 96.2828 92.76C95.5148 93.3147 94.9068 94.1787 94.4588 95.352C94.0321 96.504 93.8188 97.9867 93.8188 99.8C93.8188 101.592 94.0321 103.075 94.4588 104.248C94.9068 105.421 95.5148 106.296 96.2828 106.872C97.0721 107.427 97.9681 107.704 98.9708 107.704ZM113.279 111.224C112.554 111.224 111.935 110.979 111.423 110.488C110.911 109.976 110.655 109.336 110.655 108.568C110.655 107.757 110.911 107.117 111.423 106.648C111.935 106.157 112.554 105.912 113.279 105.912C114.004 105.912 114.623 106.157 115.135 106.648C115.647 107.117 115.903 107.757 115.903 108.568C115.903 109.336 115.647 109.976 115.135 110.488C114.623 110.979 114.004 111.224 113.279 111.224ZM127.565 111.32C125.794 111.32 124.194 110.872 122.765 109.976C121.357 109.08 120.247 107.779 119.437 106.072C118.626 104.344 118.221 102.253 118.221 99.8C118.221 97.3467 118.626 95.2667 119.437 93.56C120.247 91.832 121.357 90.52 122.765 89.624C124.194 88.728 125.794 88.28 127.565 88.28C129.357 88.28 130.957 88.728 132.365 89.624C133.773 90.52 134.882 91.832 135.693 93.56C136.525 95.2667 136.941 97.3467 136.941 99.8C136.941 102.253 136.525 104.344 135.693 106.072C134.882 107.779 133.773 109.08 132.365 109.976C130.957 110.872 129.357 111.32 127.565 111.32ZM127.565 107.704C128.61 107.704 129.517 107.427 130.285 106.872C131.053 106.296 131.65 105.421 132.077 104.248C132.525 103.075 132.749 101.592 132.749 99.8C132.749 97.9867 132.525 96.504 132.077 95.352C131.65 94.1787 131.053 93.3147 130.285 92.76C129.517 92.184 128.61 91.896 127.565 91.896C126.562 91.896 125.666 92.184 124.877 92.76C124.109 93.3147 123.501 94.1787 123.053 95.352C122.626 96.504 122.413 97.9867 122.413 99.8C122.413 101.592 122.626 103.075 123.053 104.248C123.501 105.421 124.109 106.296 124.877 106.872C125.666 107.427 126.562 107.704 127.565 107.704ZM149.096 111.32C147.325 111.32 145.725 110.872 144.296 109.976C142.888 109.08 141.778 107.779 140.968 106.072C140.157 104.344 139.752 102.253 139.752 99.8C139.752 97.3467 140.157 95.2667 140.968 93.56C141.778 91.832 142.888 90.52 144.296 89.624C145.725 88.728 147.325 88.28 149.096 88.28C150.888 88.28 152.488 88.728 153.896 89.624C155.304 90.52 156.413 91.832 157.224 93.56C158.056 95.2667 158.472 97.3467 158.472 99.8C158.472 102.253 158.056 104.344 157.224 106.072C156.413 107.779 155.304 109.08 153.896 109.976C152.488 110.872 150.888 111.32 149.096 111.32ZM149.096 107.704C150.141 107.704 151.048 107.427 151.816 106.872C152.584 106.296 153.181 105.421 153.608 104.248C154.056 103.075 154.28 101.592 154.28 99.8C154.28 97.9867 154.056 96.504 153.608 95.352C153.181 94.1787 152.584 93.3147 151.816 92.76C151.048 92.184 150.141 91.896 149.096 91.896C148.093 91.896 147.197 92.184 146.408 92.76C145.64 93.3147 145.032 94.1787 144.584 95.352C144.157 96.504 143.944 97.9867 143.944 99.8C143.944 101.592 144.157 103.075 144.584 104.248C145.032 105.421 145.64 106.296 146.408 106.872C147.197 107.427 148.093 107.704 149.096 107.704Z" fill="#102000"/>
</g>
</g>
</g>
<defs>
<clipPath id="clip0_77_3883">
<rect x="225" y="16" width="120" height="48" rx="24" fill="white"/>
</clipPath>
</defs>
</svg>
