<svg width="361" height="152" viewBox="0 0 361 152" fill="none" xmlns="http://www.w3.org/2000/svg">
<g id="Cash-in options">
<path d="M0 12C0 5.37258 5.37258 0 12 0H349C355.627 0 361 5.37258 361 12V140C361 146.627 355.627 152 349 152H12C5.37257 152 0 146.627 0 140V12Z" fill="white"/>
<g id="Frame 21">
<g id="3D Avatars / 1">
<path d="M16 42C16 30.9543 24.9543 22 36 22C47.0457 22 56 30.9543 56 42C56 53.0457 47.0457 62 36 62C24.9543 62 16 53.0457 16 42Z" fill="#E5F5EA"/>
<g id="account_balance_wallet">
<mask id="mask0_225_4844" style="mask-type:alpha" maskUnits="userSpaceOnUse" x="24" y="30" width="24" height="24">
<rect id="Bounding box" x="24" y="30" width="24" height="24" fill="#D9D9D9"/>
</mask>
<g mask="url(#mask0_225_4844)">
<path id="account_balance_wallet_2" d="M29.3077 50.5C28.8091 50.5 28.3831 50.3234 28.0298 49.9703C27.6766 49.6169 27.5 49.1909 27.5 48.6923V35.3077C27.5 34.8091 27.6766 34.3831 28.0298 34.0298C28.3831 33.6766 28.8091 33.5 29.3077 33.5H42.6923C43.1909 33.5 43.6169 33.6766 43.9703 34.0298C44.3234 34.3831 44.5 34.8091 44.5 35.3077V38.029H43V35.3077C43 35.2179 42.9712 35.1442 42.9135 35.0865C42.8558 35.0288 42.7821 35 42.6923 35H29.3077C29.2179 35 29.1442 35.0288 29.0865 35.0865C29.0288 35.1442 29 35.2179 29 35.3077V48.6923C29 48.7821 29.0288 48.8558 29.0865 48.9135C29.1442 48.9712 29.2179 49 29.3077 49H42.6923C42.7821 49 42.8558 48.9712 42.9135 48.9135C42.9712 48.8558 43 48.7821 43 48.6923V45.971H44.5V48.6923C44.5 49.1909 44.3234 49.6169 43.9703 49.9703C43.6169 50.3234 43.1909 50.5 42.6923 50.5H29.3077ZM37.3077 46.5C36.8091 46.5 36.3831 46.3234 36.0297 45.9703C35.6766 45.6169 35.5 45.1909 35.5 44.6923V39.3078C35.5 38.8091 35.6766 38.3831 36.0297 38.0298C36.3831 37.6766 36.8091 37.5 37.3077 37.5H43.6923C44.1909 37.5 44.6169 37.6766 44.9703 38.0298C45.3234 38.3831 45.5 38.8091 45.5 39.3078V44.6923C45.5 45.1909 45.3234 45.6169 44.9703 45.9703C44.6169 46.3234 44.1909 46.5 43.6923 46.5H37.3077ZM43.6923 45C43.7821 45 43.8558 44.9712 43.9135 44.9135C43.9712 44.8558 44 44.7821 44 44.6923V39.3078C44 39.2179 43.9712 39.1442 43.9135 39.0865C43.8558 39.0288 43.7821 39 43.6923 39H37.3077C37.2179 39 37.1442 39.0288 37.0865 39.0865C37.0288 39.1442 37 39.2179 37 39.3078V44.6923C37 44.7821 37.0288 44.8558 37.0865 44.9135C37.1442 44.9712 37.2179 45 37.3077 45H43.6923ZM40 43.5C40.4167 43.5 40.7708 43.3542 41.0625 43.0625C41.3542 42.7708 41.5 42.4167 41.5 42C41.5 41.5833 41.3542 41.2292 41.0625 40.9375C40.7708 40.6458 40.4167 40.5 40 40.5C39.5833 40.5 39.2292 40.6458 38.9375 40.9375C38.6458 41.2292 38.5 41.5833 38.5 42C38.5 42.4167 38.6458 42.7708 38.9375 43.0625C39.2292 43.3542 39.5833 43.5 40 43.5Z" fill="#002203"/>
</g>
</g>
</g>
<g id="Frame 116" opacity="0.8">
<g id="Frame 16">
<path id="Online Banking" d="M74.1023 29.9091C74.1023 31.0062 73.8968 31.9458 73.4858 32.728C73.0781 33.5069 72.5213 34.1035 71.8153 34.5178C71.1127 34.9321 70.3156 35.1392 69.424 35.1392C68.5324 35.1392 67.7337 34.9321 67.0277 34.5178C66.325 34.1001 65.7682 33.5019 65.3572 32.723C64.9496 31.9408 64.7457 31.0028 64.7457 29.9091C64.7457 28.812 64.9496 27.8741 65.3572 27.0952C65.7682 26.313 66.325 25.7147 67.0277 25.3004C67.7337 24.8861 68.5324 24.679 69.424 24.679C70.3156 24.679 71.1127 24.8861 71.8153 25.3004C72.5213 25.7147 73.0781 26.313 73.4858 27.0952C73.8968 27.8741 74.1023 28.812 74.1023 29.9091ZM72.2479 29.9091C72.2479 29.1368 72.1269 28.4856 71.8849 27.9553C71.6463 27.4216 71.3149 27.0189 70.8906 26.7472C70.4664 26.4721 69.9775 26.3345 69.424 26.3345C68.8705 26.3345 68.3816 26.4721 67.9574 26.7472C67.5331 27.0189 67.2 27.4216 66.9581 27.9553C66.7195 28.4856 66.6001 29.1368 66.6001 29.9091C66.6001 30.6813 66.7195 31.3343 66.9581 31.8679C67.2 32.3982 67.5331 32.8009 67.9574 33.076C68.3816 33.3478 68.8705 33.4837 69.424 33.4837C69.9775 33.4837 70.4664 33.3478 70.8906 33.076C71.3149 32.8009 71.6463 32.3982 71.8849 31.8679C72.1269 31.3343 72.2479 30.6813 72.2479 29.9091ZM77.6662 30.5256V35H75.8665V27.3636H77.5867V28.6612H77.6762C77.8518 28.2337 78.1319 27.8939 78.5164 27.642C78.9042 27.3902 79.3831 27.2642 79.9532 27.2642C80.4801 27.2642 80.9392 27.3769 81.3303 27.6023C81.7247 27.8277 82.0296 28.1541 82.2451 28.5817C82.4638 29.0092 82.5715 29.5279 82.5682 30.1378V35H80.7685V30.4162C80.7685 29.9058 80.6359 29.5064 80.3708 29.218C80.1089 28.9297 79.746 28.7855 79.282 28.7855C78.9671 28.7855 78.6871 28.8551 78.4418 28.9943C78.1998 29.1302 78.0093 29.3274 77.8701 29.5859C77.7342 29.8445 77.6662 30.1577 77.6662 30.5256ZM86.2975 24.8182V35H84.4978V24.8182H86.2975ZM88.2482 35V27.3636H90.0479V35H88.2482ZM89.153 26.2798C88.8679 26.2798 88.6227 26.1854 88.4172 25.9964C88.2117 25.8042 88.1089 25.5739 88.1089 25.3054C88.1089 25.0336 88.2117 24.8033 88.4172 24.6143C88.6227 24.4221 88.8679 24.326 89.153 24.326C89.4413 24.326 89.6866 24.4221 89.8888 24.6143C90.0943 24.8033 90.197 25.0336 90.197 25.3054C90.197 25.5739 90.0943 25.8042 89.8888 25.9964C89.6866 26.1854 89.4413 26.2798 89.153 26.2798ZM93.7983 30.5256V35H91.9985V27.3636H93.7187V28.6612H93.8082C93.9839 28.2337 94.2639 27.8939 94.6484 27.642C95.0362 27.3902 95.5151 27.2642 96.0852 27.2642C96.6122 27.2642 97.0712 27.3769 97.4623 27.6023C97.8567 27.8277 98.1617 28.1541 98.3771 28.5817C98.5958 29.0092 98.7036 29.5279 98.7002 30.1378V35H96.9005V30.4162C96.9005 29.9058 96.768 29.5064 96.5028 29.218C96.241 28.9297 95.878 28.7855 95.414 28.7855C95.0992 28.7855 94.8191 28.8551 94.5738 28.9943C94.3319 29.1302 94.1413 29.3274 94.0021 29.5859C93.8662 29.8445 93.7983 30.1577 93.7983 30.5256ZM104.01 35.1491C103.245 35.1491 102.584 34.9901 102.027 34.6719C101.473 34.3504 101.047 33.8963 100.749 33.3097C100.451 32.7197 100.302 32.0253 100.302 31.2266C100.302 30.4411 100.451 29.7517 100.749 29.1584C101.051 28.5618 101.472 28.0978 102.012 27.7663C102.552 27.4316 103.187 27.2642 103.916 27.2642C104.387 27.2642 104.831 27.3404 105.248 27.4929C105.669 27.642 106.041 27.8741 106.362 28.1889C106.687 28.5038 106.942 28.9048 107.128 29.392C107.313 29.8759 107.406 30.4527 107.406 31.1222V31.674H101.147V30.4609H105.681C105.678 30.1162 105.603 29.8097 105.457 29.5412C105.311 29.2694 105.108 29.0556 104.846 28.8999C104.587 28.7441 104.286 28.6662 103.941 28.6662C103.573 28.6662 103.25 28.7557 102.971 28.9347C102.693 29.1103 102.476 29.3423 102.32 29.6307C102.168 29.9157 102.09 30.2289 102.086 30.5703V31.6293C102.086 32.0734 102.168 32.4545 102.33 32.7727C102.492 33.0876 102.72 33.3295 103.011 33.4986C103.303 33.6643 103.644 33.7472 104.035 33.7472C104.297 33.7472 104.534 33.7107 104.746 33.6378C104.958 33.5616 105.142 33.4505 105.298 33.3047C105.454 33.1589 105.572 32.9782 105.651 32.7628L107.331 32.9517C107.225 33.3958 107.023 33.7836 106.725 34.1151C106.43 34.4432 106.052 34.6984 105.591 34.8807C105.131 35.0597 104.604 35.1491 104.01 35.1491ZM112.681 35V24.8182H116.579C117.314 24.8182 117.926 24.9342 118.413 25.1662C118.904 25.3949 119.27 25.7081 119.512 26.1058C119.757 26.5036 119.88 26.9543 119.88 27.4581C119.88 27.8724 119.8 28.227 119.641 28.522C119.482 28.8137 119.268 29.0507 119 29.233C118.731 29.4152 118.431 29.5462 118.1 29.6257V29.7251C118.461 29.745 118.807 29.8561 119.139 30.0582C119.474 30.2571 119.747 30.5388 119.959 30.9034C120.171 31.268 120.277 31.7088 120.277 32.2259C120.277 32.7528 120.15 33.2268 119.895 33.6477C119.639 34.0653 119.255 34.3951 118.741 34.6371C118.227 34.879 117.581 35 116.802 35H112.681ZM114.525 33.4588H116.509C117.178 33.4588 117.661 33.3312 117.956 33.076C118.254 32.8175 118.403 32.486 118.403 32.0817C118.403 31.7801 118.329 31.5083 118.179 31.2663C118.03 31.0211 117.818 30.8288 117.543 30.6896C117.268 30.5471 116.94 30.4759 116.559 30.4759H114.525V33.4588ZM114.525 29.1484H116.35C116.668 29.1484 116.955 29.0904 117.21 28.9744C117.465 28.8551 117.666 28.6877 117.812 28.4723C117.961 28.2536 118.035 27.995 118.035 27.6967C118.035 27.3023 117.896 26.9775 117.618 26.7223C117.343 26.4671 116.933 26.3395 116.39 26.3395H114.525V29.1484ZM124.1 35.1541C123.616 35.1541 123.18 35.0679 122.792 34.8956C122.408 34.7199 122.103 34.4614 121.878 34.12C121.656 33.7786 121.544 33.3577 121.544 32.8572C121.544 32.4264 121.624 32.0701 121.783 31.7884C121.942 31.5066 122.159 31.2812 122.434 31.1122C122.71 30.9432 123.019 30.8156 123.364 30.7294C123.712 30.6399 124.072 30.5753 124.443 30.5355C124.89 30.4891 125.253 30.4477 125.532 30.4112C125.81 30.3714 126.012 30.3118 126.138 30.2322C126.268 30.1494 126.332 30.0218 126.332 29.8494V29.8196C126.332 29.4451 126.221 29.1551 125.999 28.9496C125.777 28.7441 125.457 28.6413 125.04 28.6413C124.599 28.6413 124.249 28.7375 123.991 28.9297C123.735 29.1219 123.563 29.349 123.473 29.6108L121.793 29.3722C121.926 28.9081 122.144 28.5204 122.449 28.2088C122.754 27.8939 123.127 27.6586 123.568 27.5028C124.009 27.3438 124.496 27.2642 125.03 27.2642C125.397 27.2642 125.764 27.3073 126.128 27.3935C126.493 27.4796 126.826 27.6222 127.128 27.821C127.429 28.0166 127.671 28.2834 127.853 28.6214C128.039 28.9595 128.132 29.3821 128.132 29.8892V35H126.402V33.951H126.342C126.233 34.1631 126.079 34.362 125.88 34.5476C125.684 34.7299 125.437 34.8774 125.139 34.9901C124.844 35.0994 124.498 35.1541 124.1 35.1541ZM124.567 33.8317C124.928 33.8317 125.242 33.7604 125.507 33.6179C125.772 33.4721 125.976 33.2798 126.118 33.0412C126.264 32.8026 126.337 32.5424 126.337 32.2607V31.3608C126.281 31.4072 126.185 31.4503 126.049 31.4901C125.916 31.5298 125.767 31.5646 125.601 31.5945C125.436 31.6243 125.272 31.6508 125.109 31.674C124.947 31.6972 124.806 31.7171 124.687 31.7337C124.418 31.7701 124.178 31.8298 123.966 31.9126C123.754 31.9955 123.586 32.1115 123.464 32.2607C123.341 32.4065 123.28 32.5954 123.28 32.8274C123.28 33.1589 123.401 33.4091 123.643 33.5781C123.884 33.7472 124.193 33.8317 124.567 33.8317ZM131.841 30.5256V35H130.042V27.3636H131.762V28.6612H131.851C132.027 28.2337 132.307 27.8939 132.691 27.642C133.079 27.3902 133.558 27.2642 134.128 27.2642C134.655 27.2642 135.114 27.3769 135.505 27.6023C135.9 27.8277 136.205 28.1541 136.42 28.5817C136.639 29.0092 136.747 29.5279 136.743 30.1378V35H134.944V30.4162C134.944 29.9058 134.811 29.5064 134.546 29.218C134.284 28.9297 133.921 28.7855 133.457 28.7855C133.142 28.7855 132.862 28.8551 132.617 28.9943C132.375 29.1302 132.184 29.3274 132.045 29.5859C131.909 29.8445 131.841 30.1577 131.841 30.5256ZM140.313 32.6037L140.308 30.4311H140.597L143.341 27.3636H145.444L142.068 31.1222H141.695L140.313 32.6037ZM138.673 35V24.8182H140.472V35H138.673ZM143.465 35L140.98 31.5249L142.193 30.2571L145.618 35H143.465ZM146.743 35V27.3636H148.543V35H146.743ZM147.648 26.2798C147.363 26.2798 147.118 26.1854 146.912 25.9964C146.707 25.8042 146.604 25.5739 146.604 25.3054C146.604 25.0336 146.707 24.8033 146.912 24.6143C147.118 24.4221 147.363 24.326 147.648 24.326C147.937 24.326 148.182 24.4221 148.384 24.6143C148.59 24.8033 148.692 25.0336 148.692 25.3054C148.692 25.5739 148.59 25.8042 148.384 25.9964C148.182 26.1854 147.937 26.2798 147.648 26.2798ZM152.294 30.5256V35H150.494V27.3636H152.214V28.6612H152.304C152.479 28.2337 152.759 27.8939 153.144 27.642C153.531 27.3902 154.01 27.2642 154.581 27.2642C155.107 27.2642 155.567 27.3769 155.958 27.6023C156.352 27.8277 156.657 28.1541 156.872 28.5817C157.091 29.0092 157.199 29.5279 157.196 30.1378V35H155.396V30.4162C155.396 29.9058 155.263 29.5064 154.998 29.218C154.736 28.9297 154.373 28.7855 153.909 28.7855C153.594 28.7855 153.314 28.8551 153.069 28.9943C152.827 29.1302 152.637 29.3274 152.497 29.5859C152.362 29.8445 152.294 30.1577 152.294 30.5256ZM162.446 38.0227C161.8 38.0227 161.245 37.9349 160.781 37.7592C160.317 37.5869 159.944 37.3549 159.662 37.0632C159.38 36.7715 159.185 36.4484 159.075 36.0938L160.696 35.701C160.769 35.8501 160.875 35.9976 161.014 36.1435C161.154 36.2926 161.341 36.4152 161.576 36.5114C161.815 36.6108 162.115 36.6605 162.476 36.6605C162.986 36.6605 163.409 36.5362 163.744 36.2876C164.078 36.0424 164.246 35.638 164.246 35.0746V33.6278H164.156C164.064 33.8134 163.928 34.004 163.749 34.1996C163.573 34.3951 163.339 34.5592 163.048 34.6918C162.759 34.8243 162.396 34.8906 161.959 34.8906C161.372 34.8906 160.84 34.7531 160.363 34.478C159.889 34.1996 159.511 33.7853 159.23 33.2351C158.951 32.6816 158.812 31.9889 158.812 31.157C158.812 30.3184 158.951 29.6108 159.23 29.0341C159.511 28.4541 159.891 28.0149 160.368 27.7166C160.845 27.415 161.377 27.2642 161.964 27.2642C162.411 27.2642 162.779 27.3404 163.068 27.4929C163.359 27.642 163.591 27.8227 163.764 28.0348C163.936 28.2436 164.067 28.4408 164.156 28.6264H164.256V27.3636H166.031V35.1243C166.031 35.7772 165.875 36.3175 165.563 36.745C165.252 37.1726 164.826 37.4924 164.286 37.7045C163.745 37.9167 163.132 38.0227 162.446 38.0227ZM162.461 33.4787C162.842 33.4787 163.167 33.3859 163.435 33.2003C163.704 33.0147 163.908 32.7479 164.047 32.3999C164.186 32.0518 164.256 31.6342 164.256 31.147C164.256 30.6664 164.186 30.2455 164.047 29.8842C163.911 29.523 163.709 29.2429 163.44 29.044C163.175 28.8419 162.849 28.7408 162.461 28.7408C162.06 28.7408 161.725 28.8452 161.457 29.054C161.188 29.2628 160.986 29.5495 160.85 29.9141C160.714 30.2753 160.646 30.6863 160.646 31.147C160.646 31.6143 160.714 32.0237 160.85 32.375C160.989 32.723 161.193 32.9948 161.462 33.1903C161.734 33.3826 162.067 33.4787 162.461 33.4787Z" fill="black"/>
<path id="Pay via other banks or e-wallet" d="M64.9588 60V51.2727H68.0696C68.7486 51.2727 69.3111 51.3963 69.7571 51.6435C70.2031 51.8906 70.5369 52.2287 70.7585 52.6577C70.9801 53.0838 71.0909 53.5639 71.0909 54.098C71.0909 54.6349 70.9787 55.1179 70.7543 55.5469C70.5327 55.973 70.1974 56.3111 69.7486 56.5611C69.3026 56.8082 68.7415 56.9318 68.0653 56.9318H65.9261V55.8153H67.946C68.375 55.8153 68.723 55.7415 68.9901 55.5938C69.2571 55.4432 69.4531 55.2386 69.5781 54.9801C69.7031 54.7216 69.7656 54.4276 69.7656 54.098C69.7656 53.7685 69.7031 53.4759 69.5781 53.2202C69.4531 52.9645 69.2557 52.7642 68.9858 52.6193C68.7188 52.4744 68.3665 52.402 67.929 52.402H66.2756V60H64.9588ZM74.8786 60.1449C74.4638 60.1449 74.0888 60.0682 73.7536 59.9148C73.4183 59.7585 73.1527 59.5327 72.9567 59.2372C72.7635 58.9418 72.6669 58.5795 72.6669 58.1506C72.6669 57.7812 72.7379 57.4773 72.88 57.2386C73.022 57 73.2138 56.8111 73.4553 56.6719C73.6967 56.5327 73.9666 56.4276 74.2649 56.3565C74.5632 56.2855 74.8672 56.2315 75.1768 56.1946C75.5689 56.1491 75.8871 56.1122 76.1314 56.0838C76.3757 56.0526 76.5533 56.0028 76.6641 55.9347C76.7749 55.8665 76.8303 55.7557 76.8303 55.6023V55.5724C76.8303 55.2003 76.7251 54.9119 76.5149 54.7074C76.3075 54.5028 75.9979 54.4006 75.5859 54.4006C75.157 54.4006 74.8189 54.4957 74.5717 54.6861C74.3274 54.8736 74.1584 55.0824 74.0646 55.3125L72.8672 55.0398C73.0092 54.642 73.2166 54.321 73.4893 54.0767C73.7649 53.8295 74.0817 53.6506 74.4396 53.5398C74.7976 53.4261 75.174 53.3693 75.5689 53.3693C75.8303 53.3693 76.1072 53.4006 76.3999 53.4631C76.6953 53.5227 76.9709 53.6335 77.2266 53.7955C77.4851 53.9574 77.6967 54.1889 77.8615 54.4901C78.0263 54.7884 78.1087 55.1761 78.1087 55.6534V60H76.8643V59.1051H76.8132C76.7308 59.2699 76.6072 59.4318 76.4425 59.5909C76.2777 59.75 76.0661 59.8821 75.8075 59.9872C75.549 60.0923 75.2393 60.1449 74.8786 60.1449ZM75.1555 59.1222C75.5078 59.1222 75.8089 59.0526 76.0589 58.9134C76.3118 58.7741 76.5036 58.5923 76.6342 58.3679C76.7678 58.1406 76.8345 57.8977 76.8345 57.6392V56.7955C76.7891 56.8409 76.701 56.8835 76.5703 56.9233C76.4425 56.9602 76.2962 56.9929 76.1314 57.0213C75.9666 57.0469 75.8061 57.071 75.6499 57.0938C75.4936 57.1136 75.3629 57.1307 75.2578 57.1449C75.0107 57.1761 74.7848 57.2287 74.5803 57.3026C74.3786 57.3764 74.2166 57.483 74.0945 57.6222C73.9751 57.7585 73.9155 57.9403 73.9155 58.1676C73.9155 58.483 74.032 58.7216 74.2649 58.8835C74.4979 59.0426 74.7947 59.1222 75.1555 59.1222ZM80.8768 62.4545C80.6864 62.4545 80.5131 62.4389 80.3569 62.4077C80.2006 62.3793 80.0842 62.348 80.0075 62.3139L80.3143 61.2699C80.5472 61.3324 80.7546 61.3594 80.9364 61.3509C81.1183 61.3423 81.2788 61.2741 81.418 61.1463C81.56 61.0185 81.685 60.8097 81.793 60.5199L81.9506 60.0852L79.5558 53.4545H80.9194L82.5771 58.5341H82.6452L84.3029 53.4545H85.6708L82.9734 60.8736C82.8484 61.2145 82.6893 61.5028 82.4961 61.7386C82.3029 61.9773 82.0728 62.1563 81.8058 62.2756C81.5387 62.3949 81.229 62.4545 80.8768 62.4545ZM96.6435 53.4545L94.2699 60H92.9062L90.5284 53.4545H91.8963L93.554 58.4915H93.6222L95.2756 53.4545H96.6435ZM98.3409 60V53.4545H99.6151V60H98.3409ZM98.9844 52.4446C98.7628 52.4446 98.5724 52.3707 98.4134 52.223C98.2571 52.0724 98.179 51.8935 98.179 51.6861C98.179 51.4759 98.2571 51.2969 98.4134 51.1491C98.5724 50.9986 98.7628 50.9233 98.9844 50.9233C99.206 50.9233 99.3949 50.9986 99.5511 51.1491C99.7102 51.2969 99.7898 51.4759 99.7898 51.6861C99.7898 51.8935 99.7102 52.0724 99.5511 52.223C99.3949 52.3707 99.206 52.4446 98.9844 52.4446ZM103.734 60.1449C103.319 60.1449 102.944 60.0682 102.609 59.9148C102.274 59.7585 102.008 59.5327 101.812 59.2372C101.619 58.9418 101.522 58.5795 101.522 58.1506C101.522 57.7812 101.593 57.4773 101.735 57.2386C101.877 57 102.069 56.8111 102.311 56.6719C102.552 56.5327 102.822 56.4276 103.12 56.3565C103.419 56.2855 103.723 56.2315 104.032 56.1946C104.424 56.1491 104.743 56.1122 104.987 56.0838C105.231 56.0526 105.409 56.0028 105.52 55.9347C105.63 55.8665 105.686 55.7557 105.686 55.6023V55.5724C105.686 55.2003 105.581 54.9119 105.37 54.7074C105.163 54.5028 104.853 54.4006 104.441 54.4006C104.012 54.4006 103.674 54.4957 103.427 54.6861C103.183 54.8736 103.014 55.0824 102.92 55.3125L101.723 55.0398C101.865 54.642 102.072 54.321 102.345 54.0767C102.62 53.8295 102.937 53.6506 103.295 53.5398C103.653 53.4261 104.029 53.3693 104.424 53.3693C104.686 53.3693 104.963 53.4006 105.255 53.4631C105.551 53.5227 105.826 53.6335 106.082 53.7955C106.341 53.9574 106.552 54.1889 106.717 54.4901C106.882 54.7884 106.964 55.1761 106.964 55.6534V60H105.72V59.1051H105.669C105.586 59.2699 105.463 59.4318 105.298 59.5909C105.133 59.75 104.922 59.8821 104.663 59.9872C104.404 60.0923 104.095 60.1449 103.734 60.1449ZM104.011 59.1222C104.363 59.1222 104.664 59.0526 104.914 58.9134C105.167 58.7741 105.359 58.5923 105.49 58.3679C105.623 58.1406 105.69 57.8977 105.69 57.6392V56.7955C105.645 56.8409 105.556 56.8835 105.426 56.9233C105.298 56.9602 105.152 56.9929 104.987 57.0213C104.822 57.0469 104.662 57.071 104.505 57.0938C104.349 57.1136 104.218 57.1307 104.113 57.1449C103.866 57.1761 103.64 57.2287 103.436 57.3026C103.234 57.3764 103.072 57.483 102.95 57.6222C102.831 57.7585 102.771 57.9403 102.771 58.1676C102.771 58.483 102.887 58.7216 103.12 58.8835C103.353 59.0426 103.65 59.1222 104.011 59.1222ZM115.594 60.1321C114.98 60.1321 114.445 59.9915 113.988 59.7102C113.53 59.429 113.175 59.0355 112.922 58.5298C112.669 58.0241 112.543 57.4332 112.543 56.7571C112.543 56.0781 112.669 55.4844 112.922 54.9759C113.175 54.4673 113.53 54.0724 113.988 53.7912C114.445 53.5099 114.98 53.3693 115.594 53.3693C116.208 53.3693 116.743 53.5099 117.201 53.7912C117.658 54.0724 118.013 54.4673 118.266 54.9759C118.519 55.4844 118.645 56.0781 118.645 56.7571C118.645 57.4332 118.519 58.0241 118.266 58.5298C118.013 59.0355 117.658 59.429 117.201 59.7102C116.743 59.9915 116.208 60.1321 115.594 60.1321ZM115.598 59.0625C115.996 59.0625 116.326 58.9574 116.587 58.7472C116.848 58.5369 117.042 58.2571 117.167 57.9077C117.294 57.5582 117.358 57.1733 117.358 56.7528C117.358 56.3352 117.294 55.9517 117.167 55.6023C117.042 55.25 116.848 54.9673 116.587 54.7543C116.326 54.5412 115.996 54.4347 115.598 54.4347C115.198 54.4347 114.865 54.5412 114.601 54.7543C114.34 54.9673 114.145 55.25 114.017 55.6023C113.892 55.9517 113.83 56.3352 113.83 56.7528C113.83 57.1733 113.892 57.5582 114.017 57.9077C114.145 58.2571 114.34 58.5369 114.601 58.7472C114.865 58.9574 115.198 59.0625 115.598 59.0625ZM123.623 53.4545V54.4773H120.048V53.4545H123.623ZM121.006 51.8864H122.281V58.0781C122.281 58.3253 122.317 58.5114 122.391 58.6364C122.465 58.7585 122.56 58.8423 122.677 58.8878C122.796 58.9304 122.925 58.9517 123.065 58.9517C123.167 58.9517 123.256 58.9446 123.333 58.9304C123.41 58.9162 123.469 58.9048 123.512 58.8963L123.742 59.9489C123.668 59.9773 123.563 60.0057 123.427 60.0341C123.29 60.0653 123.12 60.0824 122.915 60.0852C122.58 60.0909 122.268 60.0312 121.978 59.9062C121.688 59.7812 121.454 59.5881 121.275 59.3267C121.096 59.0653 121.006 58.7372 121.006 58.3423V51.8864ZM126.947 56.1136V60H125.673V51.2727H126.93V54.5199H127.011C127.164 54.1676 127.399 53.8878 127.714 53.6804C128.029 53.473 128.441 53.3693 128.95 53.3693C129.399 53.3693 129.791 53.4616 130.126 53.6463C130.464 53.831 130.725 54.1065 130.91 54.473C131.098 54.8366 131.191 55.2912 131.191 55.8366V60H129.917V55.9901C129.917 55.5099 129.794 55.1378 129.547 54.8736C129.299 54.6065 128.956 54.473 128.515 54.473C128.214 54.473 127.944 54.5369 127.706 54.6648C127.47 54.7926 127.284 54.9801 127.147 55.2273C127.014 55.4716 126.947 55.767 126.947 56.1136ZM136.213 60.1321C135.568 60.1321 135.012 59.9943 134.547 59.7188C134.083 59.4403 133.725 59.0497 133.473 58.5469C133.223 58.0412 133.098 57.4489 133.098 56.7699C133.098 56.0994 133.223 55.5085 133.473 54.9972C133.725 54.4858 134.078 54.0866 134.529 53.7997C134.984 53.5128 135.515 53.3693 136.123 53.3693C136.493 53.3693 136.85 53.4304 137.197 53.5526C137.544 53.6747 137.855 53.8665 138.13 54.1278C138.406 54.3892 138.623 54.7287 138.782 55.1463C138.941 55.5611 139.021 56.0653 139.021 56.6591V57.1108H133.818V56.1562H137.772C137.772 55.821 137.704 55.5241 137.568 55.2656C137.431 55.0043 137.24 54.7983 136.993 54.6477C136.748 54.4972 136.461 54.4219 136.132 54.4219C135.774 54.4219 135.461 54.5099 135.194 54.6861C134.93 54.8594 134.725 55.0866 134.581 55.3679C134.439 55.6463 134.368 55.9489 134.368 56.2756V57.0213C134.368 57.4588 134.444 57.831 134.598 58.1378C134.754 58.4446 134.971 58.679 135.25 58.8409C135.528 59 135.853 59.0795 136.225 59.0795C136.467 59.0795 136.687 59.0455 136.886 58.9773C137.085 58.9062 137.257 58.8011 137.402 58.6619C137.547 58.5227 137.657 58.3509 137.734 58.1463L138.94 58.3636C138.843 58.7187 138.67 59.0298 138.42 59.2969C138.173 59.5611 137.862 59.767 137.487 59.9148C137.115 60.0597 136.69 60.1321 136.213 60.1321ZM140.935 60V53.4545H142.166V54.4943H142.234C142.354 54.142 142.564 53.8651 142.865 53.6634C143.169 53.4588 143.513 53.3565 143.896 53.3565C143.976 53.3565 144.07 53.3594 144.178 53.3651C144.288 53.3707 144.375 53.3778 144.438 53.3864V54.6051C144.386 54.5909 144.295 54.5753 144.165 54.5582C144.034 54.5384 143.903 54.5284 143.773 54.5284C143.472 54.5284 143.203 54.5923 142.967 54.7202C142.734 54.8452 142.55 55.0199 142.413 55.2443C142.277 55.4659 142.209 55.7187 142.209 56.0028V60H140.935ZM149.818 60V51.2727H151.092V54.5156H151.169C151.243 54.3793 151.349 54.2216 151.489 54.0426C151.628 53.8636 151.821 53.7074 152.068 53.5739C152.315 53.4375 152.642 53.3693 153.048 53.3693C153.577 53.3693 154.048 53.5028 154.463 53.7699C154.878 54.0369 155.203 54.4219 155.439 54.9247C155.678 55.4276 155.797 56.0327 155.797 56.7401C155.797 57.4474 155.679 58.054 155.443 58.5597C155.207 59.0625 154.884 59.4503 154.472 59.723C154.06 59.9929 153.589 60.1278 153.061 60.1278C152.663 60.1278 152.338 60.0611 152.085 59.9276C151.835 59.794 151.639 59.6378 151.497 59.4588C151.355 59.2798 151.246 59.1207 151.169 58.9815H151.062V60H149.818ZM151.067 56.7273C151.067 57.1875 151.134 57.5909 151.267 57.9375C151.401 58.2841 151.594 58.5554 151.847 58.7514C152.099 58.9446 152.409 59.0412 152.776 59.0412C153.156 59.0412 153.474 58.9403 153.73 58.7386C153.986 58.5341 154.179 58.2571 154.31 57.9077C154.443 57.5582 154.51 57.1648 154.51 56.7273C154.51 56.2955 154.445 55.9077 154.314 55.5639C154.186 55.2202 153.993 54.9489 153.734 54.75C153.479 54.5511 153.159 54.4517 152.776 54.4517C152.406 54.4517 152.094 54.5469 151.838 54.7372C151.585 54.9276 151.393 55.1932 151.263 55.5341C151.132 55.875 151.067 56.2727 151.067 56.7273ZM159.632 60.1449C159.218 60.1449 158.843 60.0682 158.507 59.9148C158.172 59.7585 157.907 59.5327 157.711 59.2372C157.517 58.9418 157.421 58.5795 157.421 58.1506C157.421 57.7812 157.492 57.4773 157.634 57.2386C157.776 57 157.968 56.8111 158.209 56.6719C158.451 56.5327 158.721 56.4276 159.019 56.3565C159.317 56.2855 159.621 56.2315 159.931 56.1946C160.323 56.1491 160.641 56.1122 160.885 56.0838C161.13 56.0526 161.307 56.0028 161.418 55.9347C161.529 55.8665 161.584 55.7557 161.584 55.6023V55.5724C161.584 55.2003 161.479 54.9119 161.269 54.7074C161.061 54.5028 160.752 54.4006 160.34 54.4006C159.911 54.4006 159.573 54.4957 159.326 54.6861C159.081 54.8736 158.912 55.0824 158.819 55.3125L157.621 55.0398C157.763 54.642 157.971 54.321 158.243 54.0767C158.519 53.8295 158.836 53.6506 159.194 53.5398C159.551 53.4261 159.928 53.3693 160.323 53.3693C160.584 53.3693 160.861 53.4006 161.154 53.4631C161.449 53.5227 161.725 53.6335 161.98 53.7955C162.239 53.9574 162.451 54.1889 162.615 54.4901C162.78 54.7884 162.863 55.1761 162.863 55.6534V60H161.618V59.1051H161.567C161.485 59.2699 161.361 59.4318 161.196 59.5909C161.032 59.75 160.82 59.8821 160.561 59.9872C160.303 60.0923 159.993 60.1449 159.632 60.1449ZM159.909 59.1222C160.262 59.1222 160.563 59.0526 160.813 58.9134C161.066 58.7741 161.257 58.5923 161.388 58.3679C161.522 58.1406 161.588 57.8977 161.588 57.6392V56.7955C161.543 56.8409 161.455 56.8835 161.324 56.9233C161.196 56.9602 161.05 56.9929 160.885 57.0213C160.721 57.0469 160.56 57.071 160.404 57.0938C160.248 57.1136 160.117 57.1307 160.012 57.1449C159.765 57.1761 159.539 57.2287 159.334 57.3026C159.132 57.3764 158.971 57.483 158.848 57.6222C158.729 57.7585 158.669 57.9403 158.669 58.1676C158.669 58.483 158.786 58.7216 159.019 58.8835C159.252 59.0426 159.549 59.1222 159.909 59.1222ZM166.334 56.1136V60H165.06V53.4545H166.283V54.5199H166.364C166.514 54.1733 166.75 53.8949 167.071 53.6847C167.395 53.4744 167.803 53.3693 168.294 53.3693C168.74 53.3693 169.131 53.4631 169.466 53.6506C169.801 53.8352 170.061 54.1108 170.246 54.4773C170.43 54.8437 170.523 55.2969 170.523 55.8366V60H169.249V55.9901C169.249 55.5156 169.125 55.1449 168.878 54.8778C168.631 54.608 168.291 54.473 167.859 54.473C167.564 54.473 167.301 54.5369 167.071 54.6648C166.844 54.7926 166.663 54.9801 166.53 55.2273C166.399 55.4716 166.334 55.767 166.334 56.1136ZM173.903 57.7798L173.895 56.2244H174.116L176.724 53.4545H178.25L175.276 56.608H175.075L173.903 57.7798ZM172.732 60V51.2727H174.006V60H172.732ZM176.865 60L174.521 56.8892L175.399 55.9986L178.429 60H176.865ZM184.816 55.0526L183.661 55.2571C183.613 55.1094 183.536 54.9687 183.431 54.8352C183.329 54.7017 183.19 54.5923 183.013 54.5071C182.837 54.4219 182.617 54.3793 182.353 54.3793C181.992 54.3793 181.691 54.4602 181.45 54.6222C181.208 54.7812 181.087 54.9872 181.087 55.2401C181.087 55.4588 181.168 55.6349 181.33 55.7685C181.492 55.902 181.754 56.0114 182.114 56.0966L183.154 56.3352C183.756 56.4744 184.205 56.6889 184.501 56.9787C184.796 57.2685 184.944 57.6449 184.944 58.108C184.944 58.5 184.83 58.8494 184.603 59.1562C184.379 59.4602 184.065 59.6989 183.661 59.8722C183.261 60.0455 182.796 60.1321 182.268 60.1321C181.535 60.1321 180.937 59.9759 180.474 59.6634C180.011 59.348 179.727 58.9006 179.621 58.321L180.853 58.1335C180.93 58.4545 181.087 58.6974 181.326 58.8622C181.565 59.0241 181.876 59.1051 182.259 59.1051C182.677 59.1051 183.011 59.0185 183.261 58.8452C183.511 58.669 183.636 58.4545 183.636 58.2017C183.636 57.9972 183.559 57.8253 183.406 57.6861C183.255 57.5469 183.023 57.4418 182.711 57.3707L181.603 57.1278C180.992 56.9886 180.54 56.767 180.248 56.4631C179.958 56.1591 179.813 55.7741 179.813 55.3082C179.813 54.9219 179.921 54.5838 180.137 54.294C180.353 54.0043 180.651 53.7784 181.032 53.6165C181.413 53.4517 181.849 53.3693 182.34 53.3693C183.048 53.3693 183.604 53.5227 184.011 53.8295C184.417 54.1335 184.685 54.5412 184.816 55.0526ZM193.278 60.1321C192.664 60.1321 192.129 59.9915 191.671 59.7102C191.214 59.429 190.859 59.0355 190.606 58.5298C190.353 58.0241 190.227 57.4332 190.227 56.7571C190.227 56.0781 190.353 55.4844 190.606 54.9759C190.859 54.4673 191.214 54.0724 191.671 53.7912C192.129 53.5099 192.664 53.3693 193.278 53.3693C193.891 53.3693 194.427 53.5099 194.884 53.7912C195.342 54.0724 195.697 54.4673 195.95 54.9759C196.202 55.4844 196.329 56.0781 196.329 56.7571C196.329 57.4332 196.202 58.0241 195.95 58.5298C195.697 59.0355 195.342 59.429 194.884 59.7102C194.427 59.9915 193.891 60.1321 193.278 60.1321ZM193.282 59.0625C193.68 59.0625 194.009 58.9574 194.271 58.7472C194.532 58.5369 194.725 58.2571 194.85 57.9077C194.978 57.5582 195.042 57.1733 195.042 56.7528C195.042 56.3352 194.978 55.9517 194.85 55.6023C194.725 55.25 194.532 54.9673 194.271 54.7543C194.009 54.5412 193.68 54.4347 193.282 54.4347C192.881 54.4347 192.549 54.5412 192.285 54.7543C192.023 54.9673 191.829 55.25 191.701 55.6023C191.576 55.9517 191.513 56.3352 191.513 56.7528C191.513 57.1733 191.576 57.5582 191.701 57.9077C191.829 58.2571 192.023 58.5369 192.285 58.7472C192.549 58.9574 192.881 59.0625 193.282 59.0625ZM198.251 60V53.4545H199.483V54.4943H199.551C199.67 54.142 199.88 53.8651 200.181 53.6634C200.485 53.4588 200.829 53.3565 201.213 53.3565C201.292 53.3565 201.386 53.3594 201.494 53.3651C201.605 53.3707 201.691 53.3778 201.754 53.3864V54.6051C201.703 54.5909 201.612 54.5753 201.481 54.5582C201.35 54.5384 201.22 54.5284 201.089 54.5284C200.788 54.5284 200.52 54.5923 200.284 54.7202C200.051 54.8452 199.866 55.0199 199.73 55.2443C199.593 55.4659 199.525 55.7187 199.525 56.0028V60H198.251ZM209.853 60.1321C209.208 60.1321 208.653 59.9943 208.187 59.7188C207.724 59.4403 207.366 59.0497 207.113 58.5469C206.863 58.0412 206.738 57.4489 206.738 56.7699C206.738 56.0994 206.863 55.5085 207.113 54.9972C207.366 54.4858 207.718 54.0866 208.17 53.7997C208.625 53.5128 209.156 53.3693 209.764 53.3693C210.133 53.3693 210.491 53.4304 210.838 53.5526C211.184 53.6747 211.495 53.8665 211.771 54.1278C212.047 54.3892 212.264 54.7287 212.423 55.1463C212.582 55.5611 212.662 56.0653 212.662 56.6591V57.1108H207.458V56.1562H211.413C211.413 55.821 211.345 55.5241 211.208 55.2656C211.072 55.0043 210.88 54.7983 210.633 54.6477C210.389 54.4972 210.102 54.4219 209.772 54.4219C209.414 54.4219 209.102 54.5099 208.835 54.6861C208.571 54.8594 208.366 55.0866 208.221 55.3679C208.079 55.6463 208.008 55.9489 208.008 56.2756V57.0213C208.008 57.4588 208.085 57.831 208.238 58.1378C208.395 58.4446 208.612 58.679 208.89 58.8409C209.169 59 209.494 59.0795 209.866 59.0795C210.108 59.0795 210.328 59.0455 210.527 58.9773C210.725 58.9062 210.897 58.8011 211.042 58.6619C211.187 58.5227 211.298 58.3509 211.375 58.1463L212.581 58.3636C212.484 58.7187 212.311 59.0298 212.061 59.2969C211.814 59.5611 211.502 59.767 211.127 59.9148C210.755 60.0597 210.331 60.1321 209.853 60.1321ZM218.432 55.7599V56.8636H214.562V55.7599H218.432ZM222.049 60L220.123 53.4545H221.44L222.722 58.2614H222.786L224.073 53.4545H225.39L226.668 58.2401H226.732L228.006 53.4545H229.323L227.401 60H226.102L224.772 55.2741H224.674L223.344 60H222.049ZM232.937 60.1449C232.522 60.1449 232.147 60.0682 231.812 59.9148C231.477 59.7585 231.211 59.5327 231.015 59.2372C230.822 58.9418 230.725 58.5795 230.725 58.1506C230.725 57.7812 230.797 57.4773 230.939 57.2386C231.081 57 231.272 56.8111 231.514 56.6719C231.755 56.5327 232.025 56.4276 232.324 56.3565C232.622 56.2855 232.926 56.2315 233.235 56.1946C233.627 56.1491 233.946 56.1122 234.19 56.0838C234.434 56.0526 234.612 56.0028 234.723 55.9347C234.833 55.8665 234.889 55.7557 234.889 55.6023V55.5724C234.889 55.2003 234.784 54.9119 234.574 54.7074C234.366 54.5028 234.056 54.4006 233.645 54.4006C233.216 54.4006 232.877 54.4957 232.63 54.6861C232.386 54.8736 232.217 55.0824 232.123 55.3125L230.926 55.0398C231.068 54.642 231.275 54.321 231.548 54.0767C231.824 53.8295 232.14 53.6506 232.498 53.5398C232.856 53.4261 233.233 53.3693 233.627 53.3693C233.889 53.3693 234.166 53.4006 234.458 53.4631C234.754 53.5227 235.029 53.6335 235.285 53.7955C235.544 53.9574 235.755 54.1889 235.92 54.4901C236.085 54.7884 236.167 55.1761 236.167 55.6534V60H234.923V59.1051H234.872C234.789 59.2699 234.666 59.4318 234.501 59.5909C234.336 59.75 234.125 59.8821 233.866 59.9872C233.608 60.0923 233.298 60.1449 232.937 60.1449ZM233.214 59.1222C233.566 59.1222 233.868 59.0526 234.118 58.9134C234.37 58.7741 234.562 58.5923 234.693 58.3679C234.826 58.1406 234.893 57.8977 234.893 57.6392V56.7955C234.848 56.8409 234.76 56.8835 234.629 56.9233C234.501 56.9602 234.355 56.9929 234.19 57.0213C234.025 57.0469 233.865 57.071 233.708 57.0938C233.552 57.1136 233.422 57.1307 233.316 57.1449C233.069 57.1761 232.843 57.2287 232.639 57.3026C232.437 57.3764 232.275 57.483 232.153 57.6222C232.034 57.7585 231.974 57.9403 231.974 58.1676C231.974 58.483 232.091 58.7216 232.324 58.8835C232.556 59.0426 232.853 59.1222 233.214 59.1222ZM239.638 51.2727V60H238.364V51.2727H239.638ZM243.127 51.2727V60H241.853V51.2727H243.127ZM248.162 60.1321C247.517 60.1321 246.962 59.9943 246.496 59.7188C246.033 59.4403 245.675 59.0497 245.422 58.5469C245.172 58.0412 245.047 57.4489 245.047 56.7699C245.047 56.0994 245.172 55.5085 245.422 54.9972C245.675 54.4858 246.027 54.0866 246.479 53.7997C246.933 53.5128 247.464 53.3693 248.072 53.3693C248.442 53.3693 248.8 53.4304 249.146 53.5526C249.493 53.6747 249.804 53.8665 250.08 54.1278C250.355 54.3892 250.572 54.7287 250.732 55.1463C250.891 55.5611 250.97 56.0653 250.97 56.6591V57.1108H245.767V56.1562H249.722C249.722 55.821 249.653 55.5241 249.517 55.2656C249.381 55.0043 249.189 54.7983 248.942 54.6477C248.697 54.4972 248.411 54.4219 248.081 54.4219C247.723 54.4219 247.411 54.5099 247.143 54.6861C246.879 54.8594 246.675 55.0866 246.53 55.3679C246.388 55.6463 246.317 55.9489 246.317 56.2756V57.0213C246.317 57.4588 246.393 57.831 246.547 58.1378C246.703 58.4446 246.92 58.679 247.199 58.8409C247.477 59 247.803 59.0795 248.175 59.0795C248.416 59.0795 248.636 59.0455 248.835 58.9773C249.034 58.9062 249.206 58.8011 249.351 58.6619C249.496 58.5227 249.607 58.3509 249.683 58.1463L250.889 58.3636C250.793 58.7187 250.619 59.0298 250.369 59.2969C250.122 59.5611 249.811 59.767 249.436 59.9148C249.064 60.0597 248.639 60.1321 248.162 60.1321ZM255.939 53.4545V54.4773H252.364V53.4545H255.939ZM253.323 51.8864H254.597V58.0781C254.597 58.3253 254.634 58.5114 254.708 58.6364C254.782 58.7585 254.877 58.8423 254.993 58.8878C255.113 58.9304 255.242 58.9517 255.381 58.9517C255.483 58.9517 255.573 58.9446 255.65 58.9304C255.726 58.9162 255.786 58.9048 255.828 58.8963L256.059 59.9489C255.985 59.9773 255.88 60.0057 255.743 60.0341C255.607 60.0653 255.436 60.0824 255.232 60.0852C254.897 60.0909 254.584 60.0312 254.294 59.9062C254.005 59.7812 253.77 59.5881 253.591 59.3267C253.412 59.0653 253.323 58.7372 253.323 58.3423V51.8864Z" fill="#6A6C6A"/>
</g>
<g id="keyboard_arrow_down">
<mask id="mask1_225_4844" style="mask-type:alpha" maskUnits="userSpaceOnUse" x="321" y="20" width="24" height="24">
<rect id="Bounding box_2" x="321" y="20" width="24" height="24" fill="#D9D9D9"/>
</mask>
<g mask="url(#mask1_225_4844)">
<path id="keyboard_arrow_down_2" d="M336.354 31.6999L330.7 37.3537L329.646 36.2999L334.246 31.6999L329.646 27.0999L330.7 26.0462L336.354 31.6999Z" fill="#1F3701"/>
</g>
</g>
</g>
</g>
<g id="Frame 20">
<g id="3D Avatars / 1_2">
<path d="M16 110C16 98.9543 24.9543 90 36 90C47.0457 90 56 98.9543 56 110C56 121.046 47.0457 130 36 130C24.9543 130 16 121.046 16 110Z" fill="#E5F5EA"/>
<g id="location_on">
<mask id="mask2_225_4844" style="mask-type:alpha" maskUnits="userSpaceOnUse" x="24" y="98" width="24" height="24">
<rect id="Bounding box_3" x="24" y="98" width="24" height="24" fill="#D9D9D9"/>
</mask>
<g mask="url(#mask2_225_4844)">
<path id="location_on_2" d="M36.0018 109.865C36.4993 109.865 36.9246 109.688 37.2778 109.334C37.6311 108.979 37.8078 108.554 37.8078 108.056C37.8078 107.558 37.6306 107.133 37.2763 106.78C36.9219 106.427 36.4959 106.25 35.9983 106.25C35.5008 106.25 35.0754 106.427 34.7223 106.782C34.3689 107.136 34.1923 107.562 34.1923 108.06C34.1923 108.557 34.3694 108.982 34.7238 109.336C35.0781 109.689 35.5041 109.865 36.0018 109.865ZM36 117.514C37.9564 115.762 39.4534 114.082 40.4913 112.474C41.5291 110.866 42.048 109.457 42.048 108.248C42.048 106.425 41.4689 104.926 40.3105 103.752C39.1522 102.578 37.7154 101.99 36 101.99C34.2847 101.99 32.8479 102.578 31.6895 103.752C30.5312 104.926 29.952 106.425 29.952 108.248C29.952 109.457 30.4709 110.866 31.5088 112.474C32.5466 114.082 34.0437 115.762 36 117.514ZM36 119.51C33.4834 117.329 31.5962 115.299 30.3385 113.421C29.0809 111.543 28.452 109.818 28.452 108.248C28.452 105.94 29.1984 104.072 30.6913 102.643C32.1843 101.214 33.9539 100.5 36 100.5C38.0462 100.5 39.8158 101.214 41.3088 102.643C42.8016 104.072 43.548 105.94 43.548 108.248C43.548 109.818 42.9192 111.543 41.6615 113.421C40.4039 115.299 38.5167 117.329 36 119.51Z" fill="#002203"/>
</g>
</g>
</g>
<g id="Frame 116_2" opacity="0.8">
<g id="Frame 16_2">
<path id="Over-the-counter" d="M74.1023 97.9091C74.1023 99.0062 73.8968 99.9458 73.4858 100.728C73.0781 101.507 72.5213 102.103 71.8153 102.518C71.1127 102.932 70.3156 103.139 69.424 103.139C68.5324 103.139 67.7337 102.932 67.0277 102.518C66.325 102.1 65.7682 101.502 65.3572 100.723C64.9496 99.9408 64.7457 99.0028 64.7457 97.9091C64.7457 96.812 64.9496 95.8741 65.3572 95.0952C65.7682 94.313 66.325 93.7147 67.0277 93.3004C67.7337 92.8861 68.5324 92.679 69.424 92.679C70.3156 92.679 71.1127 92.8861 71.8153 93.3004C72.5213 93.7147 73.0781 94.313 73.4858 95.0952C73.8968 95.8741 74.1023 96.812 74.1023 97.9091ZM72.2479 97.9091C72.2479 97.1368 72.1269 96.4856 71.8849 95.9553C71.6463 95.4216 71.3149 95.0189 70.8906 94.7472C70.4664 94.4721 69.9775 94.3345 69.424 94.3345C68.8705 94.3345 68.3816 94.4721 67.9574 94.7472C67.5331 95.0189 67.2 95.4216 66.9581 95.9553C66.7195 96.4856 66.6001 97.1368 66.6001 97.9091C66.6001 98.6813 66.7195 99.3343 66.9581 99.8679C67.2 100.398 67.5331 100.801 67.9574 101.076C68.3816 101.348 68.8705 101.484 69.424 101.484C69.9775 101.484 70.4664 101.348 70.8906 101.076C71.3149 100.801 71.6463 100.398 71.8849 99.8679C72.1269 99.3343 72.2479 98.6813 72.2479 97.9091ZM82.6875 95.3636L79.9681 103H77.9794L75.26 95.3636H77.179L78.934 101.036H79.0135L80.7735 95.3636H82.6875ZM87.1538 103.149C86.3882 103.149 85.727 102.99 85.1702 102.672C84.6167 102.35 84.1908 101.896 83.8925 101.31C83.5942 100.72 83.445 100.025 83.445 99.2266C83.445 98.4411 83.5942 97.7517 83.8925 97.1584C84.1941 96.5618 84.615 96.0978 85.1553 95.7663C85.6955 95.4316 86.3302 95.2642 87.0594 95.2642C87.53 95.2642 87.9741 95.3404 88.3918 95.4929C88.8127 95.642 89.1839 95.8741 89.5054 96.1889C89.8302 96.5038 90.0854 96.9048 90.271 97.392C90.4566 97.8759 90.5494 98.4527 90.5494 99.1222V99.674H84.2902V98.4609H88.8243C88.821 98.1162 88.7464 97.8097 88.6006 97.5412C88.4547 97.2694 88.2509 97.0556 87.9891 96.8999C87.7305 96.7441 87.4289 96.6662 87.0842 96.6662C86.7163 96.6662 86.3932 96.7557 86.1148 96.9347C85.8364 97.1103 85.6193 97.3423 85.4635 97.6307C85.311 97.9157 85.2331 98.2289 85.2298 98.5703V99.6293C85.2298 100.073 85.311 100.455 85.4734 100.773C85.6358 101.088 85.8629 101.33 86.1545 101.499C86.4462 101.664 86.7876 101.747 87.1787 101.747C87.4405 101.747 87.6775 101.711 87.8896 101.638C88.1018 101.562 88.2857 101.451 88.4415 101.305C88.5973 101.159 88.7149 100.978 88.7945 100.763L90.4749 100.952C90.3688 101.396 90.1666 101.784 89.8683 102.115C89.5733 102.443 89.1955 102.698 88.7348 102.881C88.2741 103.06 87.7471 103.149 87.1538 103.149ZM92.172 103V95.3636H93.917V96.6364H93.9966C94.1358 96.1955 94.3744 95.8558 94.7125 95.6172C95.0538 95.3752 95.4433 95.2543 95.8808 95.2543C95.9802 95.2543 96.0913 95.2592 96.2139 95.2692C96.3398 95.2758 96.4442 95.2874 96.5271 95.304V96.9595C96.4509 96.933 96.3299 96.9098 96.1642 96.8899C96.0018 96.8667 95.8443 96.8551 95.6919 96.8551C95.3637 96.8551 95.0688 96.9264 94.8069 97.0689C94.5484 97.2081 94.3446 97.402 94.1954 97.6506C94.0463 97.8991 93.9717 98.1858 93.9717 98.5107V103H92.172ZM102.11 98.0185V99.5H97.5257V98.0185H102.11ZM107.916 95.3636V96.7557H103.526V95.3636H107.916ZM104.61 93.5341H106.409V100.703C106.409 100.945 106.446 101.131 106.519 101.26C106.595 101.386 106.694 101.472 106.817 101.518C106.94 101.565 107.075 101.588 107.225 101.588C107.337 101.588 107.44 101.58 107.533 101.563C107.629 101.547 107.702 101.532 107.752 101.518L108.055 102.925C107.959 102.959 107.821 102.995 107.642 103.035C107.467 103.075 107.251 103.098 106.996 103.104C106.545 103.118 106.139 103.05 105.778 102.901C105.417 102.748 105.13 102.513 104.918 102.195C104.709 101.876 104.606 101.479 104.61 101.001V93.5341ZM111.485 98.5256V103H109.685V92.8182H111.445V96.6612H111.534C111.713 96.2304 111.99 95.8906 112.365 95.642C112.742 95.3902 113.223 95.2642 113.806 95.2642C114.337 95.2642 114.799 95.3752 115.193 95.5973C115.588 95.8194 115.893 96.1442 116.108 96.5717C116.327 96.9993 116.436 97.5213 116.436 98.1378V103H114.637V98.4162C114.637 97.9025 114.504 97.5031 114.239 97.218C113.977 96.9297 113.609 96.7855 113.135 96.7855C112.817 96.7855 112.532 96.8551 112.28 96.9943C112.031 97.1302 111.836 97.3274 111.693 97.5859C111.554 97.8445 111.485 98.1577 111.485 98.5256ZM121.751 103.149C120.986 103.149 120.325 102.99 119.768 102.672C119.214 102.35 118.788 101.896 118.49 101.31C118.192 100.72 118.043 100.025 118.043 99.2266C118.043 98.4411 118.192 97.7517 118.49 97.1584C118.792 96.5618 119.213 96.0978 119.753 95.7663C120.293 95.4316 120.928 95.2642 121.657 95.2642C122.128 95.2642 122.572 95.3404 122.989 95.4929C123.41 95.642 123.782 95.8741 124.103 96.1889C124.428 96.5038 124.683 96.9048 124.869 97.392C125.054 97.8759 125.147 98.4527 125.147 99.1222V99.674H118.888V98.4609H123.422C123.419 98.1162 123.344 97.8097 123.198 97.5412C123.052 97.2694 122.849 97.0556 122.587 96.8999C122.328 96.7441 122.027 96.6662 121.682 96.6662C121.314 96.6662 120.991 96.7557 120.712 96.9347C120.434 97.1103 120.217 97.3423 120.061 97.6307C119.909 97.9157 119.831 98.2289 119.827 98.5703V99.6293C119.827 100.073 119.909 100.455 120.071 100.773C120.233 101.088 120.461 101.33 120.752 101.499C121.044 101.664 121.385 101.747 121.776 101.747C122.038 101.747 122.275 101.711 122.487 101.638C122.699 101.562 122.883 101.451 123.039 101.305C123.195 101.159 123.313 100.978 123.392 100.763L125.073 100.952C124.966 101.396 124.764 101.784 124.466 102.115C124.171 102.443 123.793 102.698 123.332 102.881C122.872 103.06 122.345 103.149 121.751 103.149ZM131.398 98.0185V99.5H126.814V98.0185H131.398ZM136.722 103.149C135.96 103.149 135.305 102.982 134.758 102.647C134.215 102.312 133.795 101.85 133.5 101.26C133.209 100.667 133.063 99.9839 133.063 99.2116C133.063 98.4361 133.212 97.7517 133.51 97.1584C133.809 96.5618 134.23 96.0978 134.773 95.7663C135.32 95.4316 135.966 95.2642 136.712 95.2642C137.332 95.2642 137.88 95.3786 138.358 95.6072C138.838 95.8326 139.221 96.1525 139.506 96.5668C139.791 96.9777 139.954 97.4583 139.993 98.0085H138.273C138.204 97.6406 138.038 97.334 137.776 97.0888C137.518 96.8402 137.171 96.7159 136.737 96.7159C136.369 96.7159 136.046 96.8153 135.768 97.0142C135.489 97.2098 135.272 97.4915 135.116 97.8594C134.964 98.2273 134.888 98.6681 134.888 99.1818C134.888 99.7022 134.964 100.15 135.116 100.524C135.269 100.895 135.483 101.182 135.758 101.384C136.036 101.583 136.362 101.683 136.737 101.683C137.002 101.683 137.239 101.633 137.448 101.533C137.66 101.431 137.837 101.283 137.98 101.091C138.122 100.899 138.22 100.665 138.273 100.39H139.993C139.95 100.93 139.791 101.409 139.516 101.827C139.241 102.241 138.867 102.566 138.393 102.801C137.919 103.033 137.362 103.149 136.722 103.149ZM144.902 103.149C144.156 103.149 143.51 102.985 142.963 102.657C142.416 102.329 141.992 101.87 141.691 101.28C141.392 100.69 141.243 100 141.243 99.2116C141.243 98.4228 141.392 97.7318 141.691 97.1385C141.992 96.5452 142.416 96.0845 142.963 95.7564C143.51 95.4283 144.156 95.2642 144.902 95.2642C145.648 95.2642 146.294 95.4283 146.841 95.7564C147.388 96.0845 147.811 96.5452 148.109 97.1385C148.41 97.7318 148.561 98.4228 148.561 99.2116C148.561 100 148.41 100.69 148.109 101.28C147.811 101.87 147.388 102.329 146.841 102.657C146.294 102.985 145.648 103.149 144.902 103.149ZM144.912 101.707C145.316 101.707 145.655 101.596 145.926 101.374C146.198 101.149 146.4 100.847 146.533 100.469C146.669 100.092 146.737 99.6707 146.737 99.2067C146.737 98.7393 146.669 98.3168 146.533 97.9389C146.4 97.5578 146.198 97.2545 145.926 97.0291C145.655 96.8037 145.316 96.6911 144.912 96.6911C144.498 96.6911 144.153 96.8037 143.878 97.0291C143.606 97.2545 143.402 97.5578 143.267 97.9389C143.134 98.3168 143.068 98.7393 143.068 99.2067C143.068 99.6707 143.134 100.092 143.267 100.469C143.402 100.847 143.606 101.149 143.878 101.374C144.153 101.596 144.498 101.707 144.912 101.707ZM155.056 99.7884V95.3636H156.856V103H155.111V101.643H155.031C154.859 102.07 154.575 102.42 154.181 102.692C153.79 102.964 153.308 103.099 152.734 103.099C152.234 103.099 151.791 102.988 151.407 102.766C151.026 102.541 150.727 102.214 150.512 101.787C150.296 101.356 150.189 100.836 150.189 100.226V95.3636H151.988V99.9474C151.988 100.431 152.121 100.816 152.386 101.101C152.651 101.386 152.999 101.528 153.43 101.528C153.695 101.528 153.952 101.464 154.201 101.335C154.449 101.205 154.653 101.013 154.812 100.758C154.975 100.499 155.056 100.176 155.056 99.7884ZM160.606 98.5256V103H158.806V95.3636H160.527V96.6612H160.616C160.792 96.2337 161.072 95.8939 161.456 95.642C161.844 95.3902 162.323 95.2642 162.893 95.2642C163.42 95.2642 163.879 95.3769 164.27 95.6023C164.665 95.8277 164.969 96.1541 165.185 96.5817C165.404 97.0092 165.511 97.5279 165.508 98.1378V103H163.708V98.4162C163.708 97.9058 163.576 97.5064 163.311 97.218C163.049 96.9297 162.686 96.7855 162.222 96.7855C161.907 96.7855 161.627 96.8551 161.382 96.9943C161.14 97.1302 160.949 97.3274 160.81 97.5859C160.674 97.8445 160.606 98.1577 160.606 98.5256ZM171.251 95.3636V96.7557H166.861V95.3636H171.251ZM167.945 93.5341H169.744V100.703C169.744 100.945 169.781 101.131 169.854 101.26C169.93 101.386 170.029 101.472 170.152 101.518C170.275 101.565 170.411 101.588 170.56 101.588C170.672 101.588 170.775 101.58 170.868 101.563C170.964 101.547 171.037 101.532 171.087 101.518L171.39 102.925C171.294 102.959 171.156 102.995 170.977 103.035C170.802 103.075 170.586 103.098 170.331 103.104C169.88 103.118 169.474 103.05 169.113 102.901C168.752 102.748 168.465 102.513 168.253 102.195C168.044 101.876 167.941 101.479 167.945 101.001V93.5341ZM176.155 103.149C175.389 103.149 174.728 102.99 174.171 102.672C173.617 102.35 173.192 101.896 172.893 101.31C172.595 100.72 172.446 100.025 172.446 99.2266C172.446 98.4411 172.595 97.7517 172.893 97.1584C173.195 96.5618 173.616 96.0978 174.156 95.7663C174.696 95.4316 175.331 95.2642 176.06 95.2642C176.531 95.2642 176.975 95.3404 177.393 95.4929C177.813 95.642 178.185 95.8741 178.506 96.1889C178.831 96.5038 179.086 96.9048 179.272 97.392C179.457 97.8759 179.55 98.4527 179.55 99.1222V99.674H173.291V98.4609H177.825C177.822 98.1162 177.747 97.8097 177.601 97.5412C177.456 97.2694 177.252 97.0556 176.99 96.8999C176.731 96.7441 176.43 96.6662 176.085 96.6662C175.717 96.6662 175.394 96.7557 175.116 96.9347C174.837 97.1103 174.62 97.3423 174.464 97.6307C174.312 97.9157 174.234 98.2289 174.231 98.5703V99.6293C174.231 100.073 174.312 100.455 174.474 100.773C174.637 101.088 174.864 101.33 175.155 101.499C175.447 101.664 175.788 101.747 176.179 101.747C176.441 101.747 176.678 101.711 176.89 101.638C177.103 101.562 177.286 101.451 177.442 101.305C177.598 101.159 177.716 100.978 177.795 100.763L179.476 100.952C179.37 101.396 179.167 101.784 178.869 102.115C178.574 102.443 178.196 102.698 177.736 102.881C177.275 103.06 176.748 103.149 176.155 103.149ZM181.173 103V95.3636H182.918V96.6364H182.997C183.137 96.1955 183.375 95.8558 183.713 95.6172C184.055 95.3752 184.444 95.2543 184.882 95.2543C184.981 95.2543 185.092 95.2592 185.215 95.2692C185.341 95.2758 185.445 95.2874 185.528 95.304V96.9595C185.452 96.933 185.331 96.9098 185.165 96.8899C185.003 96.8667 184.845 96.8551 184.693 96.8551C184.365 96.8551 184.07 96.9264 183.808 97.0689C183.549 97.2081 183.345 97.402 183.196 97.6506C183.047 97.8991 182.972 98.1858 182.972 98.5107V103H181.173Z" fill="black"/>
<path id="Pay in cash" d="M64.9588 128V119.273H68.0696C68.7486 119.273 69.3111 119.396 69.7571 119.643C70.2031 119.891 70.5369 120.229 70.7585 120.658C70.9801 121.084 71.0909 121.564 71.0909 122.098C71.0909 122.635 70.9787 123.118 70.7543 123.547C70.5327 123.973 70.1974 124.311 69.7486 124.561C69.3026 124.808 68.7415 124.932 68.0653 124.932H65.9261V123.815H67.946C68.375 123.815 68.723 123.741 68.9901 123.594C69.2571 123.443 69.4531 123.239 69.5781 122.98C69.7031 122.722 69.7656 122.428 69.7656 122.098C69.7656 121.768 69.7031 121.476 69.5781 121.22C69.4531 120.964 69.2557 120.764 68.9858 120.619C68.7188 120.474 68.3665 120.402 67.929 120.402H66.2756V128H64.9588ZM74.8786 128.145C74.4638 128.145 74.0888 128.068 73.7536 127.915C73.4183 127.759 73.1527 127.533 72.9567 127.237C72.7635 126.942 72.6669 126.58 72.6669 126.151C72.6669 125.781 72.7379 125.477 72.88 125.239C73.022 125 73.2138 124.811 73.4553 124.672C73.6967 124.533 73.9666 124.428 74.2649 124.357C74.5632 124.286 74.8672 124.232 75.1768 124.195C75.5689 124.149 75.8871 124.112 76.1314 124.084C76.3757 124.053 76.5533 124.003 76.6641 123.935C76.7749 123.866 76.8303 123.756 76.8303 123.602V123.572C76.8303 123.2 76.7251 122.912 76.5149 122.707C76.3075 122.503 75.9979 122.401 75.5859 122.401C75.157 122.401 74.8189 122.496 74.5717 122.686C74.3274 122.874 74.1584 123.082 74.0646 123.312L72.8672 123.04C73.0092 122.642 73.2166 122.321 73.4893 122.077C73.7649 121.83 74.0817 121.651 74.4396 121.54C74.7976 121.426 75.174 121.369 75.5689 121.369C75.8303 121.369 76.1072 121.401 76.3999 121.463C76.6953 121.523 76.9709 121.634 77.2266 121.795C77.4851 121.957 77.6967 122.189 77.8615 122.49C78.0263 122.788 78.1087 123.176 78.1087 123.653V128H76.8643V127.105H76.8132C76.7308 127.27 76.6072 127.432 76.4425 127.591C76.2777 127.75 76.0661 127.882 75.8075 127.987C75.549 128.092 75.2393 128.145 74.8786 128.145ZM75.1555 127.122C75.5078 127.122 75.8089 127.053 76.0589 126.913C76.3118 126.774 76.5036 126.592 76.6342 126.368C76.7678 126.141 76.8345 125.898 76.8345 125.639V124.795C76.7891 124.841 76.701 124.884 76.5703 124.923C76.4425 124.96 76.2962 124.993 76.1314 125.021C75.9666 125.047 75.8061 125.071 75.6499 125.094C75.4936 125.114 75.3629 125.131 75.2578 125.145C75.0107 125.176 74.7848 125.229 74.5803 125.303C74.3786 125.376 74.2166 125.483 74.0945 125.622C73.9751 125.759 73.9155 125.94 73.9155 126.168C73.9155 126.483 74.032 126.722 74.2649 126.884C74.4979 127.043 74.7947 127.122 75.1555 127.122ZM80.8768 130.455C80.6864 130.455 80.5131 130.439 80.3569 130.408C80.2006 130.379 80.0842 130.348 80.0075 130.314L80.3143 129.27C80.5472 129.332 80.7546 129.359 80.9364 129.351C81.1183 129.342 81.2788 129.274 81.418 129.146C81.56 129.018 81.685 128.81 81.793 128.52L81.9506 128.085L79.5558 121.455H80.9194L82.5771 126.534H82.6452L84.3029 121.455H85.6708L82.9734 128.874C82.8484 129.214 82.6893 129.503 82.4961 129.739C82.3029 129.977 82.0728 130.156 81.8058 130.276C81.5387 130.395 81.229 130.455 80.8768 130.455ZM91.044 128V121.455H92.3182V128H91.044ZM91.6875 120.445C91.4659 120.445 91.2756 120.371 91.1165 120.223C90.9602 120.072 90.8821 119.893 90.8821 119.686C90.8821 119.476 90.9602 119.297 91.1165 119.149C91.2756 118.999 91.4659 118.923 91.6875 118.923C91.9091 118.923 92.098 118.999 92.2543 119.149C92.4134 119.297 92.4929 119.476 92.4929 119.686C92.4929 119.893 92.4134 120.072 92.2543 120.223C92.098 120.371 91.9091 120.445 91.6875 120.445ZM95.8065 124.114V128H94.5323V121.455H95.7553V122.52H95.8363C95.9869 122.173 96.2227 121.895 96.5437 121.685C96.8675 121.474 97.2752 121.369 97.7667 121.369C98.2127 121.369 98.6033 121.463 98.9386 121.651C99.2738 121.835 99.5337 122.111 99.7184 122.477C99.9031 122.844 99.9954 123.297 99.9954 123.837V128H98.7212V123.99C98.7212 123.516 98.5977 123.145 98.3505 122.878C98.1033 122.608 97.7638 122.473 97.332 122.473C97.0366 122.473 96.7738 122.537 96.5437 122.665C96.3164 122.793 96.136 122.98 96.0025 123.227C95.8718 123.472 95.8065 123.767 95.8065 124.114ZM108.637 128.132C108.004 128.132 107.458 127.989 107.001 127.702C106.546 127.412 106.197 127.013 105.952 126.504C105.708 125.996 105.586 125.413 105.586 124.757C105.586 124.092 105.711 123.506 105.961 122.997C106.211 122.486 106.563 122.087 107.018 121.8C107.472 121.513 108.008 121.369 108.624 121.369C109.121 121.369 109.565 121.462 109.954 121.646C110.343 121.828 110.657 122.084 110.896 122.413C111.137 122.743 111.281 123.128 111.326 123.568H110.086C110.018 123.261 109.862 122.997 109.617 122.776C109.376 122.554 109.052 122.443 108.646 122.443C108.29 122.443 107.979 122.537 107.712 122.724C107.448 122.909 107.242 123.173 107.094 123.517C106.947 123.858 106.873 124.261 106.873 124.727C106.873 125.205 106.945 125.616 107.09 125.963C107.235 126.31 107.44 126.578 107.704 126.768C107.971 126.959 108.285 127.054 108.646 127.054C108.887 127.054 109.106 127.01 109.302 126.922C109.501 126.831 109.667 126.702 109.8 126.534C109.937 126.366 110.032 126.165 110.086 125.929H111.326C111.281 126.352 111.143 126.73 110.913 127.062C110.683 127.395 110.374 127.656 109.988 127.847C109.604 128.037 109.154 128.132 108.637 128.132ZM115.093 128.145C114.679 128.145 114.304 128.068 113.968 127.915C113.633 127.759 113.368 127.533 113.172 127.237C112.978 126.942 112.882 126.58 112.882 126.151C112.882 125.781 112.953 125.477 113.095 125.239C113.237 125 113.429 124.811 113.67 124.672C113.912 124.533 114.181 124.428 114.48 124.357C114.778 124.286 115.082 124.232 115.392 124.195C115.784 124.149 116.102 124.112 116.346 124.084C116.591 124.053 116.768 124.003 116.879 123.935C116.99 123.866 117.045 123.756 117.045 123.602V123.572C117.045 123.2 116.94 122.912 116.73 122.707C116.522 122.503 116.213 122.401 115.801 122.401C115.372 122.401 115.034 122.496 114.787 122.686C114.542 122.874 114.373 123.082 114.279 123.312L113.082 123.04C113.224 122.642 113.431 122.321 113.704 122.077C113.98 121.83 114.297 121.651 114.654 121.54C115.012 121.426 115.389 121.369 115.784 121.369C116.045 121.369 116.322 121.401 116.615 121.463C116.91 121.523 117.186 121.634 117.441 121.795C117.7 121.957 117.912 122.189 118.076 122.49C118.241 122.788 118.324 123.176 118.324 123.653V128H117.079V127.105H117.028C116.946 127.27 116.822 127.432 116.657 127.591C116.493 127.75 116.281 127.882 116.022 127.987C115.764 128.092 115.454 128.145 115.093 128.145ZM115.37 127.122C115.723 127.122 116.024 127.053 116.274 126.913C116.527 126.774 116.718 126.592 116.849 126.368C116.983 126.141 117.049 125.898 117.049 125.639V124.795C117.004 124.841 116.916 124.884 116.785 124.923C116.657 124.96 116.511 124.993 116.346 125.021C116.181 125.047 116.021 125.071 115.865 125.094C115.708 125.114 115.578 125.131 115.473 125.145C115.225 125.176 115 125.229 114.795 125.303C114.593 125.376 114.431 125.483 114.309 125.622C114.19 125.759 114.13 125.94 114.13 126.168C114.13 126.483 114.247 126.722 114.48 126.884C114.713 127.043 115.01 127.122 115.37 127.122ZM125.425 123.053L124.271 123.257C124.222 123.109 124.146 122.969 124.04 122.835C123.938 122.702 123.799 122.592 123.623 122.507C123.447 122.422 123.227 122.379 122.962 122.379C122.602 122.379 122.3 122.46 122.059 122.622C121.817 122.781 121.697 122.987 121.697 123.24C121.697 123.459 121.778 123.635 121.94 123.768C122.102 123.902 122.363 124.011 122.724 124.097L123.763 124.335C124.366 124.474 124.815 124.689 125.11 124.979C125.406 125.268 125.553 125.645 125.553 126.108C125.553 126.5 125.44 126.849 125.212 127.156C124.988 127.46 124.674 127.699 124.271 127.872C123.87 128.045 123.406 128.132 122.877 128.132C122.144 128.132 121.546 127.976 121.083 127.663C120.62 127.348 120.336 126.901 120.231 126.321L121.462 126.134C121.539 126.455 121.697 126.697 121.935 126.862C122.174 127.024 122.485 127.105 122.869 127.105C123.286 127.105 123.62 127.018 123.87 126.845C124.12 126.669 124.245 126.455 124.245 126.202C124.245 125.997 124.168 125.825 124.015 125.686C123.864 125.547 123.633 125.442 123.32 125.371L122.212 125.128C121.602 124.989 121.15 124.767 120.857 124.463C120.567 124.159 120.423 123.774 120.423 123.308C120.423 122.922 120.531 122.584 120.746 122.294C120.962 122.004 121.261 121.778 121.641 121.616C122.022 121.452 122.458 121.369 122.95 121.369C123.657 121.369 124.214 121.523 124.62 121.83C125.026 122.134 125.295 122.541 125.425 123.053ZM128.728 124.114V128H127.454V119.273H128.711V122.52H128.792C128.946 122.168 129.18 121.888 129.495 121.68C129.811 121.473 130.223 121.369 130.731 121.369C131.18 121.369 131.572 121.462 131.907 121.646C132.245 121.831 132.507 122.107 132.691 122.473C132.879 122.837 132.973 123.291 132.973 123.837V128H131.699V123.99C131.699 123.51 131.575 123.138 131.328 122.874C131.081 122.607 130.737 122.473 130.297 122.473C129.995 122.473 129.725 122.537 129.487 122.665C129.251 122.793 129.065 122.98 128.929 123.227C128.795 123.472 128.728 123.767 128.728 124.114Z" fill="#6A6C6A"/>
</g>
<g id="keyboard_arrow_down_3">
<mask id="mask3_225_4844" style="mask-type:alpha" maskUnits="userSpaceOnUse" x="321" y="88" width="24" height="24">
<rect id="Bounding box_4" x="321" y="88" width="24" height="24" fill="#D9D9D9"/>
</mask>
<g mask="url(#mask3_225_4844)">
<path id="keyboard_arrow_down_4" d="M336.354 99.6999L330.7 105.354L329.646 104.3L334.246 99.6999L329.646 95.0999L330.7 94.0462L336.354 99.6999Z" fill="#1F3701"/>
</g>
</g>
</g>
</g>
</g>
</svg>
