<svg width="360" height="504" viewBox="0 0 360 504" fill="none" xmlns="http://www.w3.org/2000/svg">
<g id="Due-date-calendar">
<g clip-path="url(#clip0_225_4644)">
<path d="M0 16C0 7.16344 7.16344 0 16 0H344C352.837 0 360 7.16344 360 16V488C360 496.837 352.837 504 344 504H16C7.16344 504 0 496.837 0 488V16Z" fill="white"/>
<g id="Header">
<mask id="path-2-inside-1_225_4644" fill="white">
<path d="M0 0H360V100H0V0Z"/>
</mask>
<path d="M360 99H0V101H360V99Z" fill="#E5E2E1" mask="url(#path-2-inside-1_225_4644)"/>
<g id="Label and Date">
<path id="Supporting text" d="M28.4545 31H25.0043V20.8182H28.5241C29.535 20.8182 30.4034 21.022 31.1293 21.4297C31.8584 21.834 32.4186 22.4157 32.8097 23.1747C33.2008 23.9337 33.3963 24.8419 33.3963 25.8991C33.3963 26.9598 33.1991 27.8712 32.8047 28.6335C32.4136 29.3958 31.8485 29.9808 31.1094 30.3885C30.3736 30.7962 29.4886 31 28.4545 31ZM26.8487 29.4041H28.3651C29.0743 29.4041 29.666 29.2749 30.1399 29.0163C30.6139 28.7545 30.9702 28.3651 31.2088 27.848C31.4474 27.3277 31.5668 26.678 31.5668 25.8991C31.5668 25.1203 31.4474 24.474 31.2088 23.9602C30.9702 23.4432 30.6172 23.0571 30.1499 22.8018C29.6858 22.5433 29.1091 22.4141 28.4197 22.4141H26.8487V29.4041ZM40.0364 27.7884V23.3636H41.8362V31H40.0911V29.6428H40.0116C39.8392 30.0703 39.5558 30.42 39.1614 30.6918C38.7703 30.9635 38.2881 31.0994 37.7147 31.0994C37.2142 31.0994 36.7718 30.9884 36.3873 30.7663C36.0061 30.541 35.7078 30.2145 35.4924 29.7869C35.277 29.3561 35.1692 28.8357 35.1692 28.2259V23.3636H36.969V27.9474C36.969 28.4313 37.1015 28.8158 37.3667 29.1009C37.6318 29.3859 37.9799 29.5284 38.4107 29.5284C38.6759 29.5284 38.9327 29.4638 39.1813 29.3345C39.4299 29.2053 39.6337 29.013 39.7928 28.7578C39.9552 28.4993 40.0364 28.1761 40.0364 27.7884ZM47.1675 31.1491C46.4019 31.1491 45.7407 30.9901 45.1838 30.6719C44.6303 30.3504 44.2044 29.8963 43.9061 29.3097C43.6078 28.7197 43.4587 28.0253 43.4587 27.2266C43.4587 26.4411 43.6078 25.7517 43.9061 25.1584C44.2078 24.5618 44.6287 24.0978 45.1689 23.7663C45.7092 23.4316 46.3439 23.2642 47.073 23.2642C47.5437 23.2642 47.9878 23.3404 48.4054 23.4929C48.8264 23.642 49.1976 23.8741 49.5191 24.1889C49.8439 24.5038 50.0991 24.9048 50.2847 25.392C50.4703 25.8759 50.5631 26.4527 50.5631 27.1222V27.674H44.3039V26.4609H48.838C48.8346 26.1162 48.7601 25.8097 48.6142 25.5412C48.4684 25.2694 48.2646 25.0556 48.0027 24.8999C47.7442 24.7441 47.4426 24.6662 47.0979 24.6662C46.73 24.6662 46.4069 24.7557 46.1284 24.9347C45.85 25.1103 45.6329 25.3423 45.4772 25.6307C45.3247 25.9157 45.2468 26.2289 45.2435 26.5703V27.6293C45.2435 28.0734 45.3247 28.4545 45.4871 28.7727C45.6495 29.0876 45.8766 29.3295 46.1682 29.4986C46.4599 29.6643 46.8013 29.7472 47.1924 29.7472C47.4542 29.7472 47.6912 29.7107 47.9033 29.6378C48.1154 29.5616 48.2994 29.4505 48.4551 29.3047C48.6109 29.1589 48.7286 28.9782 48.8081 28.7628L50.4885 28.9517C50.3825 29.3958 50.1803 29.7836 49.882 30.1151C49.587 30.4432 49.2092 30.6984 48.7485 30.8807C48.2878 31.0597 47.7608 31.1491 47.1675 31.1491ZM58.5921 31.1342C57.9922 31.1342 57.4553 30.9801 56.9813 30.6719C56.5074 30.3636 56.1328 29.9162 55.8577 29.3295C55.5826 28.7429 55.4451 28.0303 55.4451 27.1918C55.4451 26.3433 55.5843 25.6274 55.8627 25.044C56.1444 24.4574 56.5239 24.0149 57.0012 23.7166C57.4785 23.415 58.0104 23.2642 58.5971 23.2642C59.0445 23.2642 59.4124 23.3404 59.7008 23.4929C59.9891 23.642 60.2178 23.8227 60.3869 24.0348C60.5559 24.2436 60.6868 24.4408 60.7796 24.6264H60.8542V20.8182H62.6589V31H60.889V29.7969H60.7796C60.6868 29.9825 60.5526 30.1797 60.3769 30.3885C60.2013 30.594 59.9692 30.7696 59.6809 30.9155C59.3925 31.0613 59.0296 31.1342 58.5921 31.1342ZM59.0942 29.6577C59.4754 29.6577 59.8002 29.5549 60.0687 29.3494C60.3371 29.1406 60.541 28.8506 60.6802 28.4794C60.8194 28.1082 60.889 27.6757 60.889 27.1818C60.889 26.688 60.8194 26.2588 60.6802 25.8942C60.5443 25.5296 60.3421 25.2462 60.0737 25.044C59.8085 24.8419 59.482 24.7408 59.0942 24.7408C58.6932 24.7408 58.3585 24.8452 58.09 25.054C57.8215 25.2628 57.6193 25.5511 57.4835 25.919C57.3476 26.2869 57.2796 26.7079 57.2796 27.1818C57.2796 27.6591 57.3476 28.085 57.4835 28.4595C57.6227 28.8307 57.8265 29.1241 58.095 29.3395C58.3667 29.5516 58.6998 29.6577 59.0942 29.6577ZM66.8741 31.1541C66.3902 31.1541 65.9544 31.0679 65.5666 30.8956C65.1821 30.7199 64.8772 30.4614 64.6518 30.12C64.4297 29.7786 64.3187 29.3577 64.3187 28.8572C64.3187 28.4264 64.3983 28.0701 64.5574 27.7884C64.7164 27.5066 64.9335 27.2812 65.2086 27.1122C65.4837 26.9432 65.7936 26.8156 66.1383 26.7294C66.4863 26.6399 66.8459 26.5753 67.2172 26.5355C67.6646 26.4891 68.0275 26.4477 68.3059 26.4112C68.5843 26.3714 68.7865 26.3118 68.9125 26.2322C69.0417 26.1494 69.1064 26.0218 69.1064 25.8494V25.8196C69.1064 25.4451 68.9953 25.1551 68.7733 24.9496C68.5512 24.7441 68.2314 24.6413 67.8137 24.6413C67.3729 24.6413 67.0233 24.7375 66.7647 24.9297C66.5095 25.1219 66.3372 25.349 66.2477 25.6108L64.5673 25.3722C64.6999 24.9081 64.9186 24.5204 65.2235 24.2088C65.5285 23.8939 65.9013 23.6586 66.3422 23.5028C66.783 23.3438 67.2702 23.2642 67.8038 23.2642C68.1717 23.2642 68.5379 23.3073 68.9025 23.3935C69.2671 23.4796 69.6002 23.6222 69.9018 23.821C70.2034 24.0166 70.4454 24.2834 70.6277 24.6214C70.8133 24.9595 70.9061 25.3821 70.9061 25.8892V31H69.176V29.951H69.1163C69.0069 30.1631 68.8528 30.362 68.6539 30.5476C68.4584 30.7299 68.2115 30.8774 67.9132 30.9901C67.6182 31.0994 67.2718 31.1541 66.8741 31.1541ZM67.3414 29.8317C67.7027 29.8317 68.0159 29.7604 68.2811 29.6179C68.5462 29.4721 68.7501 29.2798 68.8926 29.0412C69.0384 28.8026 69.1113 28.5424 69.1113 28.2607V27.3608C69.055 27.4072 68.9589 27.4503 68.823 27.4901C68.6904 27.5298 68.5413 27.5646 68.3755 27.5945C68.2098 27.6243 68.0458 27.6508 67.8833 27.674C67.7209 27.6972 67.5801 27.7171 67.4608 27.7337C67.1923 27.7701 66.952 27.8298 66.7399 27.9126C66.5278 27.9955 66.3604 28.1115 66.2377 28.2607C66.1151 28.4065 66.0538 28.5954 66.0538 28.8274C66.0538 29.1589 66.1748 29.4091 66.4167 29.5781C66.6587 29.7472 66.9669 29.8317 67.3414 29.8317ZM76.6289 23.3636V24.7557H72.239V23.3636H76.6289ZM73.3228 21.5341H75.1225V28.7031C75.1225 28.9451 75.159 29.1307 75.2319 29.2599C75.3082 29.3859 75.4076 29.4721 75.5302 29.5185C75.6529 29.5649 75.7887 29.5881 75.9379 29.5881C76.0506 29.5881 76.1533 29.5798 76.2461 29.5632C76.3422 29.5466 76.4152 29.5317 76.4649 29.5185L76.7681 30.9254C76.672 30.9586 76.5345 30.995 76.3555 31.0348C76.1798 31.0746 75.9644 31.0978 75.7092 31.1044C75.2584 31.1177 74.8524 31.0497 74.4912 30.9006C74.1299 30.7481 73.8432 30.5128 73.6311 30.1946C73.4223 29.8764 73.3195 29.4787 73.3228 29.0014V21.5341ZM81.5327 31.1491C80.7671 31.1491 80.1059 30.9901 79.5491 30.6719C78.9956 30.3504 78.5697 29.8963 78.2714 29.3097C77.9731 28.7197 77.8239 28.0253 77.8239 27.2266C77.8239 26.4411 77.9731 25.7517 78.2714 25.1584C78.573 24.5618 78.9939 24.0978 79.5342 23.7663C80.0744 23.4316 80.7091 23.2642 81.4383 23.2642C81.9089 23.2642 82.3531 23.3404 82.7707 23.4929C83.1916 23.642 83.5628 23.8741 83.8843 24.1889C84.2091 24.5038 84.4643 24.9048 84.6499 25.392C84.8355 25.8759 84.9283 26.4527 84.9283 27.1222V27.674H78.6691V26.4609H83.2032C83.1999 26.1162 83.1253 25.8097 82.9795 25.5412C82.8336 25.2694 82.6298 25.0556 82.368 24.8999C82.1094 24.7441 81.8078 24.6662 81.4631 24.6662C81.0952 24.6662 80.7721 24.7557 80.4937 24.9347C80.2153 25.1103 79.9982 25.3423 79.8424 25.6307C79.6899 25.9157 79.6121 26.2289 79.6087 26.5703V27.6293C79.6087 28.0734 79.6899 28.4545 79.8523 28.7727C80.0147 29.0876 80.2418 29.3295 80.5335 29.4986C80.8251 29.6643 81.1665 29.7472 81.5576 29.7472C81.8194 29.7472 82.0564 29.7107 82.2685 29.6378C82.4807 29.5616 82.6646 29.4505 82.8204 29.3047C82.9762 29.1589 83.0938 28.9782 83.1734 28.7628L84.8538 28.9517C84.7477 29.3958 84.5455 29.7836 84.2472 30.1151C83.9523 30.4432 83.5744 30.6984 83.1137 30.8807C82.653 31.0597 82.126 31.1491 81.5327 31.1491ZM92.5864 25.3821L90.9458 25.5611C90.8994 25.3954 90.8182 25.2396 90.7022 25.0938C90.5895 24.9479 90.437 24.8303 90.2448 24.7408C90.0525 24.6513 89.8172 24.6065 89.5388 24.6065C89.1643 24.6065 88.8494 24.6877 88.5942 24.8501C88.3423 25.0125 88.218 25.223 88.2213 25.4815C88.218 25.7036 88.2992 25.8842 88.4649 26.0234C88.634 26.1626 88.9124 26.277 89.3002 26.3665L90.6027 26.6449C91.3253 26.8007 91.8622 27.0476 92.2135 27.3857C92.5682 27.7237 92.7471 28.1662 92.7505 28.7131C92.7471 29.1937 92.6063 29.6179 92.3279 29.9858C92.0528 30.3504 91.67 30.6354 91.1794 30.8409C90.6889 31.0464 90.1255 31.1491 89.4891 31.1491C88.5544 31.1491 87.8021 30.9536 87.232 30.5625C86.6619 30.1681 86.3222 29.6196 86.2128 28.9169L87.9678 28.7479C88.0473 29.0926 88.2164 29.3527 88.4749 29.5284C88.7334 29.7041 89.0698 29.7919 89.4841 29.7919C89.9117 29.7919 90.2547 29.7041 90.5132 29.5284C90.7751 29.3527 90.906 29.1357 90.906 28.8771C90.906 28.6584 90.8215 28.4777 90.6524 28.3352C90.4867 28.1927 90.2282 28.0833 89.8769 28.0071L88.5743 27.7337C87.8418 27.5812 87.2999 27.3243 86.9486 26.9631C86.5973 26.5985 86.4233 26.1378 86.4266 25.581C86.4233 25.1103 86.5509 24.7027 86.8094 24.358C87.0712 24.0099 87.4342 23.7415 87.8982 23.5526C88.3655 23.3603 88.9041 23.2642 89.514 23.2642C90.4088 23.2642 91.1132 23.4548 91.6269 23.8359C92.1439 24.2171 92.4638 24.7325 92.5864 25.3821Z" fill="#454745"/>
<path id="Week day, Day" d="M26.256 73V56.2H28.824L36.168 68.464H34.824L42.048 56.2H44.616L44.64 73H41.688L41.664 60.832H42.288L36.144 71.08H34.752L28.512 60.832H29.232V73H26.256ZM54.6499 73.168C53.3379 73.168 52.1699 72.888 51.1459 72.328C50.1219 71.752 49.3139 70.968 48.7219 69.976C48.1299 68.984 47.8339 67.856 47.8339 66.592C47.8339 65.312 48.1299 64.184 48.7219 63.208C49.3139 62.216 50.1219 61.44 51.1459 60.88C52.1699 60.32 53.3379 60.04 54.6499 60.04C55.9779 60.04 57.1539 60.32 58.1779 60.88C59.2179 61.44 60.0259 62.208 60.6019 63.184C61.1939 64.16 61.4899 65.296 61.4899 66.592C61.4899 67.856 61.1939 68.984 60.6019 69.976C60.0259 70.968 59.2179 71.752 58.1779 72.328C57.1539 72.888 55.9779 73.168 54.6499 73.168ZM54.6499 70.6C55.3859 70.6 56.0419 70.44 56.6179 70.12C57.1939 69.8 57.6419 69.336 57.9619 68.728C58.2979 68.12 58.4659 67.408 58.4659 66.592C58.4659 65.76 58.2979 65.048 57.9619 64.456C57.6419 63.848 57.1939 63.384 56.6179 63.064C56.0419 62.744 55.3939 62.584 54.6739 62.584C53.9379 62.584 53.2819 62.744 52.7059 63.064C52.1459 63.384 51.6979 63.848 51.3619 64.456C51.0259 65.048 50.8579 65.76 50.8579 66.592C50.8579 67.408 51.0259 68.12 51.3619 68.728C51.6979 69.336 52.1459 69.8 52.7059 70.12C53.2819 70.44 53.9299 70.6 54.6499 70.6ZM71.6306 60.04C72.6546 60.04 73.5666 60.24 74.3666 60.64C75.1826 61.04 75.8226 61.656 76.2866 62.488C76.7506 63.304 76.9826 64.36 76.9826 65.656V73H73.9826V66.04C73.9826 64.904 73.7106 64.056 73.1666 63.496C72.6386 62.936 71.8946 62.656 70.9346 62.656C70.2306 62.656 69.6066 62.8 69.0626 63.088C68.5186 63.376 68.0946 63.808 67.7906 64.384C67.5026 64.944 67.3586 65.656 67.3586 66.52V73H64.3586V60.184H67.2146V63.64L66.7106 62.584C67.1586 61.768 67.8066 61.144 68.6546 60.712C69.5186 60.264 70.5106 60.04 71.6306 60.04ZM79.9963 76.624L81.3883 71.32L81.7963 73.096C81.2363 73.096 80.7643 72.928 80.3803 72.592C80.0123 72.24 79.8283 71.768 79.8283 71.176C79.8283 70.568 80.0123 70.088 80.3803 69.736C80.7643 69.368 81.2283 69.184 81.7723 69.184C82.3323 69.184 82.7963 69.368 83.1643 69.736C83.5323 70.104 83.7163 70.584 83.7163 71.176C83.7163 71.336 83.7003 71.512 83.6683 71.704C83.6363 71.88 83.5803 72.088 83.5003 72.328C83.4363 72.568 83.3243 72.872 83.1643 73.24L81.9403 76.624H79.9963ZM91.1925 73L98.7525 56.2H101.825L109.409 73H106.145L99.6405 57.856H100.889L94.4085 73H91.1925ZM94.6725 69.112L95.5125 66.664H104.585L105.424 69.112H94.6725ZM116.447 73.168C115.359 73.168 114.399 72.968 113.567 72.568C112.735 72.152 112.087 71.528 111.623 70.696C111.159 69.848 110.927 68.784 110.927 67.504V60.184H113.927V67.096C113.927 68.248 114.183 69.112 114.695 69.688C115.223 70.248 115.967 70.528 116.927 70.528C117.631 70.528 118.239 70.384 118.751 70.096C119.279 69.808 119.687 69.376 119.975 68.8C120.279 68.224 120.431 67.512 120.431 66.664V60.184H123.431V73H120.575V69.544L121.079 70.6C120.647 71.432 120.015 72.072 119.183 72.52C118.351 72.952 117.439 73.168 116.447 73.168ZM133.167 77.824C131.983 77.824 130.823 77.664 129.687 77.344C128.567 77.04 127.647 76.592 126.927 76L128.271 73.744C128.831 74.208 129.535 74.576 130.383 74.848C131.247 75.136 132.119 75.28 132.999 75.28C134.407 75.28 135.439 74.952 136.095 74.296C136.751 73.656 137.079 72.688 137.079 71.392V69.112L137.319 66.208L137.223 63.304V60.184H140.079V71.056C140.079 73.376 139.487 75.08 138.303 76.168C137.119 77.272 135.407 77.824 133.167 77.824ZM132.783 72.424C131.567 72.424 130.463 72.168 129.471 71.656C128.495 71.128 127.719 70.4 127.143 69.472C126.583 68.544 126.303 67.456 126.303 66.208C126.303 64.976 126.583 63.896 127.143 62.968C127.719 62.04 128.495 61.32 129.471 60.808C130.463 60.296 131.567 60.04 132.783 60.04C133.871 60.04 134.847 60.256 135.711 60.688C136.575 61.12 137.263 61.792 137.775 62.704C138.303 63.616 138.567 64.784 138.567 66.208C138.567 67.632 138.303 68.808 137.775 69.736C137.263 70.648 136.575 71.328 135.711 71.776C134.847 72.208 133.871 72.424 132.783 72.424ZM133.239 69.88C133.991 69.88 134.663 69.728 135.255 69.424C135.847 69.104 136.303 68.672 136.623 68.128C136.959 67.568 137.127 66.928 137.127 66.208C137.127 65.488 136.959 64.856 136.623 64.312C136.303 63.752 135.847 63.328 135.255 63.04C134.663 62.736 133.991 62.584 133.239 62.584C132.487 62.584 131.807 62.736 131.199 63.04C130.607 63.328 130.143 63.752 129.807 64.312C129.487 64.856 129.327 65.488 129.327 66.208C129.327 66.928 129.487 67.568 129.807 68.128C130.143 68.672 130.607 69.104 131.199 69.424C131.807 69.728 132.487 69.88 133.239 69.88ZM152.432 73V57.4L153.8 58.816H148.88V56.2H155.552V73H152.432ZM161.692 73L168.628 57.448L169.444 58.84H159.916L161.404 57.328V61.696H158.5V56.2H171.556V58.288L165.028 73H161.692Z" fill="black"/>
</g>
</g>
<g id="Local Selection Row">
<g id=".Building Blocks/Menu button">
<g id="state-layer">
<path id="label-text" d="M26.6926 133H24.7239L28.3084 122.818H30.5854L34.1749 133H32.2061L29.4867 124.906H29.4071L26.6926 133ZM26.7573 129.008H32.1266V130.489H26.7573V129.008ZM40.4036 129.788V125.364H42.2033V133H40.4583V131.643H40.3788C40.2064 132.07 39.923 132.42 39.5286 132.692C39.1375 132.964 38.6553 133.099 38.0819 133.099C37.5814 133.099 37.1389 132.988 36.7545 132.766C36.3733 132.541 36.075 132.214 35.8596 131.787C35.6442 131.356 35.5364 130.836 35.5364 130.226V125.364H37.3362V129.947C37.3362 130.431 37.4687 130.816 37.7339 131.101C37.999 131.386 38.347 131.528 38.7779 131.528C39.0431 131.528 39.2999 131.464 39.5485 131.335C39.7971 131.205 40.0009 131.013 40.16 130.758C40.3224 130.499 40.4036 130.176 40.4036 129.788ZM47.475 136.023C46.8287 136.023 46.2736 135.935 45.8096 135.759C45.3455 135.587 44.9727 135.355 44.6909 135.063C44.4092 134.772 44.2137 134.448 44.1043 134.094L45.725 133.701C45.798 133.85 45.904 133.998 46.0432 134.143C46.1824 134.293 46.3697 134.415 46.605 134.511C46.8436 134.611 47.1436 134.661 47.5049 134.661C48.0153 134.661 48.4379 134.536 48.7726 134.288C49.1074 134.042 49.2748 133.638 49.2748 133.075V131.628H49.1853C49.0925 131.813 48.9566 132.004 48.7776 132.2C48.6019 132.395 48.3683 132.559 48.0766 132.692C47.7882 132.824 47.4253 132.891 46.9878 132.891C46.4012 132.891 45.8692 132.753 45.3919 132.478C44.918 132.2 44.5401 131.785 44.2584 131.235C43.98 130.682 43.8408 129.989 43.8408 129.157C43.8408 128.318 43.98 127.611 44.2584 127.034C44.5401 126.454 44.9196 126.015 45.3969 125.717C45.8742 125.415 46.4061 125.264 46.9928 125.264C47.4402 125.264 47.8081 125.34 48.0965 125.493C48.3882 125.642 48.6202 125.823 48.7925 126.035C48.9649 126.244 49.0958 126.441 49.1853 126.626H49.2847V125.364H51.0596V133.124C51.0596 133.777 50.9038 134.317 50.5922 134.745C50.2807 135.173 49.8548 135.492 49.3145 135.705C48.7743 135.917 48.1611 136.023 47.475 136.023ZM47.49 131.479C47.8711 131.479 48.1959 131.386 48.4644 131.2C48.7328 131.015 48.9367 130.748 49.0759 130.4C49.2151 130.052 49.2847 129.634 49.2847 129.147C49.2847 128.666 49.2151 128.246 49.0759 127.884C48.94 127.523 48.7378 127.243 48.4694 127.044C48.2042 126.842 47.8777 126.741 47.49 126.741C47.0889 126.741 46.7542 126.845 46.4857 127.054C46.2172 127.263 46.015 127.549 45.8792 127.914C45.7433 128.275 45.6753 128.686 45.6753 129.147C45.6753 129.614 45.7433 130.024 45.8792 130.375C46.0184 130.723 46.2222 130.995 46.4907 131.19C46.7624 131.383 47.0955 131.479 47.49 131.479ZM57.8712 129.788V125.364H59.6709V133H57.9259V131.643H57.8463C57.674 132.07 57.3906 132.42 56.9962 132.692C56.6051 132.964 56.1229 133.099 55.5495 133.099C55.049 133.099 54.6065 132.988 54.2221 132.766C53.8409 132.541 53.5426 132.214 53.3272 131.787C53.1117 131.356 53.004 130.836 53.004 130.226V125.364H54.8037V129.947C54.8037 130.431 54.9363 130.816 55.2015 131.101C55.4666 131.386 55.8146 131.528 56.2455 131.528C56.5106 131.528 56.7675 131.464 57.0161 131.335C57.2647 131.205 57.4685 131.013 57.6276 130.758C57.79 130.499 57.8712 130.176 57.8712 129.788ZM67.6571 127.382L66.0165 127.561C65.9701 127.395 65.8889 127.24 65.7729 127.094C65.6602 126.948 65.5077 126.83 65.3155 126.741C65.1232 126.651 64.8879 126.607 64.6095 126.607C64.235 126.607 63.9201 126.688 63.6649 126.85C63.413 127.013 63.2887 127.223 63.292 127.482C63.2887 127.704 63.3699 127.884 63.5357 128.023C63.7047 128.163 63.9831 128.277 64.3709 128.366L65.6734 128.645C66.396 128.801 66.9329 129.048 67.2842 129.386C67.6389 129.724 67.8179 130.166 67.8212 130.713C67.8179 131.194 67.677 131.618 67.3986 131.986C67.1235 132.35 66.7407 132.635 66.2501 132.841C65.7596 133.046 65.1962 133.149 64.5598 133.149C63.6251 133.149 62.8728 132.954 62.3027 132.562C61.7326 132.168 61.3929 131.62 61.2835 130.917L63.0385 130.748C63.118 131.093 63.2871 131.353 63.5456 131.528C63.8041 131.704 64.1405 131.792 64.5548 131.792C64.9824 131.792 65.3254 131.704 65.584 131.528C65.8458 131.353 65.9767 131.136 65.9767 130.877C65.9767 130.658 65.8922 130.478 65.7232 130.335C65.5574 130.193 65.2989 130.083 64.9476 130.007L63.645 129.734C62.9125 129.581 62.3706 129.324 62.0193 128.963C61.668 128.598 61.494 128.138 61.4973 127.581C61.494 127.11 61.6216 126.703 61.8801 126.358C62.142 126.01 62.5049 125.741 62.9689 125.553C63.4362 125.36 63.9748 125.264 64.5847 125.264C65.4795 125.264 66.1839 125.455 66.6976 125.836C67.2146 126.217 67.5345 126.732 67.6571 127.382ZM73.2184 125.364V126.756H68.8285V125.364H73.2184ZM69.9123 123.534H71.712V130.703C71.712 130.945 71.7485 131.131 71.8214 131.26C71.8976 131.386 71.997 131.472 72.1197 131.518C72.2423 131.565 72.3782 131.588 72.5273 131.588C72.64 131.588 72.7428 131.58 72.8356 131.563C72.9317 131.547 73.0046 131.532 73.0543 131.518L73.3576 132.925C73.2615 132.959 73.1239 132.995 72.945 133.035C72.7693 133.075 72.5539 133.098 72.2987 133.104C71.8479 133.118 71.4419 133.05 71.0806 132.901C70.7193 132.748 70.4326 132.513 70.2205 132.195C70.0117 131.876 69.909 131.479 69.9123 131.001V123.534ZM78.3763 133V131.668L81.9111 128.202C82.2492 127.861 82.5309 127.558 82.7563 127.293C82.9817 127.027 83.1507 126.771 83.2634 126.522C83.3761 126.273 83.4324 126.008 83.4324 125.727C83.4324 125.405 83.3595 125.13 83.2137 124.901C83.0678 124.669 82.8673 124.49 82.6121 124.364C82.3569 124.238 82.0669 124.175 81.7421 124.175C81.4073 124.175 81.114 124.245 80.8621 124.384C80.6102 124.52 80.4147 124.714 80.2755 124.966C80.1396 125.218 80.0716 125.518 80.0716 125.866H78.3167C78.3167 125.219 78.4641 124.658 78.7591 124.18C79.0541 123.703 79.4601 123.334 79.9772 123.072C80.4975 122.81 81.0941 122.679 81.7669 122.679C82.4497 122.679 83.0496 122.807 83.5667 123.062C84.0837 123.317 84.4847 123.667 84.7698 124.111C85.0581 124.555 85.2023 125.062 85.2023 125.632C85.2023 126.013 85.1294 126.388 84.9836 126.756C84.8377 127.124 84.5809 127.531 84.213 127.979C83.8484 128.426 83.3363 128.968 82.6767 129.604L80.9218 131.389V131.459H85.3564V133H78.3763ZM90.9351 133.194C90.1165 133.194 89.4138 132.987 88.8272 132.572C88.2438 132.155 87.7947 131.553 87.4799 130.768C87.1683 129.979 87.0125 129.029 87.0125 127.919C87.0158 126.809 87.1733 125.864 87.4848 125.085C87.7997 124.303 88.2488 123.706 88.8321 123.295C89.4188 122.884 90.1198 122.679 90.9351 122.679C91.7505 122.679 92.4515 122.884 93.0381 123.295C93.6248 123.706 94.0739 124.303 94.3854 125.085C94.7003 125.867 94.8577 126.812 94.8577 127.919C94.8577 129.033 94.7003 129.984 94.3854 130.773C94.0739 131.558 93.6248 132.158 93.0381 132.572C92.4548 132.987 91.7538 133.194 90.9351 133.194ZM90.9351 131.638C91.5715 131.638 92.0736 131.325 92.4415 130.698C92.8127 130.068 92.9983 129.142 92.9983 127.919C92.9983 127.11 92.9138 126.431 92.7448 125.881C92.5757 125.33 92.3371 124.916 92.0289 124.638C91.7206 124.356 91.356 124.215 90.9351 124.215C90.3021 124.215 89.8016 124.53 89.4337 125.16C89.0658 125.786 88.8802 126.706 88.8769 127.919C88.8736 128.731 88.9548 129.414 89.1205 129.967C89.2895 130.521 89.5282 130.938 89.8364 131.22C90.1446 131.499 90.5109 131.638 90.9351 131.638ZM96.6095 133V131.668L100.144 128.202C100.482 127.861 100.764 127.558 100.989 127.293C101.215 127.027 101.384 126.771 101.497 126.522C101.609 126.273 101.666 126.008 101.666 125.727C101.666 125.405 101.593 125.13 101.447 124.901C101.301 124.669 101.101 124.49 100.845 124.364C100.59 124.238 100.3 124.175 99.9753 124.175C99.6405 124.175 99.3472 124.245 99.0953 124.384C98.8434 124.52 98.6479 124.714 98.5087 124.966C98.3728 125.218 98.3048 125.518 98.3048 125.866H96.5499C96.5499 125.219 96.6974 124.658 96.9923 124.18C97.2873 123.703 97.6933 123.334 98.2104 123.072C98.7307 122.81 99.3273 122.679 100 122.679C100.683 122.679 101.283 122.807 101.8 123.062C102.317 123.317 102.718 123.667 103.003 124.111C103.291 124.555 103.436 125.062 103.436 125.632C103.436 126.013 103.363 126.388 103.217 126.756C103.071 127.124 102.814 127.531 102.446 127.979C102.082 128.426 101.57 128.968 100.91 129.604L99.155 131.389V131.459H103.59V133H96.6095ZM109.059 133.139C108.343 133.139 107.707 133.017 107.15 132.771C106.596 132.526 106.159 132.185 105.837 131.747C105.516 131.31 105.345 130.804 105.325 130.231H107.195C107.211 130.506 107.302 130.746 107.468 130.952C107.634 131.154 107.854 131.311 108.129 131.424C108.404 131.537 108.713 131.593 109.054 131.593C109.419 131.593 109.742 131.53 110.023 131.404C110.305 131.275 110.526 131.096 110.685 130.867C110.844 130.638 110.922 130.375 110.918 130.077C110.922 129.768 110.842 129.497 110.68 129.261C110.517 129.026 110.282 128.842 109.974 128.71C109.669 128.577 109.301 128.511 108.87 128.511H107.97V127.089H108.87C109.225 127.089 109.535 127.027 109.8 126.905C110.068 126.782 110.279 126.61 110.431 126.388C110.584 126.162 110.658 125.902 110.655 125.607C110.658 125.319 110.594 125.069 110.461 124.857C110.332 124.641 110.148 124.474 109.909 124.354C109.674 124.235 109.397 124.175 109.079 124.175C108.767 124.175 108.479 124.232 108.214 124.344C107.949 124.457 107.735 124.618 107.572 124.827C107.41 125.032 107.324 125.277 107.314 125.562H105.539C105.552 124.992 105.716 124.492 106.031 124.061C106.349 123.627 106.774 123.289 107.304 123.047C107.834 122.802 108.429 122.679 109.089 122.679C109.768 122.679 110.358 122.807 110.859 123.062C111.362 123.314 111.752 123.653 112.027 124.081C112.302 124.509 112.44 124.981 112.44 125.498C112.443 126.071 112.274 126.552 111.933 126.94C111.594 127.327 111.15 127.581 110.6 127.7V127.78C111.316 127.879 111.865 128.144 112.246 128.575C112.63 129.003 112.821 129.535 112.817 130.171C112.817 130.741 112.655 131.252 112.33 131.702C112.009 132.15 111.565 132.501 110.998 132.756C110.434 133.012 109.788 133.139 109.059 133.139Z" fill="#454745"/>
<g id="icon">
<path id="icon_2" d="M131 130.25L127.25 126.5H134.75L131 130.25Z" fill="#454745"/>
</g>
</g>
</g>
<g id="Controls">
<g id="Icon button">
<g id="container">
<g clip-path="url(#clip1_225_4644)">
<g id="state-layer_2">
<g id="Icon">
<path id="icon_3" d="M278 134L272 128L278 122L279.4 123.4L274.8 128L279.4 132.6L278 134Z" fill="#454745"/>
</g>
</g>
</g>
</g>
</g>
<g id="Icon button_2">
<g id="container_2">
<g clip-path="url(#clip2_225_4644)">
<g id="state-layer_3">
<g id="Icon_2">
<path id="icon_4" d="M324.6 128L320 123.4L321.4 122L327.4 128L321.4 134L320 132.6L324.6 128Z" fill="#454745"/>
</g>
</g>
</g>
</g>
</g>
</g>
</g>
<g id="Local Calendar grid">
<g id="Days of the week">
<g id="Sunday">
<path id="Date" d="M37.9917 177.617C37.9453 177.183 37.7498 176.845 37.4051 176.603C37.0637 176.361 36.6196 176.24 36.0727 176.24C35.6882 176.24 35.3585 176.298 35.0834 176.414C34.8083 176.53 34.5978 176.687 34.452 176.886C34.3061 177.085 34.2316 177.312 34.2282 177.567C34.2282 177.78 34.2763 177.964 34.3724 178.119C34.4719 178.275 34.6061 178.408 34.7751 178.517C34.9442 178.623 35.1314 178.713 35.3369 178.786C35.5424 178.858 35.7496 178.92 35.9584 178.969L36.9129 179.208C37.2974 179.298 37.6669 179.419 38.0216 179.571C38.3795 179.723 38.6994 179.916 38.9811 180.148C39.2661 180.38 39.4915 180.66 39.6572 180.988C39.8229 181.316 39.9058 181.701 39.9058 182.141C39.9058 182.738 39.7533 183.263 39.4484 183.717C39.1435 184.168 38.7027 184.521 38.126 184.776C37.5526 185.028 36.8582 185.154 36.0429 185.154C35.2507 185.154 34.563 185.031 33.9797 184.786C33.3997 184.541 32.9456 184.183 32.6175 183.712C32.2926 183.242 32.117 182.668 32.0905 181.992H33.9051C33.9316 182.347 34.041 182.642 34.2332 182.877C34.4255 183.112 34.6757 183.288 34.9839 183.404C35.2955 183.52 35.6435 183.578 36.028 183.578C36.429 183.578 36.7803 183.518 37.0819 183.399C37.3869 183.277 37.6255 183.107 37.7979 182.892C37.9702 182.673 38.058 182.418 38.0613 182.126C38.058 181.861 37.9801 181.643 37.8277 181.47C37.6752 181.295 37.4614 181.149 37.1863 181.033C36.9146 180.913 36.5964 180.807 36.2318 180.714L35.0734 180.416C34.2349 180.201 33.572 179.874 33.0848 179.437C32.6009 178.996 32.3589 178.411 32.3589 177.682C32.3589 177.082 32.5213 176.557 32.8461 176.106C33.1743 175.655 33.6201 175.305 34.1835 175.057C34.747 174.805 35.385 174.679 36.0976 174.679C36.8201 174.679 37.4532 174.805 37.9967 175.057C38.5436 175.305 38.9728 175.652 39.2844 176.096C39.5959 176.537 39.7567 177.044 39.7666 177.617H37.9917Z" fill="black"/>
</g>
<g id="Monday">
<path id="Date_2" d="M78.6605 174.818H80.9176L83.9403 182.196H84.0597L87.0824 174.818H89.3395V185H87.5696V178.005H87.4751L84.6612 184.97H83.3388L80.5249 177.99H80.4304V185H78.6605V174.818Z" fill="black"/>
</g>
<g id="Tuesday">
<path id="Date_3" d="M127.936 176.364V174.818H136.059V176.364H132.912V185H131.083V176.364H127.936Z" fill="black"/>
</g>
<g id="Wednesday">
<path id="Date_4" d="M176.099 185L173.226 174.818H175.209L177.044 182.3H177.138L179.097 174.818H180.902L182.866 182.305H182.955L184.79 174.818H186.773L183.9 185H182.08L180.042 177.856H179.962L177.919 185H176.099Z" fill="black"/>
</g>
<g id="Thursday">
<path id="Date_5" d="M223.936 176.364V174.818H232.059V176.364H228.912V185H227.083V176.364H223.936Z" fill="black"/>
</g>
<g id="Friday">
<path id="Date_6" d="M272.903 185V174.818H279.425V176.364H274.747V179.129H278.978V180.675H274.747V185H272.903Z" fill="black"/>
</g>
<g id="Saturday">
<path id="Date_7" d="M325.992 177.617C325.945 177.183 325.75 176.845 325.405 176.603C325.064 176.361 324.62 176.24 324.073 176.24C323.688 176.24 323.358 176.298 323.083 176.414C322.808 176.53 322.598 176.687 322.452 176.886C322.306 177.085 322.232 177.312 322.228 177.567C322.228 177.78 322.276 177.964 322.372 178.119C322.472 178.275 322.606 178.408 322.775 178.517C322.944 178.623 323.131 178.713 323.337 178.786C323.542 178.858 323.75 178.92 323.958 178.969L324.913 179.208C325.297 179.298 325.667 179.419 326.022 179.571C326.38 179.723 326.699 179.916 326.981 180.148C327.266 180.38 327.492 180.66 327.657 180.988C327.823 181.316 327.906 181.701 327.906 182.141C327.906 182.738 327.753 183.263 327.448 183.717C327.143 184.168 326.703 184.521 326.126 184.776C325.553 185.028 324.858 185.154 324.043 185.154C323.251 185.154 322.563 185.031 321.98 184.786C321.4 184.541 320.946 184.183 320.617 183.712C320.293 183.242 320.117 182.668 320.09 181.992H321.905C321.932 182.347 322.041 182.642 322.233 182.877C322.425 183.112 322.676 183.288 322.984 183.404C323.295 183.52 323.643 183.578 324.028 183.578C324.429 183.578 324.78 183.518 325.082 183.399C325.387 183.277 325.626 183.107 325.798 182.892C325.97 182.673 326.058 182.418 326.061 182.126C326.058 181.861 325.98 181.643 325.828 181.47C325.675 181.295 325.461 181.149 325.186 181.033C324.915 180.913 324.596 180.807 324.232 180.714L323.073 180.416C322.235 180.201 321.572 179.874 321.085 179.437C320.601 178.996 320.359 178.411 320.359 177.682C320.359 177.082 320.521 176.557 320.846 176.106C321.174 175.655 321.62 175.305 322.184 175.057C322.747 174.805 323.385 174.679 324.098 174.679C324.82 174.679 325.453 174.805 325.997 175.057C326.544 175.305 326.973 175.652 327.284 176.096C327.596 176.537 327.757 177.044 327.767 177.617H325.992Z" fill="black"/>
</g>
</g>
<g id="Week 1">
<g id="Tuesday_2">
<g id="container_3">
<g clip-path="url(#clip3_225_4644)">
<g id="state-layer_4">
<path id="Date_8" d="M133.577 222.364V234H132.168V223.841H132.099L129.259 225.727V224.295L132.168 222.364H133.577Z" fill="black"/>
</g>
</g>
</g>
</g>
<g id="Wednesday_2">
<g id="container_4">
<g clip-path="url(#clip4_225_4644)">
<g id="state-layer_5">
<path id="Date_9" d="M176.361 234V232.977L180.202 228.773C180.652 228.28 181.024 227.852 181.315 227.489C181.607 227.121 181.823 226.777 181.963 226.455C182.107 226.129 182.179 225.788 182.179 225.432C182.179 225.023 182.08 224.669 181.884 224.369C181.69 224.07 181.425 223.839 181.088 223.676C180.751 223.513 180.372 223.432 179.952 223.432C179.505 223.432 179.115 223.525 178.781 223.71C178.452 223.892 178.196 224.148 178.014 224.477C177.836 224.807 177.747 225.193 177.747 225.636H176.406C176.406 224.955 176.563 224.356 176.878 223.841C177.192 223.326 177.62 222.924 178.162 222.636C178.707 222.348 179.319 222.205 179.997 222.205C180.679 222.205 181.283 222.348 181.81 222.636C182.336 222.924 182.749 223.312 183.048 223.801C183.348 224.29 183.497 224.833 183.497 225.432C183.497 225.86 183.42 226.278 183.264 226.688C183.113 227.093 182.848 227.545 182.469 228.045C182.094 228.542 181.573 229.148 180.906 229.864L178.293 232.659V232.75H183.702V234H176.361Z" fill="black"/>
</g>
</g>
</g>
</g>
<g id="Thursday_2">
<g id="container_5">
<g clip-path="url(#clip5_225_4644)">
<g id="state-layer_6">
<path id="Date_10" d="M228.043 234.159C227.293 234.159 226.624 234.03 226.037 233.773C225.454 233.515 224.99 233.157 224.645 232.699C224.304 232.237 224.118 231.701 224.088 231.091H225.52C225.55 231.466 225.679 231.79 225.906 232.062C226.134 232.331 226.431 232.54 226.798 232.688C227.166 232.835 227.573 232.909 228.02 232.909C228.52 232.909 228.963 232.822 229.349 232.648C229.736 232.473 230.039 232.231 230.259 231.92C230.478 231.61 230.588 231.25 230.588 230.841C230.588 230.413 230.482 230.036 230.27 229.71C230.058 229.381 229.747 229.123 229.338 228.938C228.929 228.752 228.429 228.659 227.838 228.659H226.906V227.409H227.838C228.3 227.409 228.705 227.326 229.054 227.159C229.406 226.992 229.681 226.758 229.878 226.455C230.079 226.152 230.179 225.795 230.179 225.386C230.179 224.992 230.092 224.65 229.918 224.358C229.743 224.066 229.497 223.839 229.179 223.676C228.865 223.513 228.493 223.432 228.065 223.432C227.664 223.432 227.285 223.506 226.929 223.653C226.577 223.797 226.289 224.008 226.065 224.284C225.842 224.557 225.721 224.886 225.702 225.273H224.338C224.361 224.663 224.545 224.129 224.889 223.67C225.234 223.208 225.685 222.848 226.241 222.591C226.802 222.333 227.418 222.205 228.088 222.205C228.808 222.205 229.425 222.35 229.94 222.642C230.455 222.93 230.851 223.311 231.128 223.784C231.404 224.258 231.543 224.769 231.543 225.318C231.543 225.973 231.37 226.532 231.026 226.994C230.685 227.456 230.221 227.777 229.634 227.955V228.045C230.368 228.167 230.942 228.479 231.355 228.983C231.768 229.483 231.974 230.102 231.974 230.841C231.974 231.473 231.802 232.042 231.457 232.545C231.116 233.045 230.651 233.439 230.06 233.727C229.469 234.015 228.796 234.159 228.043 234.159Z" fill="black"/>
</g>
</g>
</g>
</g>
<g id="Friday_2">
<g id="container_6">
<g clip-path="url(#clip6_225_4644)">
<g id="state-layer_7">
<path id="Date_11" d="M271.799 231.614V230.455L276.913 222.364H277.754V224.159H277.185L273.322 230.273V230.364H280.208V231.614H271.799ZM277.276 234V231.261V230.722V222.364H278.617V234H277.276Z" fill="black"/>
</g>
</g>
</g>
</g>
<g id="Saturday_2">
<g id="container_7">
<g clip-path="url(#clip7_225_4644)">
<g id="state-layer_8">
<path id="Date_12" d="M323.974 234.159C323.307 234.159 322.707 234.027 322.173 233.761C321.638 233.496 321.21 233.133 320.888 232.67C320.567 232.208 320.39 231.682 320.36 231.091H321.724C321.777 231.617 322.015 232.053 322.44 232.398C322.868 232.739 323.379 232.909 323.974 232.909C324.451 232.909 324.875 232.797 325.246 232.574C325.621 232.35 325.915 232.044 326.127 231.653C326.343 231.259 326.451 230.814 326.451 230.318C326.451 229.811 326.339 229.358 326.116 228.96C325.896 228.559 325.593 228.242 325.207 228.011C324.82 227.78 324.379 227.663 323.883 227.659C323.527 227.655 323.161 227.71 322.786 227.824C322.411 227.934 322.103 228.076 321.86 228.25L320.542 228.091L321.246 222.364H327.292V223.614H322.428L322.019 227.045H322.087C322.326 226.856 322.625 226.699 322.985 226.574C323.345 226.449 323.72 226.386 324.11 226.386C324.822 226.386 325.457 226.557 326.013 226.898C326.574 227.235 327.013 227.697 327.332 228.284C327.654 228.871 327.815 229.542 327.815 230.295C327.815 231.038 327.648 231.701 327.315 232.284C326.985 232.864 326.531 233.322 325.951 233.659C325.371 233.992 324.712 234.159 323.974 234.159Z" fill="#1F3701"/>
</g>
</g>
<rect x="304.5" y="208.5" width="39" height="39" rx="19.5" stroke="#7BF179"/>
</g>
</g>
</g>
<g id="Week 2">
<g id="Sunday_2">
<g id="container_8">
<g clip-path="url(#clip8_225_4644)">
<g id="state-layer_9">
<path id="Date_13" d="M36.076 282.159C35.5987 282.152 35.1214 282.061 34.6442 281.886C34.1669 281.712 33.7313 281.419 33.3374 281.006C32.9434 280.589 32.6271 280.027 32.3885 279.318C32.1499 278.606 32.0305 277.712 32.0305 276.636C32.0305 275.606 32.1271 274.693 32.3203 273.898C32.5135 273.098 32.7938 272.426 33.1612 271.881C33.5286 271.331 33.9718 270.915 34.4908 270.631C35.0135 270.347 35.6025 270.205 36.2578 270.205C36.9093 270.205 37.4889 270.335 37.9964 270.597C38.5078 270.854 38.9245 271.214 39.2464 271.676C39.5684 272.138 39.7768 272.67 39.8714 273.273H38.4851C38.3563 272.75 38.1063 272.316 37.7351 271.972C37.3639 271.627 36.8714 271.455 36.2578 271.455C35.3563 271.455 34.6461 271.847 34.1271 272.631C33.612 273.415 33.3525 274.515 33.3487 275.932H33.4396C33.6518 275.61 33.9036 275.335 34.1953 275.108C34.4908 274.877 34.8165 274.699 35.1726 274.574C35.5286 274.449 35.9055 274.386 36.3033 274.386C36.9699 274.386 37.5798 274.553 38.1328 274.886C38.6858 275.216 39.129 275.672 39.4624 276.256C39.7957 276.835 39.9624 277.5 39.9624 278.25C39.9624 278.97 39.8014 279.629 39.4794 280.227C39.1574 280.822 38.7048 281.295 38.1214 281.648C37.5419 281.996 36.8601 282.167 36.076 282.159ZM36.076 280.909C36.5533 280.909 36.9813 280.79 37.3601 280.551C37.7427 280.312 38.0438 279.992 38.2635 279.591C38.487 279.189 38.5987 278.742 38.5987 278.25C38.5987 277.769 38.4908 277.331 38.2749 276.938C38.0627 276.54 37.7692 276.223 37.3942 275.989C37.023 275.754 36.5987 275.636 36.1214 275.636C35.7616 275.636 35.4264 275.708 35.1158 275.852C34.8052 275.992 34.5324 276.186 34.2976 276.432C34.0665 276.678 33.8847 276.96 33.7521 277.278C33.6196 277.593 33.5533 277.924 33.5533 278.273C33.5533 278.735 33.6612 279.167 33.8771 279.568C34.0968 279.97 34.3961 280.294 34.7749 280.54C35.1574 280.786 35.5911 280.909 36.076 280.909Z" fill="black"/>
</g>
</g>
</g>
</g>
<g id="Monday_2">
<g id="container_9">
<g clip-path="url(#clip9_225_4644)">
<g id="state-layer_10">
<path id="Date_14" d="M80.9979 282L86.2024 271.705V271.614H80.2024V270.364H87.657V271.682L82.4751 282H80.9979Z" fill="black"/>
</g>
</g>
</g>
</g>
<g id="Tuesday_3">
<g id="container_10">
<g clip-path="url(#clip10_225_4644)">
<g id="state-layer_11">
<path id="Date_15" d="M132.002 282.159C131.222 282.159 130.532 282.021 129.934 281.744C129.339 281.464 128.875 281.08 128.542 280.591C128.209 280.098 128.044 279.538 128.048 278.909C128.044 278.417 128.14 277.962 128.337 277.545C128.534 277.125 128.803 276.775 129.144 276.494C129.489 276.21 129.873 276.03 130.298 275.955V275.886C129.741 275.742 129.298 275.43 128.968 274.949C128.638 274.464 128.476 273.913 128.479 273.295C128.476 272.705 128.625 272.176 128.928 271.71C129.231 271.244 129.648 270.877 130.178 270.608C130.712 270.339 131.32 270.205 132.002 270.205C132.676 270.205 133.279 270.339 133.809 270.608C134.339 270.877 134.756 271.244 135.059 271.71C135.366 272.176 135.521 272.705 135.525 273.295C135.521 273.913 135.353 274.464 135.019 274.949C134.69 275.43 134.252 275.742 133.707 275.886V275.955C134.127 276.03 134.506 276.21 134.843 276.494C135.18 276.775 135.449 277.125 135.65 277.545C135.851 277.962 135.953 278.417 135.957 278.909C135.953 279.538 135.782 280.098 135.445 280.591C135.112 281.08 134.648 281.464 134.053 281.744C133.462 282.021 132.779 282.159 132.002 282.159ZM132.002 280.909C132.529 280.909 132.983 280.824 133.366 280.653C133.748 280.483 134.044 280.242 134.252 279.932C134.46 279.621 134.567 279.258 134.57 278.841C134.567 278.402 134.453 278.013 134.229 277.676C134.006 277.339 133.701 277.074 133.315 276.881C132.932 276.687 132.495 276.591 132.002 276.591C131.506 276.591 131.063 276.687 130.673 276.881C130.286 277.074 129.981 277.339 129.758 277.676C129.538 278.013 129.43 278.402 129.434 278.841C129.43 279.258 129.531 279.621 129.735 279.932C129.943 280.242 130.241 280.483 130.627 280.653C131.013 280.824 131.472 280.909 132.002 280.909ZM132.002 275.386C132.419 275.386 132.788 275.303 133.11 275.136C133.436 274.97 133.692 274.737 133.877 274.438C134.063 274.138 134.157 273.788 134.161 273.386C134.157 272.992 134.065 272.65 133.883 272.358C133.701 272.062 133.449 271.835 133.127 271.676C132.805 271.513 132.43 271.432 132.002 271.432C131.567 271.432 131.186 271.513 130.86 271.676C130.534 271.835 130.282 272.062 130.104 272.358C129.926 272.65 129.839 272.992 129.843 273.386C129.839 273.788 129.928 274.138 130.11 274.438C130.296 274.737 130.551 274.97 130.877 275.136C131.203 275.303 131.578 275.386 132.002 275.386Z" fill="black"/>
</g>
</g>
</g>
</g>
<g id="Wednesday_3">
<g id="container_11">
<g clip-path="url(#clip11_225_4644)">
<g id="state-layer_12">
<path id="Date_16" d="M179.917 270.205C180.394 270.208 180.871 270.299 181.349 270.477C181.826 270.655 182.262 270.951 182.656 271.364C183.049 271.773 183.366 272.331 183.604 273.04C183.843 273.748 183.962 274.636 183.962 275.705C183.962 276.739 183.864 277.657 183.667 278.46C183.474 279.259 183.193 279.934 182.826 280.483C182.462 281.032 182.019 281.449 181.496 281.733C180.978 282.017 180.39 282.159 179.735 282.159C179.084 282.159 178.502 282.03 177.991 281.773C177.483 281.511 177.067 281.15 176.741 280.688C176.419 280.222 176.212 279.682 176.121 279.068H177.508C177.633 279.602 177.881 280.044 178.252 280.392C178.627 280.737 179.121 280.909 179.735 280.909C180.633 280.909 181.341 280.517 181.86 279.733C182.383 278.949 182.644 277.841 182.644 276.409H182.553C182.341 276.727 182.089 277.002 181.798 277.233C181.506 277.464 181.182 277.642 180.826 277.767C180.47 277.892 180.091 277.955 179.69 277.955C179.023 277.955 178.411 277.79 177.854 277.46C177.301 277.127 176.858 276.67 176.525 276.091C176.195 275.508 176.031 274.841 176.031 274.091C176.031 273.379 176.19 272.727 176.508 272.136C176.83 271.542 177.281 271.068 177.86 270.716C178.443 270.364 179.129 270.193 179.917 270.205ZM179.917 271.455C179.44 271.455 179.01 271.574 178.627 271.812C178.248 272.047 177.947 272.366 177.724 272.767C177.504 273.165 177.394 273.606 177.394 274.091C177.394 274.576 177.5 275.017 177.712 275.415C177.928 275.809 178.222 276.123 178.593 276.358C178.968 276.589 179.394 276.705 179.871 276.705C180.231 276.705 180.567 276.634 180.877 276.494C181.188 276.35 181.459 276.155 181.69 275.909C181.924 275.659 182.108 275.377 182.241 275.062C182.373 274.744 182.44 274.413 182.44 274.068C182.44 273.614 182.33 273.187 182.11 272.79C181.894 272.392 181.595 272.07 181.212 271.824C180.834 271.578 180.402 271.455 179.917 271.455Z" fill="black"/>
</g>
</g>
</g>
</g>
<g id="Thursday_3">
<g id="container_12">
<g clip-path="url(#clip12_225_4644)">
<g id="state-layer_13">
<path id="Date_17" d="M224.327 270.364V282H222.918V271.841H222.849L220.009 273.727V272.295L222.918 270.364H224.327ZM231.969 282.159C231.113 282.159 230.384 281.926 229.781 281.46C229.179 280.991 228.719 280.311 228.401 279.42C228.082 278.527 227.923 277.447 227.923 276.182C227.923 274.924 228.082 273.85 228.401 272.96C228.723 272.066 229.185 271.384 229.787 270.915C230.393 270.441 231.12 270.205 231.969 270.205C232.817 270.205 233.543 270.441 234.145 270.915C234.751 271.384 235.213 272.066 235.531 272.96C235.853 273.85 236.014 274.924 236.014 276.182C236.014 277.447 235.855 278.527 235.537 279.42C235.219 280.311 234.759 280.991 234.156 281.46C233.554 281.926 232.825 282.159 231.969 282.159ZM231.969 280.909C232.817 280.909 233.476 280.5 233.946 279.682C234.416 278.864 234.651 277.697 234.651 276.182C234.651 275.174 234.543 274.316 234.327 273.608C234.115 272.9 233.808 272.36 233.406 271.989C233.009 271.617 232.529 271.432 231.969 271.432C231.128 271.432 230.471 271.847 229.997 272.676C229.524 273.502 229.287 274.67 229.287 276.182C229.287 277.189 229.393 278.045 229.605 278.75C229.817 279.455 230.122 279.991 230.52 280.358C230.921 280.725 231.404 280.909 231.969 280.909Z" fill="black"/>
</g>
</g>
</g>
</g>
<g id="Friday_3">
<g id="container_13">
<g clip-path="url(#clip13_225_4644)">
<g id="state-layer_14">
<path id="Date_18" d="M273.608 270.364V282H272.199V271.841H272.131L269.29 273.727V272.295L272.199 270.364H273.608ZM281.545 270.364V282H280.136V271.841H280.068L277.227 273.727V272.295L280.136 270.364H281.545Z" fill="black"/>
</g>
</g>
</g>
</g>
<g id="Saturday_3">
<g id="container_14">
<g clip-path="url(#clip14_225_4644)">
<g id="state-layer_15">
<path id="Date_19" d="M320.483 270.364V282H319.074V271.841H319.006L316.165 273.727V272.295L319.074 270.364H320.483ZM324.33 282V280.977L328.17 276.773C328.621 276.28 328.992 275.852 329.284 275.489C329.576 275.121 329.792 274.777 329.932 274.455C330.076 274.129 330.148 273.788 330.148 273.432C330.148 273.023 330.049 272.669 329.852 272.369C329.659 272.07 329.394 271.839 329.057 271.676C328.72 271.513 328.341 271.432 327.92 271.432C327.473 271.432 327.083 271.525 326.75 271.71C326.42 271.892 326.165 272.148 325.983 272.477C325.805 272.807 325.716 273.193 325.716 273.636H324.375C324.375 272.955 324.532 272.356 324.847 271.841C325.161 271.326 325.589 270.924 326.131 270.636C326.676 270.348 327.288 270.205 327.966 270.205C328.648 270.205 329.252 270.348 329.778 270.636C330.305 270.924 330.718 271.312 331.017 271.801C331.316 272.29 331.466 272.833 331.466 273.432C331.466 273.86 331.388 274.278 331.233 274.688C331.081 275.093 330.816 275.545 330.438 276.045C330.062 276.542 329.542 277.148 328.875 277.864L326.261 280.659V280.75H331.67V282H324.33Z" fill="black"/>
</g>
</g>
</g>
</g>
</g>
<g id="Week 3">
<g id="Sunday_3">
<g id="container_15">
<g clip-path="url(#clip15_225_4644)">
<g id="state-layer_16">
<path id="Date_20" d="M32.233 318.364V330H30.8239V319.841H30.7557L27.9148 321.727V320.295L30.8239 318.364H32.233ZM40.0114 330.159C39.2614 330.159 38.5928 330.03 38.0057 329.773C37.4223 329.515 36.9583 329.157 36.6136 328.699C36.2727 328.237 36.0871 327.701 36.0568 327.091H37.4886C37.5189 327.466 37.6477 327.79 37.875 328.062C38.1023 328.331 38.3996 328.54 38.767 328.688C39.1345 328.835 39.5417 328.909 39.9886 328.909C40.4886 328.909 40.9318 328.822 41.3182 328.648C41.7045 328.473 42.0076 328.231 42.2273 327.92C42.447 327.61 42.5568 327.25 42.5568 326.841C42.5568 326.413 42.4508 326.036 42.2386 325.71C42.0265 325.381 41.7159 325.123 41.3068 324.938C40.8977 324.752 40.3977 324.659 39.8068 324.659H38.875V323.409H39.8068C40.2689 323.409 40.6742 323.326 41.0227 323.159C41.375 322.992 41.6496 322.758 41.8466 322.455C42.0473 322.152 42.1477 321.795 42.1477 321.386C42.1477 320.992 42.0606 320.65 41.8864 320.358C41.7121 320.066 41.4659 319.839 41.1477 319.676C40.8333 319.513 40.4621 319.432 40.0341 319.432C39.6326 319.432 39.2538 319.506 38.8977 319.653C38.5455 319.797 38.2576 320.008 38.0341 320.284C37.8106 320.557 37.6894 320.886 37.6705 321.273H36.3068C36.3295 320.663 36.5133 320.129 36.858 319.67C37.2027 319.208 37.6534 318.848 38.2102 318.591C38.7708 318.333 39.3864 318.205 40.0568 318.205C40.7765 318.205 41.3939 318.35 41.9091 318.642C42.4242 318.93 42.8201 319.311 43.0966 319.784C43.3731 320.258 43.5114 320.769 43.5114 321.318C43.5114 321.973 43.339 322.532 42.9943 322.994C42.6534 323.456 42.1894 323.777 41.6023 323.955V324.045C42.3371 324.167 42.911 324.479 43.3239 324.983C43.7367 325.483 43.9432 326.102 43.9432 326.841C43.9432 327.473 43.7708 328.042 43.4261 328.545C43.0852 329.045 42.6193 329.439 42.0284 329.727C41.4375 330.015 40.7652 330.159 40.0114 330.159Z" fill="black"/>
</g>
</g>
</g>
</g>
<g id="Monday_3">
<g id="container_16">
<g clip-path="url(#clip16_225_4644)">
<g id="state-layer_17">
<path id="Date_21" d="M80.1939 318.364V330H78.7848V319.841H78.7166L75.8757 321.727V320.295L78.7848 318.364H80.1939ZM83.7678 327.614V326.455L88.8814 318.364H89.7223V320.159H89.1541L85.2905 326.273V326.364H92.1768V327.614H83.7678ZM89.245 330V327.261V326.722V318.364H90.5859V330H89.245Z" fill="black"/>
</g>
</g>
</g>
</g>
<g id="Tuesday_4">
<g id="container_17">
<g clip-path="url(#clip17_225_4644)">
<g id="state-layer_18">
<path id="Date_22" d="M128.46 318.364V330H127.05V319.841H126.982L124.141 321.727V320.295L127.05 318.364H128.46ZM135.942 330.159C135.276 330.159 134.675 330.027 134.141 329.761C133.607 329.496 133.179 329.133 132.857 328.67C132.535 328.208 132.359 327.682 132.329 327.091H133.692C133.746 327.617 133.984 328.053 134.408 328.398C134.836 328.739 135.348 328.909 135.942 328.909C136.42 328.909 136.844 328.797 137.215 328.574C137.59 328.35 137.884 328.044 138.096 327.653C138.312 327.259 138.42 326.814 138.42 326.318C138.42 325.811 138.308 325.358 138.085 324.96C137.865 324.559 137.562 324.242 137.175 324.011C136.789 323.78 136.348 323.663 135.852 323.659C135.496 323.655 135.13 323.71 134.755 323.824C134.38 323.934 134.071 324.076 133.829 324.25L132.511 324.091L133.215 318.364H139.261V319.614H134.397L133.988 323.045H134.056C134.295 322.856 134.594 322.699 134.954 322.574C135.314 322.449 135.689 322.386 136.079 322.386C136.791 322.386 137.425 322.557 137.982 322.898C138.543 323.235 138.982 323.697 139.3 324.284C139.622 324.871 139.783 325.542 139.783 326.295C139.783 327.038 139.617 327.701 139.283 328.284C138.954 328.864 138.499 329.322 137.92 329.659C137.34 329.992 136.681 330.159 135.942 330.159Z" fill="black"/>
</g>
</g>
</g>
</g>
<g id="Wednesday_4">
<g id="container_18">
<g clip-path="url(#clip18_225_4644)">
<g id="state-layer_19">
<path id="Date_23" d="M176.335 318.364V330H174.925V319.841H174.857L172.016 321.727V320.295L174.925 318.364H176.335ZM184.045 330.159C183.567 330.152 183.09 330.061 182.613 329.886C182.136 329.712 181.7 329.419 181.306 329.006C180.912 328.589 180.596 328.027 180.357 327.318C180.119 326.606 179.999 325.712 179.999 324.636C179.999 323.606 180.096 322.693 180.289 321.898C180.482 321.098 180.763 320.426 181.13 319.881C181.497 319.331 181.941 318.915 182.46 318.631C182.982 318.347 183.571 318.205 184.227 318.205C184.878 318.205 185.458 318.335 185.965 318.597C186.477 318.854 186.893 319.214 187.215 319.676C187.537 320.138 187.746 320.67 187.84 321.273H186.454C186.325 320.75 186.075 320.316 185.704 319.972C185.333 319.627 184.84 319.455 184.227 319.455C183.325 319.455 182.615 319.847 182.096 320.631C181.581 321.415 181.321 322.515 181.317 323.932H181.408C181.621 323.61 181.872 323.335 182.164 323.108C182.46 322.877 182.785 322.699 183.141 322.574C183.497 322.449 183.874 322.386 184.272 322.386C184.939 322.386 185.549 322.553 186.102 322.886C186.655 323.216 187.098 323.672 187.431 324.256C187.764 324.835 187.931 325.5 187.931 326.25C187.931 326.97 187.77 327.629 187.448 328.227C187.126 328.822 186.674 329.295 186.09 329.648C185.511 329.996 184.829 330.167 184.045 330.159ZM184.045 328.909C184.522 328.909 184.95 328.79 185.329 328.551C185.711 328.312 186.013 327.992 186.232 327.591C186.456 327.189 186.567 326.742 186.567 326.25C186.567 325.769 186.46 325.331 186.244 324.938C186.031 324.54 185.738 324.223 185.363 323.989C184.992 323.754 184.567 323.636 184.09 323.636C183.73 323.636 183.395 323.708 183.085 323.852C182.774 323.992 182.501 324.186 182.266 324.432C182.035 324.678 181.853 324.96 181.721 325.278C181.588 325.593 181.522 325.924 181.522 326.273C181.522 326.735 181.63 327.167 181.846 327.568C182.066 327.97 182.365 328.294 182.744 328.54C183.126 328.786 183.56 328.909 184.045 328.909Z" fill="black"/>
</g>
</g>
</g>
</g>
<g id="Thursday_4">
<g id="container_19">
<g clip-path="url(#clip19_225_4644)">
<rect x="208" y="304" width="40" height="40" rx="20" fill="#7BF179"/>
<g id="state-layer_20">
<path id="Date_24" d="M224.756 318.364V330H223.347V319.841H223.279L220.438 321.727V320.295L223.347 318.364H224.756ZM228.967 330L234.171 319.705V319.614H228.171V318.364H235.626V319.682L230.444 330H228.967Z" fill="#1F3701"/>
</g>
</g>
</g>
</g>
<g id="Friday_4">
<g id="container_20">
<g clip-path="url(#clip20_225_4644)">
<g id="state-layer_21">
<path id="Date_25" d="M272.397 318.364V330H270.988V319.841H270.92L268.079 321.727V320.295L270.988 318.364H272.397ZM279.971 330.159C279.191 330.159 278.501 330.021 277.903 329.744C277.308 329.464 276.844 329.08 276.511 328.591C276.177 328.098 276.013 327.538 276.016 326.909C276.013 326.417 276.109 325.962 276.306 325.545C276.503 325.125 276.772 324.775 277.113 324.494C277.458 324.21 277.842 324.03 278.266 323.955V323.886C277.71 323.742 277.266 323.43 276.937 322.949C276.607 322.464 276.444 321.913 276.448 321.295C276.444 320.705 276.594 320.176 276.897 319.71C277.2 319.244 277.617 318.877 278.147 318.608C278.681 318.339 279.289 318.205 279.971 318.205C280.645 318.205 281.247 318.339 281.778 318.608C282.308 318.877 282.725 319.244 283.028 319.71C283.335 320.176 283.49 320.705 283.494 321.295C283.49 321.913 283.321 322.464 282.988 322.949C282.658 323.43 282.221 323.742 281.675 323.886V323.955C282.096 324.03 282.475 324.21 282.812 324.494C283.149 324.775 283.418 325.125 283.619 325.545C283.819 325.962 283.922 326.417 283.925 326.909C283.922 327.538 283.751 328.098 283.414 328.591C283.081 329.08 282.617 329.464 282.022 329.744C281.431 330.021 280.747 330.159 279.971 330.159ZM279.971 328.909C280.497 328.909 280.952 328.824 281.335 328.653C281.717 328.483 282.013 328.242 282.221 327.932C282.429 327.621 282.535 327.258 282.539 326.841C282.535 326.402 282.422 326.013 282.198 325.676C281.975 325.339 281.67 325.074 281.283 324.881C280.901 324.687 280.463 324.591 279.971 324.591C279.475 324.591 279.031 324.687 278.641 324.881C278.255 325.074 277.95 325.339 277.727 325.676C277.507 326.013 277.399 326.402 277.403 326.841C277.399 327.258 277.499 327.621 277.704 327.932C277.912 328.242 278.21 328.483 278.596 328.653C278.982 328.824 279.441 328.909 279.971 328.909ZM279.971 323.386C280.388 323.386 280.757 323.303 281.079 323.136C281.405 322.97 281.66 322.737 281.846 322.438C282.031 322.138 282.126 321.788 282.13 321.386C282.126 320.992 282.033 320.65 281.852 320.358C281.67 320.062 281.418 319.835 281.096 319.676C280.774 319.513 280.399 319.432 279.971 319.432C279.535 319.432 279.155 319.513 278.829 319.676C278.503 319.835 278.251 320.062 278.073 320.358C277.895 320.65 277.808 320.992 277.812 321.386C277.808 321.788 277.897 322.138 278.079 322.438C278.264 322.737 278.52 322.97 278.846 323.136C279.172 323.303 279.547 323.386 279.971 323.386Z" fill="black"/>
</g>
</g>
</g>
</g>
<g id="Saturday_4">
<g id="container_21">
<g clip-path="url(#clip21_225_4644)">
<g id="state-layer_22">
<path id="Date_26" d="M320.335 318.364V330H318.925V319.841H318.857L316.016 321.727V320.295L318.925 318.364H320.335ZM327.886 318.205C328.363 318.208 328.84 318.299 329.317 318.477C329.795 318.655 330.23 318.951 330.624 319.364C331.018 319.773 331.335 320.331 331.573 321.04C331.812 321.748 331.931 322.636 331.931 323.705C331.931 324.739 331.833 325.657 331.636 326.46C331.442 327.259 331.162 327.934 330.795 328.483C330.431 329.032 329.988 329.449 329.465 329.733C328.946 330.017 328.359 330.159 327.704 330.159C327.052 330.159 326.471 330.03 325.96 329.773C325.452 329.511 325.035 329.15 324.71 328.688C324.388 328.222 324.181 327.682 324.09 327.068H325.477C325.602 327.602 325.85 328.044 326.221 328.392C326.596 328.737 327.09 328.909 327.704 328.909C328.602 328.909 329.31 328.517 329.829 327.733C330.352 326.949 330.613 325.841 330.613 324.409H330.522C330.31 324.727 330.058 325.002 329.766 325.233C329.475 325.464 329.151 325.642 328.795 325.767C328.439 325.892 328.06 325.955 327.658 325.955C326.992 325.955 326.38 325.79 325.823 325.46C325.27 325.127 324.827 324.67 324.494 324.091C324.164 323.508 323.999 322.841 323.999 322.091C323.999 321.379 324.158 320.727 324.477 320.136C324.799 319.542 325.249 319.068 325.829 318.716C326.412 318.364 327.098 318.193 327.886 318.205ZM327.886 319.455C327.408 319.455 326.978 319.574 326.596 319.812C326.217 320.047 325.916 320.366 325.692 320.767C325.473 321.165 325.363 321.606 325.363 322.091C325.363 322.576 325.469 323.017 325.681 323.415C325.897 323.809 326.191 324.123 326.562 324.358C326.937 324.589 327.363 324.705 327.84 324.705C328.2 324.705 328.535 324.634 328.846 324.494C329.156 324.35 329.427 324.155 329.658 323.909C329.893 323.659 330.077 323.377 330.21 323.062C330.342 322.744 330.408 322.413 330.408 322.068C330.408 321.614 330.299 321.187 330.079 320.79C329.863 320.392 329.564 320.07 329.181 319.824C328.802 319.578 328.371 319.455 327.886 319.455Z" fill="black"/>
</g>
</g>
</g>
</g>
</g>
<g id="Week 4">
<g id="Sunday_4">
<g id="container_22">
<g clip-path="url(#clip22_225_4644)">
<g id="state-layer_23">
<path id="Date_27" d="M27.1108 378V376.977L30.9517 372.773C31.4025 372.28 31.7737 371.852 32.0653 371.489C32.357 371.121 32.5729 370.777 32.7131 370.455C32.857 370.129 32.929 369.788 32.929 369.432C32.929 369.023 32.8305 368.669 32.6335 368.369C32.4403 368.07 32.1752 367.839 31.8381 367.676C31.5009 367.513 31.1222 367.432 30.7017 367.432C30.2547 367.432 29.8646 367.525 29.5312 367.71C29.2017 367.892 28.946 368.148 28.7642 368.477C28.5862 368.807 28.4972 369.193 28.4972 369.636H27.1562C27.1562 368.955 27.3134 368.356 27.6278 367.841C27.9422 367.326 28.3703 366.924 28.9119 366.636C29.4574 366.348 30.0691 366.205 30.7472 366.205C31.429 366.205 32.0331 366.348 32.5597 366.636C33.0862 366.924 33.4991 367.312 33.7983 367.801C34.0975 368.29 34.2472 368.833 34.2472 369.432C34.2472 369.86 34.1695 370.278 34.0142 370.688C33.8627 371.093 33.5975 371.545 33.2188 372.045C32.8438 372.542 32.3229 373.148 31.6562 373.864L29.0426 376.659V376.75H34.4517V378H27.1108ZM41.0938 378.159C40.2377 378.159 39.5085 377.926 38.9062 377.46C38.304 376.991 37.8438 376.311 37.5256 375.42C37.2074 374.527 37.0483 373.447 37.0483 372.182C37.0483 370.924 37.2074 369.85 37.5256 368.96C37.8475 368.066 38.3097 367.384 38.9119 366.915C39.518 366.441 40.2453 366.205 41.0938 366.205C41.9422 366.205 42.6676 366.441 43.2699 366.915C43.8759 367.384 44.3381 368.066 44.6562 368.96C44.9782 369.85 45.1392 370.924 45.1392 372.182C45.1392 373.447 44.9801 374.527 44.6619 375.42C44.3438 376.311 43.8835 376.991 43.2812 377.46C42.679 377.926 41.9498 378.159 41.0938 378.159ZM41.0938 376.909C41.9422 376.909 42.6013 376.5 43.071 375.682C43.5407 374.864 43.7756 373.697 43.7756 372.182C43.7756 371.174 43.6676 370.316 43.4517 369.608C43.2396 368.9 42.9328 368.36 42.5312 367.989C42.1335 367.617 41.6544 367.432 41.0938 367.432C40.2528 367.432 39.5956 367.847 39.1222 368.676C38.6487 369.502 38.4119 370.67 38.4119 372.182C38.4119 373.189 38.518 374.045 38.7301 374.75C38.9422 375.455 39.2472 375.991 39.6449 376.358C40.0464 376.725 40.5294 376.909 41.0938 376.909Z" fill="black"/>
</g>
</g>
</g>
</g>
<g id="Monday_4">
<g id="container_23">
<g clip-path="url(#clip23_225_4644)">
<g id="state-layer_24">
<path id="Date_28" d="M76.392 378V376.977L80.233 372.773C80.6837 372.28 81.0549 371.852 81.3466 371.489C81.6383 371.121 81.8542 370.777 81.9943 370.455C82.1383 370.129 82.2102 369.788 82.2102 369.432C82.2102 369.023 82.1117 368.669 81.9148 368.369C81.7216 368.07 81.4564 367.839 81.1193 367.676C80.7822 367.513 80.4034 367.432 79.983 367.432C79.536 367.432 79.1458 367.525 78.8125 367.71C78.483 367.892 78.2273 368.148 78.0455 368.477C77.8674 368.807 77.7784 369.193 77.7784 369.636H76.4375C76.4375 368.955 76.5947 368.356 76.9091 367.841C77.2235 367.326 77.6515 366.924 78.1932 366.636C78.7386 366.348 79.3504 366.205 80.0284 366.205C80.7102 366.205 81.3144 366.348 81.8409 366.636C82.3674 366.924 82.7803 367.312 83.0795 367.801C83.3788 368.29 83.5284 368.833 83.5284 369.432C83.5284 369.86 83.4508 370.278 83.2955 370.688C83.1439 371.093 82.8788 371.545 82.5 372.045C82.125 372.542 81.6042 373.148 80.9375 373.864L78.3239 376.659V376.75H83.733V378H76.392ZM90.6705 366.364V378H89.2614V367.841H89.1932L86.3523 369.727V368.295L89.2614 366.364H90.6705Z" fill="black"/>
</g>
</g>
</g>
</g>
<g id="Tuesday_5">
<g id="container_24">
<g clip-path="url(#clip24_225_4644)">
<g id="state-layer_25">
<path id="Date_29" d="M123.267 378V376.977L127.108 372.773C127.559 372.28 127.93 371.852 128.222 371.489C128.513 371.121 128.729 370.777 128.869 370.455C129.013 370.129 129.085 369.788 129.085 369.432C129.085 369.023 128.987 368.669 128.79 368.369C128.597 368.07 128.331 367.839 127.994 367.676C127.657 367.513 127.278 367.432 126.858 367.432C126.411 367.432 126.021 367.525 125.688 367.71C125.358 367.892 125.102 368.148 124.92 368.477C124.742 368.807 124.653 369.193 124.653 369.636H123.312C123.312 368.955 123.47 368.356 123.784 367.841C124.098 367.326 124.527 366.924 125.068 366.636C125.614 366.348 126.225 366.205 126.903 366.205C127.585 366.205 128.189 366.348 128.716 366.636C129.242 366.924 129.655 367.312 129.955 367.801C130.254 368.29 130.403 368.833 130.403 369.432C130.403 369.86 130.326 370.278 130.17 370.688C130.019 371.093 129.754 371.545 129.375 372.045C129 372.542 128.479 373.148 127.812 373.864L125.199 376.659V376.75H130.608V378H123.267ZM133.455 378V376.977L137.295 372.773C137.746 372.28 138.117 371.852 138.409 371.489C138.701 371.121 138.917 370.777 139.057 370.455C139.201 370.129 139.273 369.788 139.273 369.432C139.273 369.023 139.174 368.669 138.977 368.369C138.784 368.07 138.519 367.839 138.182 367.676C137.845 367.513 137.466 367.432 137.045 367.432C136.598 367.432 136.208 367.525 135.875 367.71C135.545 367.892 135.29 368.148 135.108 368.477C134.93 368.807 134.841 369.193 134.841 369.636H133.5C133.5 368.955 133.657 368.356 133.972 367.841C134.286 367.326 134.714 366.924 135.256 366.636C135.801 366.348 136.413 366.205 137.091 366.205C137.773 366.205 138.377 366.348 138.903 366.636C139.43 366.924 139.843 367.312 140.142 367.801C140.441 368.29 140.591 368.833 140.591 369.432C140.591 369.86 140.513 370.278 140.358 370.688C140.206 371.093 139.941 371.545 139.562 372.045C139.188 372.542 138.667 373.148 138 373.864L135.386 376.659V376.75H140.795V378H133.455Z" fill="black"/>
</g>
</g>
</g>
</g>
<g id="Wednesday_5">
<g id="container_25">
<g clip-path="url(#clip25_225_4644)">
<g id="state-layer_26">
<path id="Date_30" d="M171.017 378V376.977L174.858 372.773C175.309 372.28 175.68 371.852 175.972 371.489C176.263 371.121 176.479 370.777 176.619 370.455C176.763 370.129 176.835 369.788 176.835 369.432C176.835 369.023 176.737 368.669 176.54 368.369C176.347 368.07 176.081 367.839 175.744 367.676C175.407 367.513 175.028 367.432 174.608 367.432C174.161 367.432 173.771 367.525 173.438 367.71C173.108 367.892 172.852 368.148 172.67 368.477C172.492 368.807 172.403 369.193 172.403 369.636H171.062C171.062 368.955 171.22 368.356 171.534 367.841C171.848 367.326 172.277 366.924 172.818 366.636C173.364 366.348 173.975 366.205 174.653 366.205C175.335 366.205 175.939 366.348 176.466 366.636C176.992 366.924 177.405 367.312 177.705 367.801C178.004 368.29 178.153 368.833 178.153 369.432C178.153 369.86 178.076 370.278 177.92 370.688C177.769 371.093 177.504 371.545 177.125 372.045C176.75 372.542 176.229 373.148 175.562 373.864L172.949 376.659V376.75H178.358V378H171.017ZM185.136 378.159C184.386 378.159 183.718 378.03 183.131 377.773C182.547 377.515 182.083 377.157 181.739 376.699C181.398 376.237 181.212 375.701 181.182 375.091H182.614C182.644 375.466 182.773 375.79 183 376.062C183.227 376.331 183.525 376.54 183.892 376.688C184.259 376.835 184.667 376.909 185.114 376.909C185.614 376.909 186.057 376.822 186.443 376.648C186.83 376.473 187.133 376.231 187.352 375.92C187.572 375.61 187.682 375.25 187.682 374.841C187.682 374.413 187.576 374.036 187.364 373.71C187.152 373.381 186.841 373.123 186.432 372.938C186.023 372.752 185.523 372.659 184.932 372.659H184V371.409H184.932C185.394 371.409 185.799 371.326 186.148 371.159C186.5 370.992 186.775 370.758 186.972 370.455C187.172 370.152 187.273 369.795 187.273 369.386C187.273 368.992 187.186 368.65 187.011 368.358C186.837 368.066 186.591 367.839 186.273 367.676C185.958 367.513 185.587 367.432 185.159 367.432C184.758 367.432 184.379 367.506 184.023 367.653C183.67 367.797 183.383 368.008 183.159 368.284C182.936 368.557 182.814 368.886 182.795 369.273H181.432C181.455 368.663 181.638 368.129 181.983 367.67C182.328 367.208 182.778 366.848 183.335 366.591C183.896 366.333 184.511 366.205 185.182 366.205C185.902 366.205 186.519 366.35 187.034 366.642C187.549 366.93 187.945 367.311 188.222 367.784C188.498 368.258 188.636 368.769 188.636 369.318C188.636 369.973 188.464 370.532 188.119 370.994C187.778 371.456 187.314 371.777 186.727 371.955V372.045C187.462 372.167 188.036 372.479 188.449 372.983C188.862 373.483 189.068 374.102 189.068 374.841C189.068 375.473 188.896 376.042 188.551 376.545C188.21 377.045 187.744 377.439 187.153 377.727C186.563 378.015 185.89 378.159 185.136 378.159Z" fill="black"/>
</g>
</g>
</g>
</g>
<g id="Thursday_5">
<g id="container_26">
<g clip-path="url(#clip26_225_4644)">
<g id="state-layer_27">
<path id="Date_31" d="M219.103 378V376.977L222.944 372.773C223.395 372.28 223.766 371.852 224.058 371.489C224.349 371.121 224.565 370.777 224.705 370.455C224.849 370.129 224.921 369.788 224.921 369.432C224.921 369.023 224.823 368.669 224.626 368.369C224.433 368.07 224.167 367.839 223.83 367.676C223.493 367.513 223.114 367.432 222.694 367.432C222.247 367.432 221.857 367.525 221.523 367.71C221.194 367.892 220.938 368.148 220.756 368.477C220.578 368.807 220.489 369.193 220.489 369.636H219.148C219.148 368.955 219.306 368.356 219.62 367.841C219.934 367.326 220.362 366.924 220.904 366.636C221.45 366.348 222.061 366.205 222.739 366.205C223.421 366.205 224.025 366.348 224.552 366.636C225.078 366.924 225.491 367.312 225.79 367.801C226.09 368.29 226.239 368.833 226.239 369.432C226.239 369.86 226.162 370.278 226.006 370.688C225.855 371.093 225.59 371.545 225.211 372.045C224.836 372.542 224.315 373.148 223.648 373.864L221.035 376.659V376.75H226.444V378H219.103ZM228.768 375.614V374.455L233.881 366.364H234.722V368.159H234.154L230.29 374.273V374.364H237.177V375.614H228.768ZM234.245 378V375.261V374.722V366.364H235.586V378H234.245Z" fill="black"/>
</g>
</g>
</g>
</g>
<g id="Friday_5">
<g id="container_27">
<g clip-path="url(#clip27_225_4644)">
<g id="state-layer_28">
<path id="Date_32" d="M267.244 378V376.977L271.085 372.773C271.535 372.28 271.906 371.852 272.198 371.489C272.49 371.121 272.706 370.777 272.846 370.455C272.99 370.129 273.062 369.788 273.062 369.432C273.062 369.023 272.963 368.669 272.766 368.369C272.573 368.07 272.308 367.839 271.971 367.676C271.634 367.513 271.255 367.432 270.835 367.432C270.388 367.432 269.997 367.525 269.664 367.71C269.335 367.892 269.079 368.148 268.897 368.477C268.719 368.807 268.63 369.193 268.63 369.636H267.289C267.289 368.955 267.446 368.356 267.761 367.841C268.075 367.326 268.503 366.924 269.045 366.636C269.59 366.348 270.202 366.205 270.88 366.205C271.562 366.205 272.166 366.348 272.692 366.636C273.219 366.924 273.632 367.312 273.931 367.801C274.23 368.29 274.38 368.833 274.38 369.432C274.38 369.86 274.302 370.278 274.147 370.688C273.996 371.093 273.73 371.545 273.352 372.045C272.977 372.542 272.456 373.148 271.789 373.864L269.175 376.659V376.75H274.585V378H267.244ZM281.067 378.159C280.401 378.159 279.8 378.027 279.266 377.761C278.732 377.496 278.304 377.133 277.982 376.67C277.66 376.208 277.484 375.682 277.454 375.091H278.817C278.871 375.617 279.109 376.053 279.533 376.398C279.961 376.739 280.473 376.909 281.067 376.909C281.545 376.909 281.969 376.797 282.34 376.574C282.715 376.35 283.009 376.044 283.221 375.653C283.437 375.259 283.545 374.814 283.545 374.318C283.545 373.811 283.433 373.358 283.21 372.96C282.99 372.559 282.687 372.242 282.3 372.011C281.914 371.78 281.473 371.663 280.977 371.659C280.621 371.655 280.255 371.71 279.88 371.824C279.505 371.934 279.196 372.076 278.954 372.25L277.636 372.091L278.34 366.364H284.386V367.614H279.522L279.113 371.045H279.181C279.42 370.856 279.719 370.699 280.079 370.574C280.439 370.449 280.814 370.386 281.204 370.386C281.916 370.386 282.55 370.557 283.107 370.898C283.668 371.235 284.107 371.697 284.425 372.284C284.747 372.871 284.908 373.542 284.908 374.295C284.908 375.038 284.742 375.701 284.408 376.284C284.079 376.864 283.624 377.322 283.045 377.659C282.465 377.992 281.806 378.159 281.067 378.159Z" fill="black"/>
</g>
</g>
</g>
</g>
<g id="Saturday_5">
<g id="container_28">
<g clip-path="url(#clip28_225_4644)">
<g id="state-layer_29">
<path id="Date_33" d="M315.119 378V376.977L318.96 372.773C319.41 372.28 319.781 371.852 320.073 371.489C320.365 371.121 320.581 370.777 320.721 370.455C320.865 370.129 320.937 369.788 320.937 369.432C320.937 369.023 320.838 368.669 320.641 368.369C320.448 368.07 320.183 367.839 319.846 367.676C319.509 367.513 319.13 367.432 318.71 367.432C318.263 367.432 317.872 367.525 317.539 367.71C317.21 367.892 316.954 368.148 316.772 368.477C316.594 368.807 316.505 369.193 316.505 369.636H315.164C315.164 368.955 315.321 368.356 315.636 367.841C315.95 367.326 316.378 366.924 316.92 366.636C317.465 366.348 318.077 366.205 318.755 366.205C319.437 366.205 320.041 366.348 320.567 366.636C321.094 366.924 321.507 367.312 321.806 367.801C322.105 368.29 322.255 368.833 322.255 369.432C322.255 369.86 322.177 370.278 322.022 370.688C321.871 371.093 321.605 371.545 321.227 372.045C320.852 372.542 320.331 373.148 319.664 373.864L317.05 376.659V376.75H322.46V378H315.119ZM329.17 378.159C328.692 378.152 328.215 378.061 327.738 377.886C327.261 377.712 326.825 377.419 326.431 377.006C326.037 376.589 325.721 376.027 325.482 375.318C325.244 374.606 325.124 373.712 325.124 372.636C325.124 371.606 325.221 370.693 325.414 369.898C325.607 369.098 325.888 368.426 326.255 367.881C326.622 367.331 327.066 366.915 327.585 366.631C328.107 366.347 328.696 366.205 329.352 366.205C330.003 366.205 330.583 366.335 331.09 366.597C331.602 366.854 332.018 367.214 332.34 367.676C332.662 368.138 332.871 368.67 332.965 369.273H331.579C331.45 368.75 331.2 368.316 330.829 367.972C330.458 367.627 329.965 367.455 329.352 367.455C328.45 367.455 327.74 367.847 327.221 368.631C326.706 369.415 326.446 370.515 326.442 371.932H326.533C326.746 371.61 326.997 371.335 327.289 371.108C327.585 370.877 327.91 370.699 328.266 370.574C328.622 370.449 328.999 370.386 329.397 370.386C330.064 370.386 330.674 370.553 331.227 370.886C331.78 371.216 332.223 371.672 332.556 372.256C332.889 372.835 333.056 373.5 333.056 374.25C333.056 374.97 332.895 375.629 332.573 376.227C332.251 376.822 331.799 377.295 331.215 377.648C330.636 377.996 329.954 378.167 329.17 378.159ZM329.17 376.909C329.647 376.909 330.075 376.79 330.454 376.551C330.836 376.312 331.138 375.992 331.357 375.591C331.581 375.189 331.692 374.742 331.692 374.25C331.692 373.769 331.585 373.331 331.369 372.938C331.156 372.54 330.863 372.223 330.488 371.989C330.117 371.754 329.692 371.636 329.215 371.636C328.855 371.636 328.52 371.708 328.21 371.852C327.899 371.992 327.626 372.186 327.391 372.432C327.16 372.678 326.978 372.96 326.846 373.278C326.713 373.593 326.647 373.924 326.647 374.273C326.647 374.735 326.755 375.167 326.971 375.568C327.191 375.97 327.49 376.294 327.869 376.54C328.251 376.786 328.685 376.909 329.17 376.909Z" fill="black"/>
</g>
</g>
</g>
</g>
</g>
<g id="Week 5">
<g id="Sunday_5">
<g id="container_29">
<g clip-path="url(#clip29_225_4644)">
<g id="state-layer_30">
<path id="Date_34" d="M27.5405 426V424.977L31.3814 420.773C31.8321 420.28 32.2034 419.852 32.495 419.489C32.7867 419.121 33.0026 418.777 33.1428 418.455C33.2867 418.129 33.3587 417.788 33.3587 417.432C33.3587 417.023 33.2602 416.669 33.0632 416.369C32.87 416.07 32.6049 415.839 32.2678 415.676C31.9306 415.513 31.5518 415.432 31.1314 415.432C30.6844 415.432 30.2943 415.525 29.9609 415.71C29.6314 415.892 29.3757 416.148 29.1939 416.477C29.0159 416.807 28.9268 417.193 28.9268 417.636H27.5859C27.5859 416.955 27.7431 416.356 28.0575 415.841C28.3719 415.326 28.8 414.924 29.3416 414.636C29.8871 414.348 30.4988 414.205 31.1768 414.205C31.8587 414.205 32.4628 414.348 32.9893 414.636C33.5159 414.924 33.9287 415.312 34.228 415.801C34.5272 416.29 34.6768 416.833 34.6768 417.432C34.6768 417.86 34.5992 418.278 34.4439 418.688C34.2924 419.093 34.0272 419.545 33.6484 420.045C33.2734 420.542 32.7526 421.148 32.0859 421.864L29.4723 424.659V424.75H34.8814V426H27.5405ZM38.0916 426L43.2962 415.705V415.614H37.2962V414.364H44.7507V415.682L39.5689 426H38.0916Z" fill="black"/>
</g>
</g>
</g>
</g>
<g id="Monday_5">
<g id="container_30">
<g clip-path="url(#clip30_225_4644)">
<g id="state-layer_31">
<path id="Date_35" d="M75.1811 426V424.977L79.022 420.773C79.4728 420.28 79.844 419.852 80.1357 419.489C80.4273 419.121 80.6432 418.777 80.7834 418.455C80.9273 418.129 80.9993 417.788 80.9993 417.432C80.9993 417.023 80.9008 416.669 80.7038 416.369C80.5107 416.07 80.2455 415.839 79.9084 415.676C79.5713 415.513 79.1925 415.432 78.772 415.432C78.325 415.432 77.9349 415.525 77.6016 415.71C77.272 415.892 77.0163 416.148 76.8345 416.477C76.6565 416.807 76.5675 417.193 76.5675 417.636H75.2266C75.2266 416.955 75.3838 416.356 75.6982 415.841C76.0125 415.326 76.4406 414.924 76.9822 414.636C77.5277 414.348 78.1394 414.205 78.8175 414.205C79.4993 414.205 80.1035 414.348 80.63 414.636C81.1565 414.924 81.5694 415.312 81.8686 415.801C82.1679 416.29 82.3175 416.833 82.3175 417.432C82.3175 417.86 82.2398 418.278 82.0845 418.688C81.933 419.093 81.6679 419.545 81.2891 420.045C80.9141 420.542 80.3932 421.148 79.7266 421.864L77.1129 424.659V424.75H82.522V426H75.1811ZM89.0959 426.159C88.3156 426.159 87.6262 426.021 87.0277 425.744C86.433 425.464 85.969 425.08 85.6357 424.591C85.3023 424.098 85.1375 423.538 85.1413 422.909C85.1375 422.417 85.2341 421.962 85.4311 421.545C85.6281 421.125 85.897 420.775 86.2379 420.494C86.5826 420.21 86.9671 420.03 87.3913 419.955V419.886C86.8345 419.742 86.3913 419.43 86.0618 418.949C85.7322 418.464 85.5694 417.913 85.5732 417.295C85.5694 416.705 85.719 416.176 86.022 415.71C86.325 415.244 86.7417 414.877 87.272 414.608C87.8061 414.339 88.4141 414.205 89.0959 414.205C89.7701 414.205 90.3724 414.339 90.9027 414.608C91.433 414.877 91.8497 415.244 92.1527 415.71C92.4595 416.176 92.6148 416.705 92.6186 417.295C92.6148 417.913 92.4463 418.464 92.1129 418.949C91.7834 419.43 91.3459 419.742 90.8004 419.886V419.955C91.2209 420.03 91.5997 420.21 91.9368 420.494C92.2739 420.775 92.5429 421.125 92.7436 421.545C92.9444 421.962 93.0466 422.417 93.0504 422.909C93.0466 423.538 92.8762 424.098 92.5391 424.591C92.2057 425.08 91.7417 425.464 91.147 425.744C90.5561 426.021 89.8724 426.159 89.0959 426.159ZM89.0959 424.909C89.6224 424.909 90.0769 424.824 90.4595 424.653C90.8421 424.483 91.1375 424.242 91.3459 423.932C91.5542 423.621 91.6603 423.258 91.6641 422.841C91.6603 422.402 91.5466 422.013 91.3232 421.676C91.0997 421.339 90.7947 421.074 90.4084 420.881C90.0258 420.687 89.5883 420.591 89.0959 420.591C88.5997 420.591 88.1565 420.687 87.7663 420.881C87.38 421.074 87.075 421.339 86.8516 421.676C86.6319 422.013 86.5239 422.402 86.5277 422.841C86.5239 423.258 86.6243 423.621 86.8288 423.932C87.0372 424.242 87.3345 424.483 87.7209 424.653C88.1072 424.824 88.5656 424.909 89.0959 424.909ZM89.0959 419.386C89.5125 419.386 89.8819 419.303 90.2038 419.136C90.5296 418.97 90.7853 418.737 90.9709 418.438C91.1565 418.138 91.2512 417.788 91.255 417.386C91.2512 416.992 91.1584 416.65 90.9766 416.358C90.7947 416.062 90.5429 415.835 90.2209 415.676C89.8989 415.513 89.5239 415.432 89.0959 415.432C88.6603 415.432 88.2796 415.513 87.9538 415.676C87.6281 415.835 87.3762 416.062 87.1982 416.358C87.0201 416.65 86.933 416.992 86.9368 417.386C86.933 417.788 87.022 418.138 87.2038 418.438C87.3894 418.737 87.6451 418.97 87.9709 419.136C88.2966 419.303 88.6716 419.386 89.0959 419.386Z" fill="black"/>
</g>
</g>
</g>
</g>
<g id="Tuesday_6">
<g id="container_31">
<g clip-path="url(#clip31_225_4644)">
<g id="state-layer_32">
<path id="Date_36" d="M123.119 426V424.977L126.96 420.773C127.41 420.28 127.781 419.852 128.073 419.489C128.365 419.121 128.581 418.777 128.721 418.455C128.865 418.129 128.937 417.788 128.937 417.432C128.937 417.023 128.838 416.669 128.641 416.369C128.448 416.07 128.183 415.839 127.846 415.676C127.509 415.513 127.13 415.432 126.71 415.432C126.263 415.432 125.872 415.525 125.539 415.71C125.21 415.892 124.954 416.148 124.772 416.477C124.594 416.807 124.505 417.193 124.505 417.636H123.164C123.164 416.955 123.321 416.356 123.636 415.841C123.95 415.326 124.378 414.924 124.92 414.636C125.465 414.348 126.077 414.205 126.755 414.205C127.437 414.205 128.041 414.348 128.567 414.636C129.094 414.924 129.507 415.312 129.806 415.801C130.105 416.29 130.255 416.833 130.255 417.432C130.255 417.86 130.177 418.278 130.022 418.688C129.871 419.093 129.605 419.545 129.227 420.045C128.852 420.542 128.331 421.148 127.664 421.864L125.05 424.659V424.75H130.46V426H123.119ZM137.011 414.205C137.488 414.208 137.965 414.299 138.442 414.477C138.92 414.655 139.355 414.951 139.749 415.364C140.143 415.773 140.46 416.331 140.698 417.04C140.937 417.748 141.056 418.636 141.056 419.705C141.056 420.739 140.958 421.657 140.761 422.46C140.567 423.259 140.287 423.934 139.92 424.483C139.556 425.032 139.113 425.449 138.59 425.733C138.071 426.017 137.484 426.159 136.829 426.159C136.177 426.159 135.596 426.03 135.085 425.773C134.577 425.511 134.16 425.15 133.835 424.688C133.513 424.222 133.306 423.682 133.215 423.068H134.602C134.727 423.602 134.975 424.044 135.346 424.392C135.721 424.737 136.215 424.909 136.829 424.909C137.727 424.909 138.435 424.517 138.954 423.733C139.477 422.949 139.738 421.841 139.738 420.409H139.647C139.435 420.727 139.183 421.002 138.891 421.233C138.6 421.464 138.276 421.642 137.92 421.767C137.564 421.892 137.185 421.955 136.783 421.955C136.117 421.955 135.505 421.79 134.948 421.46C134.395 421.127 133.952 420.67 133.619 420.091C133.289 419.508 133.124 418.841 133.124 418.091C133.124 417.379 133.283 416.727 133.602 416.136C133.924 415.542 134.374 415.068 134.954 414.716C135.537 414.364 136.223 414.193 137.011 414.205ZM137.011 415.455C136.533 415.455 136.103 415.574 135.721 415.812C135.342 416.047 135.041 416.366 134.817 416.767C134.598 417.165 134.488 417.606 134.488 418.091C134.488 418.576 134.594 419.017 134.806 419.415C135.022 419.809 135.316 420.123 135.687 420.358C136.062 420.589 136.488 420.705 136.965 420.705C137.325 420.705 137.66 420.634 137.971 420.494C138.281 420.35 138.552 420.155 138.783 419.909C139.018 419.659 139.202 419.377 139.335 419.062C139.467 418.744 139.533 418.413 139.533 418.068C139.533 417.614 139.424 417.187 139.204 416.79C138.988 416.392 138.689 416.07 138.306 415.824C137.927 415.578 137.496 415.455 137.011 415.455Z" fill="black"/>
</g>
</g>
</g>
</g>
<g id="Wednesday_6">
<g id="container_32">
<g clip-path="url(#clip32_225_4644)">
<g id="state-layer_33">
<path id="Date_37" d="M174.793 426.159C174.043 426.159 173.374 426.03 172.787 425.773C172.204 425.515 171.74 425.157 171.395 424.699C171.054 424.237 170.868 423.701 170.838 423.091H172.27C172.3 423.466 172.429 423.79 172.656 424.062C172.884 424.331 173.181 424.54 173.548 424.688C173.916 424.835 174.323 424.909 174.77 424.909C175.27 424.909 175.713 424.822 176.099 424.648C176.486 424.473 176.789 424.231 177.009 423.92C177.228 423.61 177.338 423.25 177.338 422.841C177.338 422.413 177.232 422.036 177.02 421.71C176.808 421.381 176.497 421.123 176.088 420.938C175.679 420.752 175.179 420.659 174.588 420.659H173.656V419.409H174.588C175.05 419.409 175.455 419.326 175.804 419.159C176.156 418.992 176.431 418.758 176.628 418.455C176.829 418.152 176.929 417.795 176.929 417.386C176.929 416.992 176.842 416.65 176.668 416.358C176.493 416.066 176.247 415.839 175.929 415.676C175.615 415.513 175.243 415.432 174.815 415.432C174.414 415.432 174.035 415.506 173.679 415.653C173.327 415.797 173.039 416.008 172.815 416.284C172.592 416.557 172.471 416.886 172.452 417.273H171.088C171.111 416.663 171.295 416.129 171.639 415.67C171.984 415.208 172.435 414.848 172.991 414.591C173.552 414.333 174.168 414.205 174.838 414.205C175.558 414.205 176.175 414.35 176.69 414.642C177.205 414.93 177.601 415.311 177.878 415.784C178.154 416.258 178.293 416.769 178.293 417.318C178.293 417.973 178.12 418.532 177.776 418.994C177.435 419.456 176.971 419.777 176.384 419.955V420.045C177.118 420.167 177.692 420.479 178.105 420.983C178.518 421.483 178.724 422.102 178.724 422.841C178.724 423.473 178.552 424.042 178.207 424.545C177.866 425.045 177.401 425.439 176.81 425.727C176.219 426.015 175.546 426.159 174.793 426.159ZM185.344 426.159C184.488 426.159 183.759 425.926 183.156 425.46C182.554 424.991 182.094 424.311 181.776 423.42C181.457 422.527 181.298 421.447 181.298 420.182C181.298 418.924 181.457 417.85 181.776 416.96C182.098 416.066 182.56 415.384 183.162 414.915C183.768 414.441 184.495 414.205 185.344 414.205C186.192 414.205 186.918 414.441 187.52 414.915C188.126 415.384 188.588 416.066 188.906 416.96C189.228 417.85 189.389 418.924 189.389 420.182C189.389 421.447 189.23 422.527 188.912 423.42C188.594 424.311 188.134 424.991 187.531 425.46C186.929 425.926 186.2 426.159 185.344 426.159ZM185.344 424.909C186.192 424.909 186.851 424.5 187.321 423.682C187.791 422.864 188.026 421.697 188.026 420.182C188.026 419.174 187.918 418.316 187.702 417.608C187.49 416.9 187.183 416.36 186.781 415.989C186.384 415.617 185.904 415.432 185.344 415.432C184.503 415.432 183.846 415.847 183.372 416.676C182.899 417.502 182.662 418.67 182.662 420.182C182.662 421.189 182.768 422.045 182.98 422.75C183.192 423.455 183.497 423.991 183.895 424.358C184.296 424.725 184.779 424.909 185.344 424.909Z" fill="black"/>
</g>
</g>
</g>
</g>
<g id="Thursday_6">
<g id="container_33">
<g clip-path="url(#clip33_225_4644)">
<g id="state-layer_34">
<path id="Date_38" d="M224.074 426.159C223.324 426.159 222.655 426.03 222.068 425.773C221.485 425.515 221.021 425.157 220.676 424.699C220.335 424.237 220.15 423.701 220.119 423.091H221.551C221.581 423.466 221.71 423.79 221.938 424.062C222.165 424.331 222.462 424.54 222.83 424.688C223.197 424.835 223.604 424.909 224.051 424.909C224.551 424.909 224.994 424.822 225.381 424.648C225.767 424.473 226.07 424.231 226.29 423.92C226.509 423.61 226.619 423.25 226.619 422.841C226.619 422.413 226.513 422.036 226.301 421.71C226.089 421.381 225.778 421.123 225.369 420.938C224.96 420.752 224.46 420.659 223.869 420.659H222.938V419.409H223.869C224.331 419.409 224.737 419.326 225.085 419.159C225.438 418.992 225.712 418.758 225.909 418.455C226.11 418.152 226.21 417.795 226.21 417.386C226.21 416.992 226.123 416.65 225.949 416.358C225.775 416.066 225.528 415.839 225.21 415.676C224.896 415.513 224.525 415.432 224.097 415.432C223.695 415.432 223.316 415.506 222.96 415.653C222.608 415.797 222.32 416.008 222.097 416.284C221.873 416.557 221.752 416.886 221.733 417.273H220.369C220.392 416.663 220.576 416.129 220.92 415.67C221.265 415.208 221.716 414.848 222.273 414.591C222.833 414.333 223.449 414.205 224.119 414.205C224.839 414.205 225.456 414.35 225.972 414.642C226.487 414.93 226.883 415.311 227.159 415.784C227.436 416.258 227.574 416.769 227.574 417.318C227.574 417.973 227.402 418.532 227.057 418.994C226.716 419.456 226.252 419.777 225.665 419.955V420.045C226.4 420.167 226.973 420.479 227.386 420.983C227.799 421.483 228.006 422.102 228.006 422.841C228.006 423.473 227.833 424.042 227.489 424.545C227.148 425.045 226.682 425.439 226.091 425.727C225.5 426.015 224.828 426.159 224.074 426.159ZM234.92 414.364V426H233.511V415.841H233.443L230.602 417.727V416.295L233.511 414.364H234.92Z" fill="black"/>
</g>
</g>
</g>
</g>
</g>
</g>
<g id="Local Actions">
<g id="Button container">
<g id="Primary button">
<g clip-path="url(#clip34_225_4644)">
<path d="M305 460C305 455.582 308.582 452 313 452H340C344.418 452 348 455.582 348 460V484C348 488.418 344.418 492 340 492H313C308.582 492 305 488.418 305 484V460Z" fill="#FCF8F8"/>
<g id="state-layer_35">
<path id="label-text_2" d="M326.149 471.75V472.297C326.149 473.049 326.051 473.723 325.855 474.32C325.659 474.917 325.379 475.425 325.014 475.845C324.654 476.264 324.221 476.585 323.716 476.809C323.21 477.027 322.649 477.137 322.034 477.137C321.423 477.137 320.865 477.027 320.359 476.809C319.858 476.585 319.423 476.264 319.054 475.845C318.684 475.425 318.397 474.917 318.192 474.32C317.992 473.723 317.891 473.049 317.891 472.297V471.75C317.891 470.998 317.992 470.326 318.192 469.733C318.393 469.136 318.675 468.628 319.04 468.209C319.409 467.785 319.844 467.464 320.346 467.245C320.851 467.022 321.41 466.91 322.02 466.91C322.636 466.91 323.196 467.022 323.702 467.245C324.208 467.464 324.643 467.785 325.008 468.209C325.372 468.628 325.652 469.136 325.848 469.733C326.049 470.326 326.149 470.998 326.149 471.75ZM324.433 472.297V471.736C324.433 471.18 324.379 470.69 324.269 470.267C324.165 469.838 324.007 469.48 323.798 469.193C323.593 468.902 323.34 468.683 323.039 468.537C322.738 468.387 322.399 468.312 322.02 468.312C321.642 468.312 321.305 468.387 321.009 468.537C320.712 468.683 320.459 468.902 320.25 469.193C320.045 469.48 319.887 469.838 319.778 470.267C319.669 470.69 319.614 471.18 319.614 471.736V472.297C319.614 472.853 319.669 473.345 319.778 473.773C319.887 474.202 320.047 474.564 320.257 474.86C320.471 475.152 320.726 475.373 321.022 475.523C321.318 475.669 321.656 475.742 322.034 475.742C322.417 475.742 322.756 475.669 323.053 475.523C323.349 475.373 323.599 475.152 323.804 474.86C324.01 474.564 324.165 474.202 324.269 473.773C324.379 473.345 324.433 472.853 324.433 472.297ZM329.681 467.047V477H327.965V467.047H329.681ZM335.662 467.047L331.629 471.839L329.332 474.272L329.031 472.57L330.672 470.547L333.571 467.047H335.662ZM333.817 477L330.542 472.283L331.725 471.114L335.854 477H333.817Z" fill="#1F3701"/>
</g>
</g>
</g>
</g>
</g>
</g>
</g>
<defs>
<clipPath id="clip0_225_4644">
<path d="M0 16C0 7.16344 7.16344 0 16 0H344C352.837 0 360 7.16344 360 16V488C360 496.837 352.837 504 344 504H16C7.16344 504 0 496.837 0 488V16Z" fill="white"/>
</clipPath>
<clipPath id="clip1_225_4644">
<rect x="256" y="108" width="40" height="40" rx="20" fill="white"/>
</clipPath>
<clipPath id="clip2_225_4644">
<rect x="304" y="108" width="40" height="40" rx="20" fill="white"/>
</clipPath>
<clipPath id="clip3_225_4644">
<rect x="112" y="208" width="40" height="40" rx="20" fill="white"/>
</clipPath>
<clipPath id="clip4_225_4644">
<rect x="160" y="208" width="40" height="40" rx="20" fill="white"/>
</clipPath>
<clipPath id="clip5_225_4644">
<rect x="208" y="208" width="40" height="40" rx="20" fill="white"/>
</clipPath>
<clipPath id="clip6_225_4644">
<rect x="256" y="208" width="40" height="40" rx="20" fill="white"/>
</clipPath>
<clipPath id="clip7_225_4644">
<rect x="304" y="208" width="40" height="40" rx="20" fill="white"/>
</clipPath>
<clipPath id="clip8_225_4644">
<rect x="16" y="256" width="40" height="40" rx="20" fill="white"/>
</clipPath>
<clipPath id="clip9_225_4644">
<rect x="64" y="256" width="40" height="40" rx="20" fill="white"/>
</clipPath>
<clipPath id="clip10_225_4644">
<rect x="112" y="256" width="40" height="40" rx="20" fill="white"/>
</clipPath>
<clipPath id="clip11_225_4644">
<rect x="160" y="256" width="40" height="40" rx="20" fill="white"/>
</clipPath>
<clipPath id="clip12_225_4644">
<rect x="208" y="256" width="40" height="40" rx="20" fill="white"/>
</clipPath>
<clipPath id="clip13_225_4644">
<rect x="256" y="256" width="40" height="40" rx="20" fill="white"/>
</clipPath>
<clipPath id="clip14_225_4644">
<rect x="304" y="256" width="40" height="40" rx="20" fill="white"/>
</clipPath>
<clipPath id="clip15_225_4644">
<rect x="16" y="304" width="40" height="40" rx="20" fill="white"/>
</clipPath>
<clipPath id="clip16_225_4644">
<rect x="64" y="304" width="40" height="40" rx="20" fill="white"/>
</clipPath>
<clipPath id="clip17_225_4644">
<rect x="112" y="304" width="40" height="40" rx="20" fill="white"/>
</clipPath>
<clipPath id="clip18_225_4644">
<rect x="160" y="304" width="40" height="40" rx="20" fill="white"/>
</clipPath>
<clipPath id="clip19_225_4644">
<rect x="208" y="304" width="40" height="40" rx="20" fill="white"/>
</clipPath>
<clipPath id="clip20_225_4644">
<rect x="256" y="304" width="40" height="40" rx="20" fill="white"/>
</clipPath>
<clipPath id="clip21_225_4644">
<rect x="304" y="304" width="40" height="40" rx="20" fill="white"/>
</clipPath>
<clipPath id="clip22_225_4644">
<rect x="16" y="352" width="40" height="40" rx="20" fill="white"/>
</clipPath>
<clipPath id="clip23_225_4644">
<rect x="64" y="352" width="40" height="40" rx="20" fill="white"/>
</clipPath>
<clipPath id="clip24_225_4644">
<rect x="112" y="352" width="40" height="40" rx="20" fill="white"/>
</clipPath>
<clipPath id="clip25_225_4644">
<rect x="160" y="352" width="40" height="40" rx="20" fill="white"/>
</clipPath>
<clipPath id="clip26_225_4644">
<rect x="208" y="352" width="40" height="40" rx="20" fill="white"/>
</clipPath>
<clipPath id="clip27_225_4644">
<rect x="256" y="352" width="40" height="40" rx="20" fill="white"/>
</clipPath>
<clipPath id="clip28_225_4644">
<rect x="304" y="352" width="40" height="40" rx="20" fill="white"/>
</clipPath>
<clipPath id="clip29_225_4644">
<rect x="16" y="400" width="40" height="40" rx="20" fill="white"/>
</clipPath>
<clipPath id="clip30_225_4644">
<rect x="64" y="400" width="40" height="40" rx="20" fill="white"/>
</clipPath>
<clipPath id="clip31_225_4644">
<rect x="112" y="400" width="40" height="40" rx="20" fill="white"/>
</clipPath>
<clipPath id="clip32_225_4644">
<rect x="160" y="400" width="40" height="40" rx="20" fill="white"/>
</clipPath>
<clipPath id="clip33_225_4644">
<rect x="208" y="400" width="40" height="40" rx="20" fill="white"/>
</clipPath>
<clipPath id="clip34_225_4644">
<path d="M305 460C305 455.582 308.582 452 313 452H340C344.418 452 348 455.582 348 460V484C348 488.418 344.418 492 340 492H313C308.582 492 305 488.418 305 484V460Z" fill="white"/>
</clipPath>
</defs>
</svg>
