<svg width="50" height="32" viewBox="0 0 50 32" fill="none" xmlns="http://www.w3.org/2000/svg">
<g id="Chip-category">
<path d="M8 0.5H42C46.1421 0.5 49.5 3.85786 49.5 8V24C49.5 28.1421 46.1421 31.5 42 31.5H8C3.85787 31.5 0.5 28.1421 0.5 24V8C0.5 3.85786 3.85786 0.5 8 0.5Z" fill="#7BF179"/>
<path d="M8 0.5H42C46.1421 0.5 49.5 3.85786 49.5 8V24C49.5 28.1421 46.1421 31.5 42 31.5H8C3.85787 31.5 0.5 28.1421 0.5 24V8C0.5 3.85786 3.85786 0.5 8 0.5Z" stroke="#7BF179"/>
<path id="label-text" d="M18.496 21H16.5272L20.1117 10.8182H22.3887L25.9782 21H24.0095L21.29 12.9062H21.2105L18.496 21ZM18.5606 17.0078H23.9299V18.4893H18.5606V17.0078ZM29.1395 10.8182V21H27.3398V10.8182H29.1395ZM32.8899 10.8182V21H31.0901V10.8182H32.8899Z" fill="#102000"/>
</g>
</svg>
