<svg width="1295" height="436" viewBox="0 0 1295 436" fill="none" xmlns="http://www.w3.org/2000/svg">
<g id="Spaces">
<rect width="1295" height="436" fill="white"/>
<path id="Spacing" d="M60.4844 60.2031C60.401 59.4635 60.0573 58.8906 59.4531 58.4844C58.849 58.0729 58.0885 57.8672 57.1719 57.8672C56.5156 57.8672 55.9479 57.9714 55.4688 58.1797C54.9896 58.3828 54.6172 58.6641 54.3516 59.0234C54.0911 59.3776 53.9609 59.7812 53.9609 60.2344C53.9609 60.6146 54.0495 60.9427 54.2266 61.2187C54.4089 61.4948 54.6458 61.7266 54.9375 61.9141C55.2344 62.0964 55.5521 62.25 55.8906 62.375C56.2292 62.4948 56.5547 62.5937 56.8672 62.6719L58.4297 63.0781C58.9401 63.2031 59.4635 63.3724 60 63.5859C60.5365 63.7995 61.0339 64.0807 61.4922 64.4297C61.9505 64.7786 62.3203 65.2109 62.6016 65.7266C62.888 66.2422 63.0313 66.8594 63.0313 67.5781C63.0313 68.4844 62.7969 69.2891 62.3281 69.9922C61.8646 70.6953 61.1901 71.25 60.3047 71.6562C59.4245 72.0625 58.3594 72.2656 57.1094 72.2656C55.9115 72.2656 54.875 72.0755 54 71.6953C53.125 71.3151 52.4401 70.776 51.9453 70.0781C51.4505 69.375 51.1771 68.5417 51.125 67.5781H53.5469C53.5938 68.1562 53.7813 68.638 54.1094 69.0234C54.4427 69.4036 54.8672 69.6875 55.3828 69.875C55.9036 70.0573 56.474 70.1484 57.0938 70.1484C57.776 70.1484 58.3828 70.0417 58.9141 69.8281C59.4505 69.6094 59.8724 69.3073 60.1797 68.9219C60.487 68.5312 60.6406 68.0755 60.6406 67.5547C60.6406 67.0807 60.5052 66.6927 60.2344 66.3906C59.9688 66.0885 59.6068 65.8385 59.1484 65.6406C58.6953 65.4427 58.1823 65.2682 57.6094 65.1172L55.7188 64.6016C54.4375 64.2526 53.4219 63.7396 52.6719 63.0625C51.9271 62.3854 51.5547 61.4896 51.5547 60.375C51.5547 59.4531 51.8047 58.6484 52.3047 57.9609C52.8047 57.2734 53.4818 56.7396 54.3359 56.3594C55.1901 55.974 56.1536 55.7812 57.2266 55.7812C58.3099 55.7812 59.2656 55.9714 60.0938 56.3516C60.9271 56.7318 61.5833 57.2552 62.0625 57.9219C62.5417 58.5833 62.7917 59.3437 62.8125 60.2031H60.4844ZM65.3985 76.5V60H67.6798V61.9453H67.8751C68.0105 61.6953 68.2058 61.4062 68.461 61.0781C68.7162 60.75 69.0704 60.4635 69.5235 60.2187C69.9766 59.9688 70.5756 59.8438 71.3204 59.8438C72.2891 59.8438 73.1537 60.0885 73.9141 60.5781C74.6746 61.0677 75.2709 61.7734 75.7032 62.6953C76.1407 63.6172 76.3595 64.7266 76.3595 66.0234C76.3595 67.3203 76.1433 68.4323 75.711 69.3594C75.2787 70.2812 74.685 70.9922 73.9298 71.4922C73.1746 71.987 72.3126 72.2344 71.3438 72.2344C70.6147 72.2344 70.0183 72.112 69.5548 71.8672C69.0964 71.6224 68.7371 71.3359 68.4766 71.0078C68.2162 70.6797 68.0157 70.388 67.8751 70.1328H67.7345V76.5H65.3985ZM67.6876 66C67.6876 66.8437 67.81 67.5833 68.0548 68.2188C68.2996 68.8542 68.6537 69.3516 69.1173 69.7109C69.5808 70.0651 70.1485 70.2422 70.8204 70.2422C71.5183 70.2422 72.1016 70.0573 72.5704 69.6875C73.0391 69.3125 73.3933 68.8047 73.6329 68.1641C73.8777 67.5234 74.0001 66.8021 74.0001 66C74.0001 65.2083 73.8803 64.4974 73.6407 63.8672C73.4063 63.237 73.0522 62.7396 72.5782 62.375C72.1095 62.0104 71.5235 61.8281 70.8204 61.8281C70.1433 61.8281 69.5704 62.0026 69.1016 62.3516C68.6381 62.7005 68.2865 63.1875 68.047 63.8125C67.8074 64.4375 67.6876 65.1667 67.6876 66ZM82.1388 72.2656C81.3784 72.2656 80.6909 72.125 80.0763 71.8437C79.4617 71.5573 78.9748 71.1432 78.6154 70.6016C78.2612 70.0599 78.0841 69.3958 78.0841 68.6094C78.0841 67.9323 78.2143 67.375 78.4748 66.9375C78.7352 66.5 79.0867 66.1536 79.5295 65.8984C79.9722 65.6432 80.467 65.4505 81.0138 65.3203C81.5607 65.1901 82.118 65.0911 82.6857 65.0234C83.4045 64.9401 83.9878 64.8724 84.4357 64.8203C84.8836 64.763 85.2091 64.6719 85.4123 64.5469C85.6154 64.4219 85.717 64.2187 85.717 63.9375V63.8828C85.717 63.2005 85.5242 62.6719 85.1388 62.2969C84.7586 61.9219 84.1909 61.7344 83.4357 61.7344C82.6492 61.7344 82.0295 61.9089 81.5763 62.2578C81.1284 62.6016 80.8185 62.9844 80.6466 63.4062L78.4513 62.9062C78.7117 62.1771 79.092 61.5885 79.592 61.1406C80.0972 60.6875 80.6779 60.3594 81.3341 60.1562C81.9904 59.9479 82.6805 59.8438 83.4045 59.8438C83.8836 59.8438 84.3914 59.901 84.9279 60.0156C85.4696 60.125 85.9748 60.3281 86.4435 60.625C86.9175 60.9219 87.3055 61.3464 87.6076 61.8984C87.9097 62.4453 88.0607 63.1563 88.0607 64.0313V72H85.7795V70.3594H85.6857C85.5347 70.6615 85.3081 70.9583 85.006 71.25C84.7039 71.5417 84.3159 71.7839 83.842 71.9766C83.368 72.1693 82.8003 72.2656 82.1388 72.2656ZM82.6466 70.3906C83.2925 70.3906 83.8446 70.263 84.3029 70.0078C84.7664 69.7526 85.118 69.4193 85.3576 69.0078C85.6024 68.5911 85.7248 68.1458 85.7248 67.6719V66.125C85.6414 66.2083 85.48 66.2865 85.2404 66.3594C85.006 66.4271 84.7378 66.487 84.4357 66.5391C84.1336 66.5859 83.8393 66.6302 83.5529 66.6719C83.2664 66.7083 83.0268 66.7396 82.8341 66.7656C82.381 66.8229 81.967 66.9193 81.592 67.0547C81.2222 67.1901 80.9253 67.3854 80.7013 67.6406C80.4826 67.8906 80.3732 68.224 80.3732 68.6406C80.3732 69.2187 80.5867 69.6562 81.0138 69.9531C81.4409 70.2448 81.9852 70.3906 82.6466 70.3906ZM95.8967 72.2422C94.7353 72.2422 93.7353 71.9792 92.8967 71.4531C92.0634 70.9219 91.4228 70.1901 90.9748 69.2578C90.5269 68.3255 90.303 67.2578 90.303 66.0547C90.303 64.8359 90.5321 63.7604 90.9905 62.8281C91.4488 61.8906 92.0946 61.1589 92.928 60.6328C93.7613 60.1068 94.7431 59.8438 95.8733 59.8438C96.7847 59.8438 97.5972 60.013 98.3108 60.3516C99.0243 60.6849 99.5998 61.1536 100.037 61.7578C100.48 62.362 100.743 63.0677 100.826 63.875H98.553C98.428 63.3125 98.1415 62.8281 97.6936 62.4219C97.2509 62.0156 96.6571 61.8125 95.9123 61.8125C95.2613 61.8125 94.691 61.9844 94.2014 62.3281C93.717 62.6667 93.3394 63.151 93.0686 63.7812C92.7978 64.4062 92.6623 65.1458 92.6623 66C92.6623 66.875 92.7952 67.6302 93.0608 68.2656C93.3264 68.901 93.7014 69.3932 94.1858 69.7422C94.6754 70.0911 95.2509 70.2656 95.9123 70.2656C96.3551 70.2656 96.7561 70.1849 97.1155 70.0234C97.4801 69.8568 97.7847 69.6198 98.0295 69.3125C98.2795 69.0052 98.454 68.6354 98.553 68.2031H100.826C100.743 68.9792 100.49 69.6719 100.069 70.2812C99.6467 70.8906 99.0816 71.3698 98.3733 71.7187C97.6702 72.0677 96.8446 72.2422 95.8967 72.2422ZM102.994 72V60H105.33V72H102.994ZM104.174 58.1484C103.768 58.1484 103.419 58.013 103.127 57.7422C102.841 57.4661 102.698 57.138 102.698 56.7578C102.698 56.3724 102.841 56.0443 103.127 55.7734C103.419 55.4974 103.768 55.3594 104.174 55.3594C104.58 55.3594 104.927 55.4974 105.213 55.7734C105.505 56.0443 105.651 56.3724 105.651 56.7578C105.651 57.138 105.505 57.4661 105.213 57.7422C104.927 58.013 104.58 58.1484 104.174 58.1484ZM110.479 64.875V72H108.143V60H110.385V61.9531H110.534C110.81 61.3177 111.242 60.8073 111.83 60.4219C112.424 60.0365 113.172 59.8438 114.073 59.8438C114.89 59.8438 115.607 60.0156 116.221 60.3594C116.836 60.6979 117.312 61.2031 117.651 61.875C117.989 62.5469 118.159 63.3776 118.159 64.3672V72H115.823V64.6484C115.823 63.7786 115.596 63.099 115.143 62.6094C114.69 62.1146 114.067 61.8672 113.276 61.8672C112.734 61.8672 112.252 61.9844 111.83 62.2187C111.414 62.4531 111.083 62.7969 110.838 63.25C110.599 63.6979 110.479 64.2396 110.479 64.875ZM125.993 76.75C125.04 76.75 124.219 76.625 123.532 76.375C122.849 76.125 122.292 75.7943 121.86 75.3828C121.428 74.9714 121.105 74.5208 120.891 74.0313L122.899 73.2031C123.04 73.4323 123.227 73.6745 123.461 73.9297C123.701 74.1901 124.024 74.4115 124.43 74.5938C124.842 74.776 125.37 74.8672 126.016 74.8672C126.902 74.8672 127.633 74.651 128.211 74.2188C128.79 73.7917 129.079 73.1094 129.079 72.1719V69.8125H128.93C128.79 70.0677 128.586 70.3516 128.321 70.6641C128.06 70.9766 127.701 71.2474 127.243 71.4766C126.784 71.7057 126.188 71.8203 125.454 71.8203C124.506 71.8203 123.652 71.599 122.891 71.1562C122.136 70.7083 121.537 70.0495 121.094 69.1797C120.657 68.3047 120.438 67.2292 120.438 65.9531C120.438 64.6771 120.654 63.5833 121.086 62.6719C121.524 61.7604 122.123 61.0625 122.883 60.5781C123.644 60.0885 124.506 59.8438 125.469 59.8438C126.214 59.8438 126.816 59.9688 127.274 60.2187C127.732 60.4635 128.089 60.75 128.344 61.0781C128.605 61.4062 128.805 61.6953 128.946 61.9453H129.118V60H131.407V72.2656C131.407 73.2969 131.167 74.1432 130.688 74.8047C130.209 75.4661 129.56 75.9557 128.743 76.2734C127.93 76.5911 127.013 76.75 125.993 76.75ZM125.969 69.8828C126.641 69.8828 127.209 69.7266 127.672 69.4141C128.141 69.0964 128.495 68.6432 128.735 68.0547C128.98 67.4609 129.102 66.75 129.102 65.9219C129.102 65.1146 128.982 64.4036 128.743 63.7891C128.503 63.1745 128.152 62.6953 127.688 62.3516C127.224 62.0026 126.652 61.8281 125.969 61.8281C125.266 61.8281 124.68 62.0104 124.211 62.375C123.743 62.7344 123.388 63.224 123.149 63.8437C122.915 64.4635 122.797 65.1562 122.797 65.9219C122.797 66.7083 122.917 67.3984 123.157 67.9922C123.396 68.5859 123.75 69.0495 124.219 69.3828C124.693 69.7161 125.277 69.8828 125.969 69.8828Z" fill="#0B0B0B"/>
<line id="Line 1" opacity="0.2" x1="50" y1="99.5" x2="1245" y2="99.5" stroke="black"/>
<g id="Spacing/1 - 8px">
<rect id="Rectangle 113" x="50" y="122" width="1195" height="8" fill="#F5A6A6"/>
</g>
<g id="Spacing/2 - 12px">
<rect id="Rectangle 113_2" x="50" y="152" width="1195" height="12" fill="#F5A6A6"/>
</g>
<g id="Spacing/3 - 16px">
<rect id="Rectangle 113_3" x="50" y="186" width="1195" height="16" fill="#F5A6A6"/>
</g>
<g id="Spacing/4- 24px">
<rect id="Rectangle 113_4" x="50" y="224" width="1195" height="24" fill="#F5A6A6"/>
</g>
<g id="Spacing/5 - 32px">
<rect id="Rectangle 113_5" x="50" y="270" width="1195" height="32" fill="#F5A6A6"/>
</g>
<g id="Spacing/5 - 62px">
<rect id="Rectangle 113_6" x="50" y="324" width="1195" height="62" fill="#F5A6A6"/>
</g>
</g>
</svg>
